<?xml version="1.0" encoding="UTF-8" standalone="no"?>
<!-- Created with Inkscape (http://www.inkscape.org/) -->

<svg
   xmlns:dc="http://purl.org/dc/elements/1.1/"
   xmlns:cc="http://creativecommons.org/ns#"
   xmlns:rdf="http://www.w3.org/1999/02/22-rdf-syntax-ns#"
   xmlns:svg="http://www.w3.org/2000/svg"
   xmlns="http://www.w3.org/2000/svg"
   xmlns:sodipodi="http://sodipodi.sourceforge.net/DTD/sodipodi-0.dtd"
   xmlns:inkscape="http://www.inkscape.org/namespaces/inkscape"
   id="svg2"
   version="1.1"
   inkscape:version="0.91 r13725"
   xml:space="preserve"
   width="1052.3625"
   height="744.09998"
   viewBox="0 0 1052.3625 744.09998"
   sodipodi:docname="bluefon.svg"><metadata
     id="metadata8"><rdf:RDF><cc:Work
         rdf:about=""><dc:format>image/svg+xml</dc:format><dc:type
           rdf:resource="http://purl.org/dc/dcmitype/StillImage" /><dc:title></dc:title></cc:Work></rdf:RDF></metadata><defs
     id="defs6"><clipPath
       clipPathUnits="userSpaceOnUse"
       id="clipPath16"><path
         d="m 0,0 841.89,0 0,595.28 L 0,595.28 0,0 Z"
         id="path18"
         inkscape:connector-curvature="0" /></clipPath></defs><sodipodi:namedview
     pagecolor="#ffffff"
     bordercolor="#666666"
     borderopacity="1"
     objecttolerance="10"
     gridtolerance="10"
     guidetolerance="10"
     inkscape:pageopacity="0"
     inkscape:pageshadow="2"
     inkscape:window-width="3569"
     inkscape:window-height="1727"
     id="namedview4"
     showgrid="false"
     inkscape:zoom="1.2686467"
     inkscape:cx="550.50491"
     inkscape:cy="469.53967"
     inkscape:window-x="0"
     inkscape:window-y="41"
     inkscape:window-maximized="0"
     inkscape:current-layer="g10" /><g
     id="g10"
     inkscape:groupmode="layer"
     inkscape:label="Грифон элементы фир стиля"
     transform="matrix(1.25,0,0,-1.25,0,744.1)"><g
       id="g12"><g
         id="g14"
         clip-path="url(#clipPath16)"><g
           id="g20"><g
             id="g22"
             transform="scale(1,-1)"><g
               id="g24"><path
                 d="m -5.66919,5.66748 c 0,-52.91456 0,-105.82863 0,-158.7427 34.965836,0 69.931429,0 104.897265,0 0,52.91407 0,105.82814 0,158.7427 -34.965836,0 -69.931429,0 -104.897265,0 z"
                 style="fill:#263065;fill-opacity:1;fill-rule:nonzero;stroke:none"
                 id="path26"
                 inkscape:connector-curvature="0" /><path
                 d="m 99.228075,5.66748 c 0,-52.91456 0,-105.82863 0,-158.7427 34.965595,0 69.931425,0 104.897025,0 0,52.91407 0,105.82814 0,158.7427 -34.9656,0 -69.93143,0 -104.897025,0 z"
                 style="fill:#263065;fill-opacity:1;fill-rule:nonzero;stroke:none"
                 id="path28"
                 inkscape:connector-curvature="0" /><path
                 d="m -5.66919,-153.07522 c 34.965836,0 69.931429,0 104.897265,0 0,-26.45753 0,-52.91456 0,-79.3716 -34.965836,0 -69.931429,0 -104.897265,0 0,26.45704 0,52.91407 0,79.3716 z"
                 style="fill:#263065;fill-opacity:1;fill-rule:nonzero;stroke:none"
                 id="path30"
                 inkscape:connector-curvature="0" /><path
                 d="m -5.66919,-232.44682 c 34.965836,0 69.931429,0 104.897265,0 0,-26.45703 0,-52.91407 0,-79.37111 -34.965836,0 -69.931429,0 -104.897265,0 0,26.45704 0,52.91408 0,79.37111 z"
                 style="fill:#263065;fill-opacity:1;fill-rule:nonzero;stroke:none"
                 id="path32"
                 inkscape:connector-curvature="0" /><path
                 d="m 99.228075,-153.07522 c 34.965595,0 69.931425,0 104.897025,0 0,-26.45753 0,-52.91456 0,-79.3716 -34.9656,0 -69.93143,0 -104.897025,0 0,26.45704 0,52.91407 0,79.3716 z"
                 style="fill:#293773;fill-opacity:1;fill-rule:nonzero;stroke:none"
                 id="path34"
                 inkscape:connector-curvature="0" /><path
                 d="m 99.228075,-232.44682 c 34.965595,0 69.931425,0 104.897025,0 0,-26.45703 0,-52.91407 0,-79.37111 -34.9656,0 -69.93143,0 -104.897025,0 0,26.45704 0,52.91408 0,79.37111 z"
                 style="fill:#2b3b79;fill-opacity:1;fill-rule:nonzero;stroke:none"
                 id="path36"
                 inkscape:connector-curvature="0" /><path
                 d="m 204.1251,5.66748 c 34.96583,0 69.93143,0 104.89726,0 0,-26.457524 0,-52.91456 0,-79.371595 -34.96583,0 -69.93143,0 -104.89726,0 0,26.457035 0,52.914071 0,79.371595 z"
                 style="fill:#263065;fill-opacity:1;fill-rule:nonzero;stroke:none"
                 id="path38"
                 inkscape:connector-curvature="0" /><path
                 d="m 204.1251,-73.704115 c 34.96583,0 69.93143,0 104.89726,0 0,-26.457035 0,-52.914075 0,-79.371105 -34.96583,0 -69.93143,0 -104.89726,0 0,26.45703 0,52.91407 0,79.371105 z"
                 style="fill:#293773;fill-opacity:1;fill-rule:nonzero;stroke:none"
                 id="path40"
                 inkscape:connector-curvature="0" /><path
                 d="m 309.02236,5.66748 c 34.96559,0 69.93143,0 104.89702,0 0,-26.457524 0,-52.91456 0,-79.371595 -34.96559,0 -69.93143,0 -104.89702,0 0,26.457035 0,52.914071 0,79.371595 z"
                 style="fill:#263065;fill-opacity:1;fill-rule:nonzero;stroke:none"
                 id="path42"
                 inkscape:connector-curvature="0" /><path
                 d="m 309.02236,-73.704115 c 34.96559,0 69.93143,0 104.89702,0 0,-26.457035 0,-52.914075 0,-79.371105 -34.96559,0 -69.93143,0 -104.89702,0 0,26.45703 0,52.91407 0,79.371105 z"
                 style="fill:#2b3b79;fill-opacity:1;fill-rule:nonzero;stroke:none"
                 id="path44"
                 inkscape:connector-curvature="0" /><path
                 d="m 204.1251,-153.07522 c 34.96583,0 69.93143,0 104.89726,0 0,-26.45753 0,-52.91456 0,-79.3716 -34.96583,0 -69.93143,0 -104.89726,0 0,26.45704 0,52.91407 0,79.3716 z"
                 style="fill:#2b3f80;fill-opacity:1;fill-rule:nonzero;stroke:none"
                 id="path46"
                 inkscape:connector-curvature="0" /><path
                 d="m 204.1251,-232.44682 c 34.96583,0 69.93143,0 104.89726,0 0,-26.45703 0,-52.91407 0,-79.37111 -34.96583,0 -69.93143,0 -104.89726,0 0,26.45704 0,52.91408 0,79.37111 z"
                 style="fill:#2d458b;fill-opacity:1;fill-rule:nonzero;stroke:none"
                 id="path48"
                 inkscape:connector-curvature="0" /><path
                 d="m 309.02236,-153.07522 c 34.96559,0 69.93143,0 104.89702,0 0,-26.45753 0,-52.91456 0,-79.3716 -34.96559,0 -69.93143,0 -104.89702,0 0,26.45704 0,52.91407 0,79.3716 z"
                 style="fill:#2d458b;fill-opacity:1;fill-rule:nonzero;stroke:none"
                 id="path50"
                 inkscape:connector-curvature="0" /><path
                 d="m 309.02236,-232.44682 c 34.96559,0 69.93143,0 104.89702,0 0,-26.45703 0,-52.91407 0,-79.37111 -34.96559,0 -69.93143,0 -104.89702,0 0,26.45704 0,52.91408 0,79.37111 z"
                 style="fill:#2f4d98;fill-opacity:1;fill-rule:nonzero;stroke:none"
                 id="path52"
                 inkscape:connector-curvature="0" /><path
                 d="m 413.91938,5.66748 c 36.13674,0 72.27347,0 108.40997,0 0,-26.457524 0,-52.91456 0,-79.371595 -36.1365,0 -72.27323,0 -108.40997,0 0,26.457035 0,52.914071 0,79.371595 z"
                 style="fill:#263065;fill-opacity:1;fill-rule:nonzero;stroke:none"
                 id="path54"
                 inkscape:connector-curvature="0" /><path
                 d="m 413.91938,-73.704115 c 36.13674,0 72.27347,0 108.40997,0 0,-26.457035 0,-52.914075 0,-79.371105 -36.1365,0 -72.27323,0 -108.40997,0 0,26.45703 0,52.91407 0,79.371105 z"
                 style="fill:#2b3d7c;fill-opacity:1;fill-rule:nonzero;stroke:none"
                 id="path56"
                 inkscape:connector-curvature="0" /><path
                 d="m 522.32935,5.66748 c 36.13673,0 72.27347,0 108.4102,0 0,-26.457524 0,-52.91456 0,-79.371595 -36.13673,0 -72.27347,0 -108.4102,0 0,26.457035 0,52.914071 0,79.371595 z"
                 style="fill:#263065;fill-opacity:1;fill-rule:nonzero;stroke:none"
                 id="path58"
                 inkscape:connector-curvature="0" /><path
                 d="m 522.32935,-73.704115 c 36.13673,0 72.27347,0 108.4102,0 0,-26.457035 0,-52.914075 0,-79.371105 -36.13673,0 -72.27347,0 -108.4102,0 0,26.45703 0,52.91407 0,79.371105 z"
                 style="fill:#2b3b79;fill-opacity:1;fill-rule:nonzero;stroke:none"
                 id="path60"
                 inkscape:connector-curvature="0" /><path
                 d="m 413.91938,-153.07522 c 36.13674,0 72.27347,0 108.40997,0 0,-26.45753 0,-52.91456 0,-79.3716 -36.1365,0 -72.27323,0 -108.40997,0 0,26.45704 0,52.91407 0,79.3716 z"
                 style="fill:#2e4890;fill-opacity:1;fill-rule:nonzero;stroke:none"
                 id="path62"
                 inkscape:connector-curvature="0" /><path
                 d="m 413.91938,-232.44682 c 36.13674,0 72.27347,0 108.40997,0 0,-26.45703 0,-52.91407 0,-79.37111 -36.1365,0 -72.27323,0 -108.40997,0 0,26.45704 0,52.91408 0,79.37111 z"
                 style="fill:#2e509c;fill-opacity:1;fill-rule:nonzero;stroke:none"
                 id="path64"
                 inkscape:connector-curvature="0" /><path
                 d="m 522.32935,-153.07522 c 36.13673,0 72.27347,0 108.4102,0 0,-26.45753 0,-52.91456 0,-79.3716 -36.13673,0 -72.27347,0 -108.4102,0 0,26.45704 0,52.91407 0,79.3716 z"
                 style="fill:#2d458b;fill-opacity:1;fill-rule:nonzero;stroke:none"
                 id="path66"
                 inkscape:connector-curvature="0" /><path
                 d="m 522.32935,-232.44682 c 36.13673,0 72.27347,0 108.4102,0 0,-26.45703 0,-52.91407 0,-79.37111 -36.13673,0 -72.27347,0 -108.4102,0 0,26.45704 0,52.91408 0,79.37111 z"
                 style="fill:#2f4d98;fill-opacity:1;fill-rule:nonzero;stroke:none"
                 id="path68"
                 inkscape:connector-curvature="0" /><path
                 d="m 630.73955,5.66748 c 0,-52.91456 0,-105.82863 0,-158.7427 36.13674,0 72.27323,0 108.40996,0 0,52.91407 0,105.82814 0,158.7427 -36.13673,0 -72.27322,0 -108.40996,0 z"
                 style="fill:#263065;fill-opacity:1;fill-rule:nonzero;stroke:none"
                 id="path70"
                 inkscape:connector-curvature="0" /><path
                 d="m 739.14951,5.66748 c 0,-52.91456 0,-105.82863 0,-158.7427 36.13674,0 72.27348,0 108.40997,0 0,52.91407 0,105.82814 0,158.7427 -36.13649,0 -72.27323,0 -108.40997,0 z"
                 style="fill:#263065;fill-opacity:1;fill-rule:nonzero;stroke:none"
                 id="path72"
                 inkscape:connector-curvature="0" /><path
                 d="m 630.73955,-153.07522 c 36.13674,0 72.27323,0 108.40996,0 0,-26.45753 0,-52.91456 0,-79.3716 -36.13673,0 -72.27322,0 -108.40996,0 0,26.45704 0,52.91407 0,79.3716 z"
                 style="fill:#2b3f80;fill-opacity:1;fill-rule:nonzero;stroke:none"
                 id="path74"
                 inkscape:connector-curvature="0" /><path
                 d="m 630.73955,-232.44682 c 36.13674,0 72.27323,0 108.40996,0 0,-26.45703 0,-52.91407 0,-79.37111 -36.13673,0 -72.27322,0 -108.40996,0 0,26.45704 0,52.91408 0,79.37111 z"
                 style="fill:#2d458b;fill-opacity:1;fill-rule:nonzero;stroke:none"
                 id="path76"
                 inkscape:connector-curvature="0" /><path
                 d="m 739.14951,-153.07522 c 36.13674,0 72.27348,0 108.40997,0 0,-26.45753 0,-52.91456 0,-79.3716 -36.13649,0 -72.27323,0 -108.40997,0 0,26.45704 0,52.91407 0,79.3716 z"
                 style="fill:#293773;fill-opacity:1;fill-rule:nonzero;stroke:none"
                 id="path78"
                 inkscape:connector-curvature="0" /><path
                 d="m 739.14951,-232.44682 c 36.13674,0 72.27348,0 108.40997,0 0,-26.45703 0,-52.91407 0,-79.37111 -36.13649,0 -72.27323,0 -108.40997,0 0,26.45704 0,52.91408 0,79.37111 z"
                 style="fill:#2b3b79;fill-opacity:1;fill-rule:nonzero;stroke:none"
                 id="path80"
                 inkscape:connector-curvature="0" /><path
                 d="m -5.66919,-311.81793 c 34.965836,0 69.931429,0 104.897265,0 0,-24.09424 0,-48.18848 0,-72.28224 -34.965836,0 -69.931429,0 -104.897265,0 0,24.09376 0,48.188 0,72.28224 z"
                 style="fill:#263065;fill-opacity:1;fill-rule:nonzero;stroke:none"
                 id="path82"
                 inkscape:connector-curvature="0" /><path
                 d="m -5.66919,-384.10017 c 34.965836,0 69.931429,0 104.897265,0 0,-24.09424 0,-48.18848 0,-72.28223 -34.965836,0 -69.931429,0 -104.897265,0 0,24.09375 0,48.18799 0,72.28223 z"
                 style="fill:#263065;fill-opacity:1;fill-rule:nonzero;stroke:none"
                 id="path84"
                 inkscape:connector-curvature="0" /><path
                 d="m 99.228075,-311.81793 c 34.965595,0 69.931425,0 104.897025,0 0,-24.09424 0,-48.18848 0,-72.28224 -34.9656,0 -69.93143,0 -104.897025,0 0,24.09376 0,48.188 0,72.28224 z"
                 style="fill:#2b3d7c;fill-opacity:1;fill-rule:nonzero;stroke:none"
                 id="path86"
                 inkscape:connector-curvature="0" /><path
                 d="m 99.228075,-384.10017 c 34.965595,0 69.931425,0 104.897025,0 0,-24.09424 0,-48.18848 0,-72.28223 -34.9656,0 -69.93143,0 -104.897025,0 0,24.09375 0,48.18799 0,72.28223 z"
                 style="fill:#2b3b79;fill-opacity:1;fill-rule:nonzero;stroke:none"
                 id="path88"
                 inkscape:connector-curvature="0" /><path
                 d="m -5.66919,-456.3824 c 0,-48.18849 0,-96.37649 0,-144.56448 34.965836,0 69.931429,0 104.897265,0 0,48.18799 0,96.37599 0,144.56448 -34.965836,0 -69.931429,0 -104.897265,0 z"
                 style="fill:#263065;fill-opacity:1;fill-rule:nonzero;stroke:none"
                 id="path90"
                 inkscape:connector-curvature="0" /><path
                 d="m 99.228075,-456.3824 c 0,-48.18849 0,-96.37649 0,-144.56448 34.965595,0 69.931425,0 104.897025,0 0,48.18799 0,96.37599 0,144.56448 -34.9656,0 -69.93143,0 -104.897025,0 z"
                 style="fill:#293773;fill-opacity:1;fill-rule:nonzero;stroke:none"
                 id="path92"
                 inkscape:connector-curvature="0" /><path
                 d="m 204.1251,-311.81793 c 34.96583,0 69.93143,0 104.89726,0 0,-24.09424 0,-48.18848 0,-72.28224 -34.96583,0 -69.93143,0 -104.89726,0 0,24.09376 0,48.188 0,72.28224 z"
                 style="fill:#2e4890;fill-opacity:1;fill-rule:nonzero;stroke:none"
                 id="path94"
                 inkscape:connector-curvature="0" /><path
                 d="m 204.1251,-384.10017 c 34.96583,0 69.93143,0 104.89726,0 0,-24.09424 0,-48.18848 0,-72.28223 -34.96583,0 -69.93143,0 -104.89726,0 0,24.09375 0,48.18799 0,72.28223 z"
                 style="fill:#2d458b;fill-opacity:1;fill-rule:nonzero;stroke:none"
                 id="path96"
                 inkscape:connector-curvature="0" /><path
                 d="m 309.02236,-311.81793 c 34.96559,0 69.93143,0 104.89702,0 0,-24.09424 0,-48.18848 0,-72.28224 -34.96559,0 -69.93143,0 -104.89702,0 0,24.09376 0,48.188 0,72.28224 z"
                 style="fill:#2e509c;fill-opacity:1;fill-rule:nonzero;stroke:none"
                 id="path98"
                 inkscape:connector-curvature="0" /><path
                 d="m 309.02236,-384.10017 c 34.96559,0 69.93143,0 104.89702,0 0,-24.09424 0,-48.18848 0,-72.28223 -34.96559,0 -69.93143,0 -104.89702,0 0,24.09375 0,48.18799 0,72.28223 z"
                 style="fill:#2f4d98;fill-opacity:1;fill-rule:nonzero;stroke:none"
                 id="path100"
                 inkscape:connector-curvature="0" /><path
                 d="m 204.1251,-456.3824 c 34.96583,0 69.93143,0 104.89726,0 0,-24.09425 0,-48.18849 0,-72.28224 -34.96583,0 -69.93143,0 -104.89726,0 0,24.09375 0,48.18799 0,72.28224 z"
                 style="fill:#2b3f80;fill-opacity:1;fill-rule:nonzero;stroke:none"
                 id="path102"
                 inkscape:connector-curvature="0" /><path
                 d="m 204.1251,-528.66464 c 34.96583,0 69.93143,0 104.89726,0 0,-24.09425 0,-48.18849 0,-72.28224 -34.96583,0 -69.93143,0 -104.89726,0 0,24.09375 0,48.18799 0,72.28224 z"
                 style="fill:#293773;fill-opacity:1;fill-rule:nonzero;stroke:none"
                 id="path104"
                 inkscape:connector-curvature="0" /><path
                 d="m 309.02236,-456.3824 c 34.96559,0 69.93143,0 104.89702,0 0,-24.09425 0,-48.18849 0,-72.28224 -34.96559,0 -69.93143,0 -104.89702,0 0,24.09375 0,48.18799 0,72.28224 z"
                 style="fill:#2d458b;fill-opacity:1;fill-rule:nonzero;stroke:none"
                 id="path106"
                 inkscape:connector-curvature="0" /><path
                 d="m 309.02236,-528.66464 c 34.96559,0 69.93143,0 104.89702,0 0,-24.09425 0,-48.18849 0,-72.28224 -34.96559,0 -69.93143,0 -104.89702,0 0,24.09375 0,48.18799 0,72.28224 z"
                 style="fill:#2b3b79;fill-opacity:1;fill-rule:nonzero;stroke:none"
                 id="path108"
                 inkscape:connector-curvature="0" /><path
                 d="m 413.91938,-311.81793 c 36.13674,0 72.27347,0 108.40997,0 0,-24.09424 0,-48.18848 0,-72.28224 -36.1365,0 -72.27323,0 -108.40997,0 0,24.09376 0,48.188 0,72.28224 z"
                 style="fill:#2f52a0;fill-opacity:1;fill-rule:nonzero;stroke:none"
                 id="path110"
                 inkscape:connector-curvature="0" /><path
                 d="m 413.91938,-384.10017 c 36.13674,0 72.27347,0 108.40997,0 0,-24.09424 0,-48.18848 0,-72.28223 -36.1365,0 -72.27323,0 -108.40997,0 0,24.09375 0,48.18799 0,72.28223 z"
                 style="fill:#2e509c;fill-opacity:1;fill-rule:nonzero;stroke:none"
                 id="path112"
                 inkscape:connector-curvature="0" /><path
                 d="m 522.32935,-311.81793 c 36.13673,0 72.27347,0 108.4102,0 0,-24.09424 0,-48.18848 0,-72.28224 -36.13673,0 -72.27347,0 -108.4102,0 0,24.09376 0,48.188 0,72.28224 z"
                 style="fill:#2e509c;fill-opacity:1;fill-rule:nonzero;stroke:none"
                 id="path114"
                 inkscape:connector-curvature="0" /><path
                 d="m 522.32935,-384.10017 c 36.13673,0 72.27347,0 108.4102,0 0,-24.09424 0,-48.18848 0,-72.28223 -36.13673,0 -72.27347,0 -108.4102,0 0,24.09375 0,48.18799 0,72.28223 z"
                 style="fill:#2f4d98;fill-opacity:1;fill-rule:nonzero;stroke:none"
                 id="path116"
                 inkscape:connector-curvature="0" /><path
                 d="m 413.91938,-456.3824 c 36.13674,0 72.27347,0 108.40997,0 0,-24.09425 0,-48.18849 0,-72.28224 -36.1365,0 -72.27323,0 -108.40997,0 0,24.09375 0,48.18799 0,72.28224 z"
                 style="fill:#2e4890;fill-opacity:1;fill-rule:nonzero;stroke:none"
                 id="path118"
                 inkscape:connector-curvature="0" /><path
                 d="m 413.91938,-528.66464 c 36.13674,0 72.27347,0 108.40997,0 0,-24.09425 0,-48.18849 0,-72.28224 -36.1365,0 -72.27323,0 -108.40997,0 0,24.09375 0,48.18799 0,72.28224 z"
                 style="fill:#2b3d7c;fill-opacity:1;fill-rule:nonzero;stroke:none"
                 id="path120"
                 inkscape:connector-curvature="0" /><path
                 d="m 522.32935,-456.3824 c 36.13673,0 72.27347,0 108.4102,0 0,-24.09425 0,-48.18849 0,-72.28224 -36.13673,0 -72.27347,0 -108.4102,0 0,24.09375 0,48.18799 0,72.28224 z"
                 style="fill:#2d458b;fill-opacity:1;fill-rule:nonzero;stroke:none"
                 id="path122"
                 inkscape:connector-curvature="0" /><path
                 d="m 522.32935,-528.66464 c 36.13673,0 72.27347,0 108.4102,0 0,-24.09425 0,-48.18849 0,-72.28224 -36.13673,0 -72.27347,0 -108.4102,0 0,24.09375 0,48.18799 0,72.28224 z"
                 style="fill:#2b3b79;fill-opacity:1;fill-rule:nonzero;stroke:none"
                 id="path124"
                 inkscape:connector-curvature="0" /><path
                 d="m 630.73955,-311.81793 c 36.13674,0 72.27323,0 108.40996,0 0,-24.09424 0,-48.18848 0,-72.28224 -36.13673,0 -72.27322,0 -108.40996,0 0,24.09376 0,48.188 0,72.28224 z"
                 style="fill:#2e4890;fill-opacity:1;fill-rule:nonzero;stroke:none"
                 id="path126"
                 inkscape:connector-curvature="0" /><path
                 d="m 630.73955,-384.10017 c 36.13674,0 72.27323,0 108.40996,0 0,-24.09424 0,-48.18848 0,-72.28223 -36.13673,0 -72.27322,0 -108.40996,0 0,24.09375 0,48.18799 0,72.28223 z"
                 style="fill:#2d458b;fill-opacity:1;fill-rule:nonzero;stroke:none"
                 id="path128"
                 inkscape:connector-curvature="0" /><path
                 d="m 739.14951,-311.81793 c 36.13674,0 72.27348,0 108.40997,0 0,-24.09424 0,-48.18848 0,-72.28224 -36.13649,0 -72.27323,0 -108.40997,0 0,24.09376 0,48.188 0,72.28224 z"
                 style="fill:#2b3d7c;fill-opacity:1;fill-rule:nonzero;stroke:none"
                 id="path130"
                 inkscape:connector-curvature="0" /><path
                 d="m 739.14951,-384.10017 c 36.13674,0 72.27348,0 108.40997,0 0,-24.09424 0,-48.18848 0,-72.28223 -36.13649,0 -72.27323,0 -108.40997,0 0,24.09375 0,48.18799 0,72.28223 z"
                 style="fill:#2b3b79;fill-opacity:1;fill-rule:nonzero;stroke:none"
                 id="path132"
                 inkscape:connector-curvature="0" /><path
                 d="m 630.73955,-456.3824 c 0,-48.18849 0,-96.37649 0,-144.56448 36.13674,0 72.27323,0 108.40996,0 0,48.18799 0,96.37599 0,144.56448 -36.13673,0 -72.27322,0 -108.40996,0 z"
                 style="fill:#2b3f80;fill-opacity:1;fill-rule:nonzero;stroke:none"
                 id="path134"
                 inkscape:connector-curvature="0" /><path
                 d="m 739.14951,-456.3824 c 0,-48.18849 0,-96.37649 0,-144.56448 36.13674,0 72.27348,0 108.40997,0 0,48.18799 0,96.37599 0,144.56448 -36.13649,0 -72.27323,0 -108.40997,0 z"
                 style="fill:#293773;fill-opacity:1;fill-rule:nonzero;stroke:none"
                 id="path136"
                 inkscape:connector-curvature="0" /></g></g></g></g></g></g></svg>