<?xml version="1.0" encoding="UTF-8" standalone="no"?>
<svg
   xmlns:dc="http://purl.org/dc/elements/1.1/"
   xmlns:cc="http://creativecommons.org/ns#"
   xmlns:rdf="http://www.w3.org/1999/02/22-rdf-syntax-ns#"
   xmlns:svg="http://www.w3.org/2000/svg"
   xmlns="http://www.w3.org/2000/svg"
   xmlns:sodipodi="http://sodipodi.sourceforge.net/DTD/sodipodi-0.dtd"
   xmlns:inkscape="http://www.inkscape.org/namespaces/inkscape"
   enable-background="new 0 0 128 128"
   id="Social_Icons"
   version="1.1"
   viewBox="0 0 128 128"
   xml:space="preserve"
   inkscape:version="0.91 r13725"
   sodipodi:docname="face.svg"><metadata
     id="metadata12"><rdf:RDF><cc:Work
         rdf:about=""><dc:format>image/svg+xml</dc:format><dc:type
           rdf:resource="http://purl.org/dc/dcmitype/StillImage" /><dc:title></dc:title></cc:Work></rdf:RDF></metadata><defs
     id="defs10" /><sodipodi:namedview
     pagecolor="#ffffff"
     bordercolor="#666666"
     borderopacity="1"
     objecttolerance="10"
     gridtolerance="10"
     guidetolerance="10"
     inkscape:pageopacity="0"
     inkscape:pageshadow="2"
     inkscape:window-width="3089"
     inkscape:window-height="1537"
     id="namedview8"
     showgrid="false"
     inkscape:showpageshadow="false"
     showborder="false"
     inkscape:zoom="7.375"
     inkscape:cx="91.853391"
     inkscape:cy="55.739135"
     inkscape:window-x="268"
     inkscape:window-y="355"
     inkscape:window-maximized="0"
     inkscape:current-layer="Facebook_1_" /><g
     id="_x31__stroke"><g
       id="Facebook_1_"><rect
         fill="none"
         height="128"
         width="128"
         id="rect5" /><path
         clip-rule="evenodd"
         d="M68.369,128H7.065C3.162,128,0,124.836,0,120.935    V7.065C0,3.162,3.162,0,7.065,0h113.871C124.837,0,128,3.162,128,7.065v113.87c0,3.902-3.163,7.065-7.064,7.065H88.318V78.431    h16.638l2.491-19.318H88.318V46.78c0-5.593,1.553-9.404,9.573-9.404l10.229-0.004V20.094c-1.769-0.235-7.841-0.761-14.906-0.761    c-14.749,0-24.846,9.003-24.846,25.535v14.246H51.688v19.318h16.681V128z"
         fill="#4460A0"
         fill-rule="evenodd"
         id="Facebook"
         style="fill:#c3c4c5;fill-opacity:1" /></g></g></svg>