<?xml version="1.0" encoding="UTF-8" standalone="no"?>
<svg
   xmlns:dc="http://purl.org/dc/elements/1.1/"
   xmlns:cc="http://creativecommons.org/ns#"
   xmlns:rdf="http://www.w3.org/1999/02/22-rdf-syntax-ns#"
   xmlns:svg="http://www.w3.org/2000/svg"
   xmlns="http://www.w3.org/2000/svg"
   xmlns:sodipodi="http://sodipodi.sourceforge.net/DTD/sodipodi-0.dtd"
   xmlns:inkscape="http://www.inkscape.org/namespaces/inkscape"
   enable-background="new 0 0 128 128"
   id="Social_Icons"
   version="1.1"
   viewBox="0 0 128 128"
   xml:space="preserve"
   inkscape:version="0.91 r13725"
   sodipodi:docname="faceblue.svg"
   width="128"
   height="128"><metadata
     id="metadata12"><rdf:RDF><cc:Work
         rdf:about=""><dc:format>image/svg+xml</dc:format><dc:type
           rdf:resource="http://purl.org/dc/dcmitype/StillImage" /><dc:title /></cc:Work></rdf:RDF></metadata><defs
     id="defs10" /><sodipodi:namedview
     pagecolor="#ffffff"
     bordercolor="#666666"
     borderopacity="1"
     objecttolerance="10"
     gridtolerance="10"
     guidetolerance="10"
     inkscape:pageopacity="0"
     inkscape:pageshadow="2"
     inkscape:window-width="3089"
     inkscape:window-height="1537"
     id="namedview8"
     showgrid="false"
     inkscape:showpageshadow="false"
     showborder="false"
     inkscape:zoom="7.375"
     inkscape:cx="38.700848"
     inkscape:cy="55.739135"
     inkscape:window-x="268"
     inkscape:window-y="355"
     inkscape:window-maximized="0"
     inkscape:current-layer="Facebook_1_"
     fit-margin-top="0"
     fit-margin-left="0"
     fit-margin-right="0"
     fit-margin-bottom="0" /><g
     id="_x31__stroke"><g
       id="Facebook_1_"><rect
         height="128"
         width="128"
         id="rect5"
         x="0"
         y="0"
         style="fill:none" /><path
         d="M 68.369,128 7.065,128 C 3.162,128 0,124.836 0,120.935 L 0,7.065 C 0,3.162 3.162,0 7.065,0 L 120.936,0 C 124.837,0 128,3.162 128,7.065 l 0,113.87 c 0,3.902 -3.163,7.065 -7.064,7.065 l -32.618,0 0,-49.569 16.638,0 2.491,-19.318 -19.129,0 0,-12.333 c 0,-5.593 1.553,-9.404 9.573,-9.404 l 10.229,-0.004 0,-17.278 c -1.769,-0.235 -7.841,-0.761 -14.906,-0.761 -14.749,0 -24.846,9.003 -24.846,25.535 l 0,14.246 -16.68,0 0,19.318 16.681,0 0,49.568 z"
         id="Facebook"
         style="clip-rule:evenodd;fill:#263065;fill-opacity:1;fill-rule:evenodd"
         inkscape:connector-curvature="0" /></g></g></svg>