<?xml version="1.0" encoding="UTF-8" standalone="no"?>
<!-- Created with Inkscape (http://www.inkscape.org/) -->

<svg
   xmlns:dc="http://purl.org/dc/elements/1.1/"
   xmlns:cc="http://creativecommons.org/ns#"
   xmlns:rdf="http://www.w3.org/1999/02/22-rdf-syntax-ns#"
   xmlns:svg="http://www.w3.org/2000/svg"
   xmlns="http://www.w3.org/2000/svg"
   xmlns:sodipodi="http://sodipodi.sourceforge.net/DTD/sodipodi-0.dtd"
   xmlns:inkscape="http://www.inkscape.org/namespaces/inkscape"
   id="svg2"
   version="1.1"
   inkscape:version="0.91 r13725"
   xml:space="preserve"
   width="1490.328"
   height="1477.8102"
   viewBox="0 0 1490.328 1477.8102"
   sodipodi:docname="greybackgr.svg"><metadata
     id="metadata8"><rdf:RDF><cc:Work
         rdf:about=""><dc:format>image/svg+xml</dc:format><dc:type
           rdf:resource="http://purl.org/dc/dcmitype/StillImage" /><dc:title></dc:title></cc:Work></rdf:RDF></metadata><defs
     id="defs6"><clipPath
       clipPathUnits="userSpaceOnUse"
       id="clipPath16"><path
         d="m 0,0 566.929,0 0,694.488 L 0,694.488 0,0 Z"
         id="path18"
         inkscape:connector-curvature="0" /></clipPath><linearGradient
       x1="0"
       y1="0"
       x2="1"
       y2="0"
       gradientUnits="userSpaceOnUse"
       gradientTransform="matrix(566.92914,0,0,-566.92914,1.84e-5,347.24387)"
       spreadMethod="pad"
       id="linearGradient24"><stop
         style="stop-opacity:1;stop-color:#a6a8a9"
         offset="0"
         id="stop26" /><stop
         style="stop-opacity:1;stop-color:#ffffff"
         offset="0.5"
         id="stop28" /><stop
         style="stop-opacity:1;stop-color:#a6a8a9"
         offset="1"
         id="stop30" /></linearGradient><clipPath
       clipPathUnits="userSpaceOnUse"
       id="clipPath38"><path
         d="m 464.477,150.421 0,-22.288 -31.231,0 0,22.288 -13.391,0 0,-58.01 13.391,0 0,22.332 31.231,0 0,-22.332 13.391,0 0,58.01 -13.391,0 z m -108.511,-58.01 58.012,0 0,58.01 -58.012,0 0,-58.01 z m 13.39,44.62 31.232,0 0,-31.23 -31.232,0 0,31.23 z m -47.137,13.39 -13.392,0 -27.829,0 0,-35.678 27.829,0 0,-22.332 13.392,0 0,22.332 27.829,0 0,35.678 -27.829,0 z m 0,-13.39 14.439,0 0,-8.898 -14.439,0 0,8.898 z m -27.831,0 14.439,0 0,-8.898 -14.439,0 0,8.898 z m -32.868,13.39 -31.062,-37.275 0,37.275 -13.39,0 0,-58.01 13.558,0 31.063,37.318 0,-37.318 13.391,0 0,58.01 -13.56,0 z m -108.341,0 0,-58.01 13.391,0 0,22.332 44.621,0 0,35.678 -58.012,0 z m 13.391,-13.39 31.231,0 0,-8.898 -31.231,0 0,8.898 z m -77.277,13.39 0,-58.01 13.389,0 0,44.62 44.622,0 0,13.39 -58.011,0 z m 363.7,-65.673 0,-24.446 5.642,0 0,9.41 13.161,0 0,-9.41 5.642,0 0,24.446 -24.445,0 z m 5.642,-5.644 13.161,0 0,-3.749 -13.161,0 0,3.749 z m -13.58,5.644 0,-9.394 -13.159,0 0,9.394 -5.642,0 0,-24.446 5.642,0 0,9.41 13.159,0 0,-9.41 5.643,0 0,24.446 -5.643,0 z m -45.541,-24.446 24.444,0 0,24.446 -24.444,0 0,-24.446 z m 5.642,18.802 13.16,0 0,-13.16 -13.16,0 0,13.16 z m -32.384,5.644 0,-24.446 5.642,0 0,9.41 18.804,0 0,15.036 -24.446,0 z m 5.642,-5.644 13.16,0 0,-3.749 -13.16,0 0,3.749 z m -32.382,-18.802 24.446,0 0,24.446 -24.446,0 0,-24.446 z m 5.642,18.802 13.16,0 0,-13.16 -13.16,0 0,13.16 z m -14.908,5.644 -5.34,-7.413 -5.36,7.413 -6.95,0 8.824,-12.224 -8.824,-12.222 6.95,0 5.36,7.411 5.34,-7.411 6.971,0 -8.826,12.222 8.826,12.224 -6.971,0 z m -44.392,-24.446 24.446,0 0,24.446 -24.446,0 0,-24.446 z m 5.642,18.802 13.16,0 0,-13.16 -13.16,0 0,13.16 z m -47.822,5.644 0,-24.446 5.642,0 0,9.41 13.16,0 0,-9.41 5.643,0 0,24.446 -24.445,0 z m 5.642,-5.644 13.16,0 0,-3.749 -13.16,0 0,3.749 z m -13.58,5.644 0,-6.582 c 0,-0.778 -0.277,-1.445 -0.831,-1.999 l 0,0 c -0.544,-0.542 -1.203,-0.813 -1.981,-0.813 l 0,0 -10.348,0 0,9.394 -5.642,0 0,-24.446 5.642,0 0,9.41 10.348,0 c 0.765,0 1.427,-0.278 1.981,-0.832 l 0,0 c 0.554,-0.554 0.831,-1.221 0.831,-1.998 l 0,0 0,-6.58 5.644,0 0,6.58 c 0,2.146 -0.72,4.026 -2.16,5.642 l 0,0 c 1.44,1.614 2.16,3.497 2.16,5.642 l 0,0 0,6.582 -5.644,0 z m -45.543,0 0,-24.446 24.445,0 0,5.642 -18.803,0 0,3.768 18.803,0 0,5.642 -18.803,0 0,3.75 18.803,0 0,5.644 -24.445,0 z m -7.939,0 -13.159,0 -5.643,0 0,-24.446 5.643,0 0,18.802 13.159,0 0,-18.802 5.644,0 0,24.446 -5.644,0 z m -26.74,0 -19.474,0 0,-5.644 19.474,0 0,-0.938 c 0,-0.778 -0.277,-1.445 -0.831,-1.999 l 0,0 c -0.541,-0.542 -1.202,-0.813 -1.981,-0.813 l 0,0 -10.348,0 0,-5.642 10.348,0 c 0.767,0 1.427,-0.278 1.981,-0.832 l 0,0 c 0.554,-0.554 0.831,-1.221 0.831,-1.998 l 0,0 0,-0.938 -19.474,0 0,-5.642 19.474,0 5.643,0 0,6.58 c 0,2.146 -0.719,4.026 -2.157,5.642 l 0,0 c 1.438,1.614 2.157,3.497 2.157,5.642 l 0,0 0,6.582 -5.643,0 z m -46.232,0 0,-24.446 24.445,0 0,5.642 -18.803,0 0,3.768 18.803,0 0,5.642 -18.803,0 0,3.75 18.803,0 0,5.644 -24.445,0 z m -21.099,0 -5.642,0 0,-24.446 5.642,0 18.803,0 0,15.035 -18.803,0 0,3.767 18.803,0 0,5.644 -18.803,0 z m 0,-15.054 13.161,0 0,-3.75 -13.161,0 0,3.75 z m 184.504,-0.515 7.743,0 0,7.745 -7.743,0 0,-7.745 z"
         id="path40"
         inkscape:connector-curvature="0" /></clipPath><linearGradient
       x1="0"
       y1="0"
       x2="1"
       y2="0"
       gradientUnits="userSpaceOnUse"
       gradientTransform="matrix(388.80585,0,0,-388.80585,89.061501,105.3617)"
       spreadMethod="pad"
       id="linearGradient46"><stop
         style="stop-opacity:1;stop-color:#263065"
         offset="0"
         id="stop48" /><stop
         style="stop-opacity:1;stop-color:#2f52a0"
         offset="0.5"
         id="stop50" /><stop
         style="stop-opacity:1;stop-color:#2f52a0"
         offset="0.62409689"
         id="stop52" /><stop
         style="stop-opacity:1;stop-color:#263065"
         offset="1"
         id="stop54" /></linearGradient><clipPath
       clipPathUnits="userSpaceOnUse"
       id="clipPath62"><path
         d="m 365.332,619.64 c 0,0 -40.941,-62.838 -41.841,-64.037 l 0,0 c -0.9,-1.199 -2.549,-0.9 -6.448,-3.3 l 0,0 c -3.9,-2.399 -7.648,-8.098 -7.648,-8.098 l 0,0 -21.746,-31.193 c 0,0 3.299,-21.896 5.399,-28.795 l 0,0 c 2.099,-6.898 11.848,-15.746 13.947,-18.445 l 0,0 c 2.1,-2.7 0.75,-5.1 0.15,-13.198 l 0,0 c -0.601,-8.098 4.649,-8.998 4.649,-17.996 l 0,0 c 0,-8.999 -8.998,-15.297 -8.998,-15.297 l 0,0 c 0,0 2.999,-6.449 2.249,-13.797 l 0,0 c -0.75,-7.348 -10.348,-11.848 -10.348,-11.848 l 0,0 c 0,0 1.2,-5.699 -3.749,-12.297 l 0,0 c -4.949,-6.599 -13.347,-5.699 -13.347,-5.699 l 0,0 c 0,0 -0.749,-3.899 -5.999,-6.599 l 0,0 c -5.249,-2.699 -13.197,-1.199 -13.197,-1.199 l 0,0 c 0,0 -1.35,-3.15 -10.348,-5.849 l 0,0 c -8.998,-2.7 -14.997,2.25 -14.997,2.25 l 0,0 c 0,0 13.347,0.299 16.797,2.699 l 0,0 c 3.449,2.399 4.199,4.499 6.149,6.448 l 0,0 c 0.949,0.95 2.469,0.546 4.245,0.144 l 0,0 c 1.87,-0.424 4.025,-0.848 6.102,0.306 l 0,0 c 4.049,2.25 5.1,7.799 6.748,9.748 l 0,0 c 0.839,0.991 3.267,0.819 5.749,0.647 l 0,0 c 2.397,-0.165 4.843,-0.332 5.95,0.553 l 0,0 c 2.249,1.8 1.199,8.098 1.499,12.597 l 0,0 c 0.301,4.499 9.448,7.799 9.448,13.348 l 0,0 c 0,5.548 -3.599,4.799 -3.599,11.547 l 0,0 c 0,6.749 9.298,8.249 9.598,14.998 l 0,0 c 0.299,6.748 -3.599,9.147 -4.199,12.447 l 0,0 c -0.6,3.299 -0.45,8.848 -1.05,12.897 l 0,0 c -0.6,4.049 -7.948,13.947 -9.748,19.646 l 0,0 c -1.8,5.698 -1.499,27.744 -1.499,27.744 l 0,0 c 0,0 -3,1.8 -19.197,-20.396 l 0,0 c -16.196,-22.195 -9.66,-44.966 -6.598,-62.086 l 0,0 c 3.677,-20.562 -32.596,-27.414 -37.04,-30.985 l 0,0 c -4.198,-3.374 -12.064,-9.725 -12.665,-24.549 l 0,0 c -0.599,-14.823 14.612,-22.301 14.612,-22.301 l 0,0 0.45,3.749 c 0,0 4.649,-3.299 9.298,-4.798 l 0,0 c 4.649,-1.5 11.397,1.649 11.397,1.649 l 0,0 c 0,0 -2.321,-9.538 -11.169,-9.088 l 0,0 c -8.848,0.45 -6.377,2.939 -6.377,2.939 l 0,0 c 0,0 -0.986,-0.387 -7.348,0.9 l 0,0 c -6.596,1.334 -6.971,5.084 -6.971,5.084 l 0,0 c -0.824,-22.346 7.121,-31.328 13.569,-33.578 l 0,0 c 6.449,-2.25 15.226,1.41 15.226,1.41 l 0,0 c 0,0 3.52,-8.458 16.867,-8.609 l 0,0 c 13.348,-0.149 18.297,9.899 18.297,9.899 l 0,0 c 0,0 9.598,-4.799 20.845,0 l 0,0 c 11.248,4.798 10.499,15.297 10.499,15.297 l 0,0 c 0,0 7.498,-4.049 18.596,4.648 l 0,0 c 11.097,8.699 5.849,22.346 5.849,22.346 l 0,0 c 0,0 8.248,-1.35 16.496,10.371 l 0,0 c 8.248,11.722 0.45,22.623 0.45,22.623 l 0,0 c 0,0 4.799,4.348 7.949,12.596 l 0,0 c 3.149,8.249 -0.601,14.248 -0.601,14.248 l 0,0 c 0,0 9.898,11.098 18.447,24.744 l 0,0 c 8.548,13.648 9.748,19.647 11.247,29.694 l 0,0 c 1.5,10.049 -4.049,16.947 -4.049,16.947 l 0,0 c 0,0 3.299,7.948 5.999,18.896 l 0,0 c 2.699,10.948 -1.5,20.246 -1.5,20.246 l 0,0 c 0,0 3,7.799 6.438,20.995 l 0,0 c 3.437,13.198 -3.589,17.997 -3.589,17.997 l 0,0 c 4.949,22.495 4.05,25.795 1.65,30.443 l 0,0 c -2.399,4.649 -7.198,1.35 -7.198,1.35 l 0,0 c 0,0 2.55,9.898 2.55,16.347 l 0,0 c 0,6.448 -1.951,11.247 -7.2,14.697 l 0,0 c -0.469,0.308 -0.976,0.449 -1.51,0.449 l 0,0 c -5.431,0 -13.637,-14.546 -13.637,-14.546 m -141.723,-248.182 0.004,-0.002 0,-0.004 c 0,0 -0.004,0.004 -0.004,0.006 m -12.073,-2.806 c 0,0 0,0 0,0 m -0.085,-0.218 c 0.023,0.066 0.05,0.126 0.074,0.188 l 0,0 c -0.041,-0.109 -0.073,-0.221 -0.112,-0.331 l 0,0 c 0.013,0.045 0.024,0.101 0.038,0.143 m -25.337,112.221 c -4.339,-0.299 -8.645,-0.824 -12.904,-1.705 l 0,0 c -5.176,-1.07 -10.168,-2.676 -14.832,-5.209 l 0,0 c -5.417,-2.943 -9.87,-6.937 -13.192,-12.15 l 0,0 c -0.702,-1.103 -1.305,-2.269 -1.995,-3.38 l 0,0 c -1.56,-2.513 -3.719,-4.443 -6.18,-6.013 l 0,0 c -2.532,-1.618 -5.145,-3.111 -7.723,-4.658 l 0,0 c -2.42,-1.451 -4.75,-3.016 -6.628,-5.166 l 0,0 c -2.344,-2.683 -3.242,-5.775 -2.703,-9.298 l 0,0 c 0.329,-2.148 1.083,-4.145 2.139,-6.027 l 0,0 c 2.665,-4.748 6.482,-8.392 10.993,-11.353 l 0,0 c 0.483,-0.317 1.03,-0.566 1.58,-0.744 l 0,0 c 0.77,-0.249 1.087,0.057 0.857,0.834 l 0,0 c -0.164,0.554 -0.452,1.074 -0.714,1.595 l 0,0 c -1.267,2.524 -1.798,5.193 -1.609,8.008 l 0,0 c 0.065,0.964 0.546,1.688 1.377,2.158 l 0,0 c 0.409,0.231 0.849,0.422 1.295,0.571 l 0,0 c 1.384,0.463 2.827,0.666 4.272,0.675 l 0,0 c 2.31,0.014 4.622,-0.043 6.929,-0.15 l 0,0 c 1.667,-0.077 3.329,-0.268 4.991,-0.438 l 0,0 c 2.27,-0.232 4.537,-0.495 6.807,-0.741 l 0,0 c 1.55,-0.167 3.109,-0.27 4.648,-0.502 l 0,0 c 5.447,-0.824 9.902,-3.38 13.3,-7.741 l 0,0 c 1.812,-2.325 3.164,-4.908 4.32,-7.604 l 0,0 c 1.961,-4.576 2.712,-9.34 2.197,-14.29 l 0,0 c -0.407,-3.911 -1.515,-7.636 -3.06,-11.239 l 0,0 c -2.687,-6.266 -6.442,-11.889 -10.534,-17.295 l 0,0 c -3.075,-4.064 -6.265,-8.042 -9.374,-12.082 l 0,0 c -3.264,-4.24 -6.343,-8.611 -8.969,-13.285 l 0,0 c -2.367,-4.216 -4.316,-8.604 -5.405,-13.343 l 0,0 c -0.697,-3.038 -0.963,-6.111 -0.699,-9.211 l 0,0 c 0.41,-4.829 2.148,-9.186 4.895,-13.154 l 0,0 c 2.513,-3.631 5.638,-6.672 9.126,-9.352 l 0,0 c 0.658,-0.506 1.399,-0.904 2.118,-1.327 l 0,0 c 0.313,-0.184 0.665,-0.267 1.117,-0.026 l 0,0 c -0.054,0.308 -0.055,0.645 -0.175,0.932 l 0,0 c -0.192,0.46 -0.441,0.9 -0.702,1.326 l 0,0 c -1.37,2.234 -2.216,4.655 -2.613,7.225 l 0,0 c -0.191,2.67 -0.143,5.993 0.508,9.763 l 0,0 c 0.103,0.419 0.216,0.836 0.337,1.252 l 0,0 c 2.059,7.027 5.692,13.159 10.702,18.478 l 0,0 c 2.253,2.39 4.821,4.379 7.823,5.765 l 0,0 c 1.574,0.727 3.209,1.096 4.949,0.789 l 0,0 c 1.869,-0.329 2.849,-1.592 2.723,-3.48 l 0,0 c -0.085,-1.285 -0.617,-2.418 -1.169,-3.544 l 0,0 c -1.142,-2.333 -2.613,-4.465 -4.022,-6.638 l 0,0 c -4.498,-6.938 -4.984,-14.179 -1.564,-21.701 l 0,0 c 1.21,-2.663 2.934,-4.985 4.731,-7.26 l 0,0 c 0.585,-0.742 1.223,-1.445 1.863,-2.141 l 0,0 c 0.213,-0.233 0.463,-0.506 0.867,-0.357 l 0,0 c 0.275,0.348 0.202,0.746 0.127,1.121 l 0,0 c -0.202,1.009 -0.42,2.016 -0.659,3.016 l 0,0 c -0.482,2.029 -0.57,4.077 -0.318,6.141 l 0,0 c 0.331,2.702 1.36,5.154 2.722,7.482 l 0,0 c 1.726,2.947 3.924,5.538 6.134,8.124 l 0,0 c 2.662,3.111 5.341,6.208 7.917,9.39 l 0,0 c 2.32,2.866 4.22,6.013 5.736,9.384 l 0,0 c 1.386,3.079 2.288,6.267 2.365,9.669 l 0,0 c 0,0 -12.449,23.326 -1.484,38.522 l 0,0 c 10.964,15.197 42.998,16.011 46.956,31.095 l 0,0 c 3.25,12.379 -2.773,17.546 -3.374,28.194 l 0,0 c -0.463,8.231 0.276,12.513 0.276,12.513 l 0,0 c 0,0 -22.471,11.136 -31.366,13.999 l 0,0 c -7.342,2.362 -14.854,3.897 -22.542,4.512 l 0,0 c -2.35,0.188 -4.703,0.282 -7.058,0.282 l 0,0 c -2.043,0 -4.086,-0.071 -6.13,-0.211 m 0.991,-11.895 c 0.804,1.1 1.508,2.273 2.249,3.419 l 0,0 c 0.443,0.685 0.954,1.303 1.652,1.745 l 0,0 c 0.779,0.491 1.608,0.734 2.416,0.145 l 0,0 c 0.809,-0.592 1.248,-1.424 1.074,-2.462 l 0,0 c -0.32,-1.906 -1.225,-3.567 -2.26,-5.164 l 0,0 c -0.344,-0.529 -0.712,-1.043 -1.072,-1.571 l 0,0 c 0.409,-0.269 0.654,0.019 0.915,0.118 l 0,0 c 1.456,0.549 2.888,1.168 4.361,1.663 l 0,0 c 0.809,0.271 1.68,0.375 2.529,0.506 l 0,0 c 1.246,0.189 2.357,-0.214 3.416,-0.84 l 0,0 c 0.35,-0.207 0.458,-0.453 0.375,-0.821 l 0,0 c -0.077,-0.353 -0.142,-0.709 -0.234,-1.059 l 0,0 c -0.302,-1.156 -1.022,-1.879 -2.208,-2.132 l 0,0 c -5.731,-1.231 -10.599,-4.105 -14.949,-7.928 l 0,0 c -1.189,-1.046 -2.251,-2.238 -3.392,-3.342 l 0,0 c -1.503,-1.457 -2.447,-3.155 -4.714,-4.962 l 0,0 -3.648,-2.856 c -1.18,-1.017 -2.845,-1.214 -4.307,-0.749 l 0,0 c -2.067,0.658 -4.114,1.378 -6.175,2.056 l 0,0 c -1.958,0.646 -3.889,1.357 -5.691,2.37 l 0,0 c -1.926,1.082 -3.585,2.456 -4.582,4.49 l 0,0 c -0.809,1.653 -1.108,3.435 -1.24,5.248 l 0,0 c -0.102,1.397 0.003,2.784 0.354,4.144 l 0,0 c 0.367,1.424 1.185,2.502 2.507,3.174 l 0,0 c 0.564,0.286 1.168,0.415 1.782,0.251 l 0,0 c 0.998,-0.268 1.376,-1.058 1.531,-1.99 l 0,0 c 0.053,-0.32 0.061,-0.648 0.106,-1.139 l 0,0 c 0.329,0.274 0.558,0.453 0.774,0.647 l 0,0 c 2.467,2.209 5.256,3.825 8.495,4.615 l 0,0 c 2.869,0.699 5.733,0.584 8.61,0.018 l 0,0 c 1.58,-0.311 3.176,-0.607 4.779,-0.727 l 0,0 c 0.214,-0.016 0.424,-0.025 0.631,-0.025 l 0,0 c 2.451,0 4.431,1.126 5.916,3.158 M 142.34,447.12 c 0.022,0.361 0.02,0.683 0.062,0.999 l 0,0 c 0.111,0.828 0.657,1.147 1.405,0.768 l 0,0 c 0.322,-0.164 0.639,-0.439 0.827,-0.744 l 0,0 c 0.751,-1.223 1.282,-2.545 1.359,-3.994 l 0,0 c 0.055,-1.031 -0.147,-2.031 -1.121,-2.601 l 0,0 c -0.964,-0.565 -1.945,-0.337 -2.8,0.28 l 0,0 c -2.103,1.52 -3.345,3.632 -4.273,6.222 l 0,0 c 1.002,0.194 1.801,-0.121 2.57,-0.437 l 0,0 c 0.606,-0.248 1.192,-0.496 1.844,-0.496 l 0,0 c 0.042,0 0.085,10e-4 0.127,0.003 m 31.182,-75.083 -0.009,-0.017 c 0,0 -0.013,-0.015 -0.021,-0.024 l 0,0 c 0.01,0.014 0.02,0.027 0.03,0.041 m -11.226,86.572 c 0,-3.797 3.078,-6.875 6.875,-6.875 l 0,0 c 3.797,0 6.876,3.078 6.876,6.875 l 0,0 c 0,3.797 -3.079,6.875 -6.876,6.875 l 0,0 c -3.797,0 -6.875,-3.078 -6.875,-6.875 m 26.022,4.502 -0.052,-0.003 c 0,0 -0.176,-0.012 -0.508,-0.035 l 0,0 c -0.332,-0.037 -0.843,-0.106 -1.453,-0.355 l 0,0 c -1.225,-0.478 -2.743,-1.708 -4.075,-3.28 l 0,0 c -1.373,-1.548 -2.68,-3.379 -4.191,-4.896 l 0,0 c -1.488,-1.537 -3.16,-2.711 -5.09,-3.472 l 0,0 c -0.973,-0.339 -2.037,-0.683 -2.996,-0.876 l 0,0 -0.947,-0.151 c -0.175,-0.045 -0.468,-0.039 -0.693,-0.065 l 0,0 c -0.487,-0.06 -0.961,-0.116 -1.431,-0.106 l 0,0 c -0.949,-0.03 -1.846,0.151 -2.745,0.324 l 0,0 c -0.893,0.199 -1.719,0.551 -2.529,0.88 l 0,0 c -1.586,0.713 -2.892,1.619 -3.834,2.269 l 0,0 c -0.928,0.673 -1.464,1.115 -1.464,1.115 l 0,0 -0.048,0.038 c -0.048,0.041 -0.117,0.05 -0.178,0.02 l 0,0 c -0.08,-0.041 -0.112,-0.139 -0.072,-0.221 l 0,0 c 0,0 0.304,-0.599 0.981,-1.53 l 0,0 c 0.687,-0.921 1.736,-2.224 3.331,-3.42 l 0,0 c 1.58,-1.179 3.728,-2.31 6.243,-2.54 l 0,0 c 1.231,-0.17 2.574,-0.053 3.828,0.117 l 0,0 c 1.3,0.211 2.598,0.528 3.826,1.055 l 0,0 c 2.479,1.012 4.591,2.789 6.097,4.753 l 0,0 c 1.524,1.962 2.579,4.013 3.59,5.675 l 0,0 c 0.987,1.679 2.016,2.935 2.92,3.585 l 0,0 c 0.908,0.643 1.539,0.792 1.539,0.792 l 0,0 c 0.078,0.019 0.133,0.091 0.127,0.172 l 0,0 c -0.006,0.088 -0.078,0.156 -0.165,0.156 l 0,0 c -0.003,0 -0.007,-0.001 -0.011,-0.001 M 343.881,336.297 c -1.54,-0.577 -3.528,-1.654 -4.839,-2.397 l 0,0 c -3.374,-1.913 -6.067,-4.272 -8.35,-6.457 l 0,0 c -3.412,-3.266 -5.909,-6.142 -8.397,-6.557 l 0,0 c -4.799,-0.8 -9.651,5.414 -9.651,5.414 l 0,0 c 0,0 -1.2,-10.798 -12.598,-14.797 l 0,0 c -11.397,-3.999 -20.395,0 -20.395,0 l 0,0 c 0,0 -4,-8.398 -21.597,-5.999 l 0,0 c -17.596,2.4 -16.742,8.783 -16.742,8.783 l 0,0 c 0,0 -25.345,-14.771 -30.669,21.146 l 0,0 c -7.09,-6.904 -19.894,-23.151 -19.894,-23.151 l 0,0 c -4.778,-9.028 4.771,-21.389 -2.227,-21.389 l 0,0 c -6.997,0 -13.758,12.475 -15,16.997 l 0,0 c -2.396,8.722 6.158,23.553 0.228,23.569 l 0,0 c -5.374,0.014 -11.48,-20.578 -9.023,-31.569 l 0,0 c 1.375,-6.149 1.8,-6.598 1.8,-6.598 l 0,0 c -3.875,-5.7 -7.852,1.615 -7.852,1.615 l 0,0 c 0,0 -7.343,-24.075 -8.398,-28.794 l 0,0 C 149.188,261.24 139.279,226.32 139.279,226.32 l 0,0 c 0,0 1.601,-10.797 -5.399,-20.396 l 0,0 c -6.998,-9.597 -10.597,-12.196 -10.597,-12.196 l 0,0 c 0,0 -7.799,1.999 -10.399,0 l 0,0 c -2.598,-2 -3.798,-3.2 -5.398,-3.2 l 0,0 c -1.01,0 -9.832,2.608 -14.16,-2.78 l 0,0 c -2.759,-3.433 -1.704,-8.626 -1.637,-8.979 l 0,0 c 0.592,-3.096 4.827,-12.836 12.997,-12.836 l 0,0 47.191,0 c 0,0 11.397,18.396 15.596,32.394 l 0,0 c 4.199,13.997 6.199,20.995 6.199,20.995 l 0,0 c 0,0 7.998,5.199 15.597,25.995 l 0,0 c 7.599,20.796 7.599,19.796 7.599,19.796 l 0,0 c 0,0 14.797,-10.998 35.992,-19.396 l 0,0 c 21.196,-8.399 36.992,-6.999 36.992,-6.999 l 0,0 c 0,0 12.198,-5.598 25.995,-5.598 l 0,0 c 13.797,0 21.061,-1.549 21.061,-1.549 l 0,0 c 0,0 -7.134,11.539 -10.032,30.322 l 0,0 c -0.829,5.376 -1.277,13.553 -0.738,19.232 l 0,0 c 0.611,6.453 2.69,15.308 6.602,22.249 l 0,0 c 0,0 6.672,11.525 17.781,22.635 l 0,0 c 2.761,2.76 5.81,5.076 9.083,7.004 l 0,0 c 4.038,2.38 9.293,4.03 13.685,4.469 l 0,0 c 7.123,0.713 13.987,-1.103 17.899,-4.23 l 0,0 c 4.518,-3.609 5.603,-8.034 5.629,-8.895 l 0,0 c 0.057,-1.802 -0.816,-3.574 -2.167,-4.166 l 0,0 c -0.628,-0.275 -1.058,-0.503 -1.341,-0.692 l 0,0 -5.576,4.702 c -4.343,3.366 -16.574,10.646 -29.392,1.109 l 0,0 c -13.246,-9.856 -24.634,-23.923 -26.736,-47.944 l 0,0 c -1.762,-20.133 7.748,-45.041 8.837,-46.447 l 0,0 c 1.088,-1.405 9.398,-12.396 17.997,-20.195 l 0,0 c 8.597,-7.798 15.396,-15.597 15.396,-15.597 l 0,0 c 0,0 -15.197,3.2 -21.595,3.2 l 0,0 c -6.399,0 -13.797,-4.8 -15.598,-5 l 0,0 c -0.9,-0.1 -3.649,0.249 -6.624,0.6 l 0,0 c -2.973,0.35 -6.174,0.699 -7.973,0.6 l 0,0 c -3.599,-0.2 -11.997,-4.398 -11.997,-4.398 l 0,0 c 0,0 -13.611,0.801 -13.996,-12.599 l 0,0 c -0.234,-10.415 11.397,-11.597 11.397,-11.597 l 0,0 165.966,0 c 0,0 24.994,6.998 21.795,24.795 l 0,0 c -3.2,17.797 -9.997,50.989 -35.393,82.383 l 0,0 c -18.996,20.996 -45.997,31.429 -48.833,32.94 l 0,0 c -2.866,1.528 -10.56,7.456 -12.421,9.017 l 0,0 -4.492,3.788 c 0.945,0.482 2.876,1.683 3.251,3.184 l 0,0 c 0.453,1.811 0.523,4.6 -2.538,8.444 l 0,0 c -3.393,4.26 -8.124,6.945 -13.476,7.835 l 0,0 c -1.562,0.26 -3.151,0.383 -4.747,0.383 l 0,0 c -4.29,0 -8.636,-0.89 -12.68,-2.405"
         id="path64"
         inkscape:connector-curvature="0" /></clipPath><linearGradient
       x1="0"
       y1="0"
       x2="1"
       y2="0"
       gradientUnits="userSpaceOnUse"
       gradientTransform="matrix(384.05719,0,0,-384.05719,91.435791,400.05978)"
       spreadMethod="pad"
       id="linearGradient70"><stop
         style="stop-opacity:1;stop-color:#263065"
         offset="0"
         id="stop72" /><stop
         style="stop-opacity:1;stop-color:#2f52a0"
         offset="0.5"
         id="stop74" /><stop
         style="stop-opacity:1;stop-color:#2f52a0"
         offset="0.62409689"
         id="stop76" /><stop
         style="stop-opacity:1;stop-color:#263065"
         offset="1"
         id="stop78" /></linearGradient><clipPath
       clipPathUnits="userSpaceOnUse"
       id="clipPath86"><path
         d="m 88.141,158.798 c -0.995,0 -1.801,-0.807 -1.801,-1.801 l 0,0 c 0,-0.996 0.806,-1.802 1.801,-1.802 l 0,0 390.646,0 c 0.997,0 1.802,0.806 1.802,1.802 l 0,0 c 0,0.994 -0.805,1.801 -1.802,1.801 l 0,0 -390.646,0 z"
         id="path88"
         inkscape:connector-curvature="0" /></clipPath><linearGradient
       x1="0"
       y1="0"
       x2="1"
       y2="0"
       gradientUnits="userSpaceOnUse"
       gradientTransform="matrix(394.2489,0,0,-394.2489,86.340126,156.99637)"
       spreadMethod="pad"
       id="linearGradient94"><stop
         style="stop-opacity:1;stop-color:#263065"
         offset="0"
         id="stop96" /><stop
         style="stop-opacity:1;stop-color:#2f52a0"
         offset="0.5"
         id="stop98" /><stop
         style="stop-opacity:1;stop-color:#2f52a0"
         offset="0.62409689"
         id="stop100" /><stop
         style="stop-opacity:1;stop-color:#263065"
         offset="1"
         id="stop102" /></linearGradient></defs><sodipodi:namedview
     pagecolor="#ffffff"
     bordercolor="#666666"
     borderopacity="1"
     objecttolerance="10"
     gridtolerance="10"
     guidetolerance="10"
     inkscape:pageopacity="0"
     inkscape:pageshadow="2"
     inkscape:window-width="3293"
     inkscape:window-height="1633"
     id="namedview4"
     showgrid="false"
     fit-margin-top="0"
     fit-margin-left="0"
     fit-margin-right="0"
     fit-margin-bottom="0"
     inkscape:showpageshadow="false"
     showborder="false"
     inkscape:zoom="1.0874198"
     inkscape:cx="1099.399"
     inkscape:cy="1046.0173"
     inkscape:window-x="0"
     inkscape:window-y="41"
     inkscape:window-maximized="0"
     inkscape:current-layer="g10" /><g
     id="g10"
     inkscape:groupmode="layer"
     inkscape:label="Грифон элементы фир стиля"
     transform="matrix(1.25,0,0,-1.25,765.11389,1267.2199)"><g
       id="g12"
       transform="matrix(2.1030189,0,0,1.7023305,-612.09111,-168.47219)"><g
         id="g14"
         clip-path="url(#clipPath16)"><g
           id="g20"><g
             id="g22"><path
               d="m 0,0 566.929,0 0,694.488 L 0,694.488 0,0 Z"
               style="fill:url(#linearGradient24);stroke:none"
               id="path32"
               inkscape:connector-curvature="0" /></g></g></g></g></g></svg>