<?xml version="1.0" encoding="UTF-8" standalone="no"?>
<!-- Created with Inkscape (http://www.inkscape.org/) -->

<svg
   xmlns:dc="http://purl.org/dc/elements/1.1/"
   xmlns:cc="http://creativecommons.org/ns#"
   xmlns:rdf="http://www.w3.org/1999/02/22-rdf-syntax-ns#"
   xmlns:svg="http://www.w3.org/2000/svg"
   xmlns="http://www.w3.org/2000/svg"
   xmlns:sodipodi="http://sodipodi.sourceforge.net/DTD/sodipodi-0.dtd"
   xmlns:inkscape="http://www.inkscape.org/namespaces/inkscape"
   id="svg2"
   version="1.1"
   inkscape:version="0.91 r13725"
   xml:space="preserve"
   width="708.66125"
   height="868.10999"
   viewBox="0 0 708.66125 868.10999"
   sodipodi:docname="logoblue.svg"><metadata
     id="metadata8"><rdf:RDF><cc:Work
         rdf:about=""><dc:format>image/svg+xml</dc:format><dc:type
           rdf:resource="http://purl.org/dc/dcmitype/StillImage" /><dc:title></dc:title></cc:Work></rdf:RDF></metadata><defs
     id="defs6"><clipPath
       clipPathUnits="userSpaceOnUse"
       id="clipPath16"><path
         d="m 0,0 566.929,0 0,694.488 L 0,694.488 0,0 Z"
         id="path18"
         inkscape:connector-curvature="0" /></clipPath><linearGradient
       x1="0"
       y1="0"
       x2="1"
       y2="0"
       gradientUnits="userSpaceOnUse"
       gradientTransform="matrix(566.92914,0,0,-566.92914,-2.135e-4,347.24384)"
       spreadMethod="pad"
       id="linearGradient24"><stop
         style="stop-opacity:1;stop-color:#263065"
         offset="0"
         id="stop26" /><stop
         style="stop-opacity:1;stop-color:#2f52a0"
         offset="0.5"
         id="stop28" /><stop
         style="stop-opacity:1;stop-color:#2f52a0"
         offset="0.62409689"
         id="stop30" /><stop
         style="stop-opacity:1;stop-color:#263065"
         offset="1"
         id="stop32" /></linearGradient><clipPath
       clipPathUnits="userSpaceOnUse"
       id="clipPath40"><path
         d="m 464.477,150.421 0,-22.288 -31.232,0 0,22.288 -13.391,0 0,-58.01 13.391,0 0,22.332 31.232,0 0,-22.332 13.39,0 0,58.01 -13.39,0 z m -108.511,-58.01 58.012,0 0,58.01 -58.012,0 0,-58.01 z m 13.39,44.62 31.232,0 0,-31.23 -31.232,0 0,31.23 z m -47.137,13.39 -13.392,0 -27.83,0 0,-35.678 27.83,0 0,-22.332 13.392,0 0,22.332 27.829,0 0,35.678 -27.829,0 z m 0,-13.39 14.439,0 0,-8.898 -14.439,0 0,8.898 z m -27.831,0 14.439,0 0,-8.898 -14.439,0 0,8.898 z m -32.868,13.39 -31.062,-37.275 0,37.275 -13.39,0 0,-58.01 13.558,0 31.062,37.318 0,-37.318 13.392,0 0,58.01 -13.56,0 z m -108.341,0 0,-58.01 13.39,0 0,22.332 44.622,0 0,35.678 -58.012,0 z m 13.39,-13.39 31.232,0 0,-8.898 -31.232,0 0,8.898 z m -77.277,13.39 0,-58.01 13.39,0 0,44.62 44.621,0 0,13.39 -58.011,0 z m 363.701,-65.673 0,-24.446 5.642,0 0,9.41 13.16,0 0,-9.41 5.643,0 0,24.446 -24.445,0 z m 5.642,-5.644 13.16,0 0,-3.749 -13.16,0 0,3.749 z m -13.58,5.644 0,-9.394 -13.159,0 0,9.394 -5.642,0 0,-24.446 5.642,0 0,9.41 13.159,0 0,-9.41 5.643,0 0,24.446 -5.643,0 z m -45.541,-24.446 24.444,0 0,24.446 -24.444,0 0,-24.446 z m 5.642,18.802 13.16,0 0,-13.16 -13.16,0 0,13.16 z m -32.385,5.644 0,-24.446 5.643,0 0,9.41 18.804,0 0,15.036 -24.447,0 z m 5.643,-5.644 13.16,0 0,-3.749 -13.16,0 0,3.749 z m -32.383,-18.802 24.446,0 0,24.446 -24.446,0 0,-24.446 z m 5.642,18.802 13.16,0 0,-13.16 -13.16,0 0,13.16 z m -14.907,5.644 -5.34,-7.413 -5.36,7.413 -6.951,0 8.825,-12.224 -8.825,-12.222 6.951,0 5.36,7.411 5.34,-7.411 6.971,0 -8.826,12.222 8.826,12.224 -6.971,0 z m -44.393,-24.446 24.447,0 0,24.446 -24.447,0 0,-24.446 z m 5.642,18.802 13.161,0 0,-13.16 -13.161,0 0,13.16 z m -47.821,5.644 0,-24.446 5.642,0 0,9.41 13.16,0 0,-9.41 5.643,0 0,24.446 -24.445,0 z m 5.642,-5.644 13.16,0 0,-3.749 -13.16,0 0,3.749 z m -13.58,5.644 0,-6.582 c 0,-0.778 -0.277,-1.445 -0.831,-1.999 l 0,0 c -0.544,-0.542 -1.203,-0.813 -1.981,-0.813 l 0,0 -10.348,0 0,9.394 -5.643,0 0,-24.446 5.643,0 0,9.41 10.348,0 c 0.765,0 1.427,-0.278 1.981,-0.832 l 0,0 c 0.554,-0.554 0.831,-1.221 0.831,-1.998 l 0,0 0,-6.58 5.644,0 0,6.58 c 0,2.146 -0.72,4.026 -2.16,5.642 l 0,0 c 1.44,1.614 2.16,3.497 2.16,5.642 l 0,0 0,6.582 -5.644,0 z m -45.544,0 0,-24.446 24.446,0 0,5.642 -18.803,0 0,3.768 18.803,0 0,5.642 -18.803,0 0,3.75 18.803,0 0,5.644 -24.446,0 z m -7.938,0 -13.16,0 -5.642,0 0,-24.446 5.642,0 0,18.802 13.16,0 0,-18.802 5.643,0 0,24.446 -5.643,0 z m -26.74,0 -19.474,0 0,-5.644 19.474,0 0,-0.938 c 0,-0.778 -0.277,-1.445 -0.831,-1.999 l 0,0 C 160.661,75.625 160,75.354 159.222,75.354 l 0,0 -10.348,0 0,-5.642 10.348,0 c 0.766,0 1.426,-0.278 1.981,-0.832 l 0,0 c 0.554,-0.554 0.831,-1.221 0.831,-1.998 l 0,0 0,-0.938 -19.474,0 0,-5.642 19.474,0 5.643,0 0,6.58 c 0,2.146 -0.719,4.026 -2.157,5.642 l 0,0 c 1.438,1.614 2.157,3.497 2.157,5.642 l 0,0 0,6.582 -5.643,0 z m -46.233,0 0,-24.446 24.445,0 0,5.642 -18.803,0 0,3.768 18.803,0 0,5.642 -18.803,0 0,3.75 18.803,0 0,5.644 -24.445,0 z m -21.098,0 -5.642,0 0,-24.446 5.642,0 18.803,0 0,15.035 -18.803,0 0,3.767 18.803,0 0,5.644 -18.803,0 z m 0,-15.054 13.16,0 0,-3.75 -13.16,0 0,3.75 z m 184.504,-0.515 7.743,0 0,7.745 -7.743,0 0,-7.745 z"
         id="path42"
         inkscape:connector-curvature="0" /></clipPath><linearGradient
       x1="0"
       y1="0"
       x2="1"
       y2="0"
       gradientUnits="userSpaceOnUse"
       gradientTransform="matrix(388.80585,0,0,-388.80585,89.061272,105.36166)"
       spreadMethod="pad"
       id="linearGradient48"><stop
         style="stop-opacity:1;stop-color:#a6a8a9"
         offset="0"
         id="stop50" /><stop
         style="stop-opacity:1;stop-color:#ffffff"
         offset="0.5"
         id="stop52" /><stop
         style="stop-opacity:1;stop-color:#a6a8a9"
         offset="1"
         id="stop54" /></linearGradient><clipPath
       clipPathUnits="userSpaceOnUse"
       id="clipPath62"><path
         d="m 365.332,619.64 c 0,0 -40.941,-62.838 -41.841,-64.037 l 0,0 c -0.9,-1.199 -2.549,-0.9 -6.448,-3.3 l 0,0 c -3.9,-2.399 -7.649,-8.098 -7.649,-8.098 l 0,0 -21.745,-31.193 c 0,0 3.299,-21.896 5.398,-28.795 l 0,0 c 2.1,-6.898 11.848,-15.746 13.948,-18.445 l 0,0 c 2.099,-2.7 0.749,-5.1 0.15,-13.198 l 0,0 c -0.601,-8.098 4.649,-8.998 4.649,-17.996 l 0,0 c 0,-8.999 -8.999,-15.297 -8.999,-15.297 l 0,0 c 0,0 3,-6.449 2.25,-13.797 l 0,0 c -0.75,-7.348 -10.348,-11.848 -10.348,-11.848 l 0,0 c 0,0 1.2,-5.699 -3.749,-12.297 l 0,0 C 285.999,374.74 277.6,375.64 277.6,375.64 l 0,0 c 0,0 -0.749,-3.899 -5.998,-6.599 l 0,0 c -5.249,-2.699 -13.198,-1.199 -13.198,-1.199 l 0,0 c 0,0 -1.349,-3.15 -10.347,-5.849 l 0,0 c -8.998,-2.7 -14.998,2.249 -14.998,2.249 l 0,0 c 0,0 13.348,0.3 16.797,2.7 l 0,0 c 3.45,2.399 4.2,4.499 6.149,6.448 l 0,0 c 0.949,0.95 2.47,0.546 4.246,0.144 l 0,0 c 1.87,-0.424 4.025,-0.848 6.102,0.306 l 0,0 c 4.049,2.25 5.099,7.799 6.748,9.748 l 0,0 c 0.839,0.991 3.267,0.819 5.748,0.647 l 0,0 c 2.398,-0.165 4.844,-0.332 5.951,0.553 l 0,0 c 2.249,1.8 1.199,8.098 1.499,12.597 l 0,0 c 0.3,4.499 9.448,7.799 9.448,13.348 l 0,0 c 0,5.548 -3.599,4.799 -3.599,11.547 l 0,0 c 0,6.749 9.298,8.249 9.598,14.998 l 0,0 c 0.299,6.748 -3.599,9.147 -4.2,12.447 l 0,0 c -0.599,3.299 -0.45,8.848 -1.049,12.897 l 0,0 c -0.6,4.049 -7.948,13.947 -9.748,19.646 l 0,0 c -1.8,5.698 -1.499,27.744 -1.499,27.744 l 0,0 c 0,0 -3,1.8 -19.197,-20.396 l 0,0 c -16.197,-22.195 -9.661,-44.966 -6.598,-62.086 l 0,0 c 3.677,-20.562 -32.597,-27.414 -37.04,-30.985 l 0,0 c -4.199,-3.374 -12.064,-9.725 -12.665,-24.549 l 0,0 c -0.599,-14.823 14.612,-22.301 14.612,-22.301 l 0,0 0.45,3.749 c 0,0 4.648,-3.299 9.298,-4.798 l 0,0 c 4.648,-1.5 11.397,1.649 11.397,1.649 l 0,0 c 0,0 -2.322,-9.538 -11.17,-9.088 l 0,0 c -8.847,0.45 -6.376,2.939 -6.376,2.939 l 0,0 c 0,0 -0.986,-0.387 -7.348,0.9 l 0,0 c -6.596,1.334 -6.971,5.084 -6.971,5.084 l 0,0 c -0.824,-22.346 7.121,-31.328 13.569,-33.578 l 0,0 c 6.449,-2.25 15.226,1.41 15.226,1.41 l 0,0 c 0,0 3.52,-8.458 16.867,-8.609 l 0,0 c 13.347,-0.149 18.296,9.899 18.296,9.899 l 0,0 c 0,0 9.598,-4.799 20.846,0 l 0,0 c 11.248,4.798 10.498,15.297 10.498,15.297 l 0,0 c 0,0 7.499,-4.049 18.597,4.648 l 0,0 c 11.097,8.699 5.849,22.346 5.849,22.346 l 0,0 c 0,0 8.247,-1.35 16.496,10.371 l 0,0 c 8.248,11.722 0.45,22.623 0.45,22.623 l 0,0 c 0,0 4.799,4.348 7.948,12.596 l 0,0 c 3.15,8.249 -0.6,14.248 -0.6,14.248 l 0,0 c 0,0 9.898,11.098 18.447,24.744 l 0,0 c 8.548,13.647 9.748,19.647 11.247,29.694 l 0,0 c 1.499,10.049 -4.049,16.946 -4.049,16.946 l 0,0 c 0,0 3.299,7.949 5.998,18.897 l 0,0 c 2.7,10.948 -1.499,20.246 -1.499,20.246 l 0,0 c 0,0 3,7.799 6.438,20.995 l 0,0 c 3.437,13.198 -3.589,17.997 -3.589,17.997 l 0,0 c 4.949,22.495 4.05,25.795 1.65,30.443 l 0,0 c -2.399,4.649 -7.198,1.35 -7.198,1.35 l 0,0 c 0,0 2.549,9.898 2.549,16.347 l 0,0 c 0,6.448 -1.95,11.247 -7.199,14.697 l 0,0 c -0.469,0.308 -0.976,0.449 -1.51,0.449 l 0,0 c -5.431,0 -13.637,-14.546 -13.637,-14.546 m -141.724,-248.182 0.005,-0.002 0,-0.005 c 0,0 -0.004,0.005 -0.005,0.007 m -12.157,-3.024 c 0.026,0.076 0.057,0.144 0.084,0.218 l 0,0 c -0.045,-0.119 -0.08,-0.242 -0.122,-0.361 l 0,0 c 0.013,0.045 0.024,0.101 0.038,0.143 m -25.337,112.221 c -4.339,-0.299 -8.645,-0.824 -12.904,-1.705 l 0,0 c -5.176,-1.07 -10.168,-2.676 -14.832,-5.209 l 0,0 c -5.417,-2.943 -9.87,-6.937 -13.192,-12.15 l 0,0 c -0.703,-1.103 -1.306,-2.269 -1.995,-3.38 l 0,0 c -1.56,-2.513 -3.719,-4.443 -6.18,-6.013 l 0,0 c -2.533,-1.618 -5.145,-3.111 -7.723,-4.658 l 0,0 c -2.42,-1.451 -4.75,-3.016 -6.628,-5.166 l 0,0 c -2.344,-2.683 -3.242,-5.776 -2.703,-9.298 l 0,0 c 0.329,-2.148 1.083,-4.145 2.139,-6.027 l 0,0 c 2.665,-4.748 6.482,-8.392 10.993,-11.353 l 0,0 c 0.483,-0.317 1.03,-0.566 1.58,-0.744 l 0,0 c 0.769,-0.249 1.087,0.057 0.857,0.834 l 0,0 c -0.164,0.554 -0.452,1.074 -0.714,1.595 l 0,0 c -1.267,2.524 -1.798,5.193 -1.609,8.008 l 0,0 c 0.064,0.964 0.546,1.688 1.377,2.158 l 0,0 c 0.409,0.231 0.849,0.422 1.295,0.571 l 0,0 c 1.384,0.463 2.827,0.666 4.272,0.675 l 0,0 c 2.309,0.014 4.622,-0.043 6.929,-0.15 l 0,0 c 1.667,-0.077 3.329,-0.268 4.991,-0.438 l 0,0 c 2.27,-0.232 4.537,-0.495 6.807,-0.741 l 0,0 c 1.549,-0.167 3.109,-0.27 4.648,-0.503 l 0,0 c 5.447,-0.823 9.902,-3.379 13.3,-7.74 l 0,0 c 1.812,-2.325 3.164,-4.908 4.319,-7.604 l 0,0 c 1.962,-4.576 2.713,-9.34 2.198,-14.29 l 0,0 c -0.408,-3.911 -1.516,-7.636 -3.06,-11.239 l 0,0 c -2.687,-6.266 -6.442,-11.889 -10.534,-17.296 l 0,0 c -3.075,-4.063 -6.265,-8.041 -9.374,-12.081 l 0,0 c -3.264,-4.24 -6.344,-8.611 -8.969,-13.285 l 0,0 c -2.367,-4.216 -4.317,-8.604 -5.405,-13.344 l 0,0 c -0.697,-3.037 -0.963,-6.11 -0.699,-9.21 l 0,0 c 0.41,-4.829 2.148,-9.186 4.894,-13.154 l 0,0 c 2.514,-3.631 5.639,-6.672 9.127,-9.353 l 0,0 c 0.657,-0.505 1.399,-0.903 2.117,-1.326 l 0,0 c 0.313,-0.184 0.666,-0.267 1.117,-0.026 l 0,0 c -0.053,0.308 -0.054,0.645 -0.174,0.932 l 0,0 c -0.192,0.46 -0.441,0.9 -0.702,1.326 l 0,0 c -1.37,2.234 -2.216,4.655 -2.614,7.225 l 0,0 c -0.19,2.67 -0.143,5.993 0.508,9.763 l 0,0 c 0.103,0.419 0.216,0.836 0.337,1.252 l 0,0 c 2.06,7.027 5.692,13.159 10.702,18.478 l 0,0 c 2.253,2.39 4.822,4.379 7.823,5.765 l 0,0 c 1.575,0.727 3.21,1.096 4.95,0.789 l 0,0 c 1.869,-0.329 2.849,-1.592 2.723,-3.481 l 0,0 c -0.085,-1.284 -0.617,-2.417 -1.169,-3.543 l 0,0 c -1.142,-2.333 -2.613,-4.465 -4.023,-6.638 l 0,0 c -4.498,-6.938 -4.983,-14.179 -1.564,-21.701 l 0,0 c 1.211,-2.663 2.934,-4.985 4.732,-7.26 l 0,0 c 0.585,-0.742 1.222,-1.445 1.863,-2.141 l 0,0 c 0.213,-0.233 0.463,-0.506 0.866,-0.357 l 0,0 c 0.275,0.348 0.203,0.746 0.128,1.121 l 0,0 c -0.202,1.008 -0.42,2.016 -0.659,3.016 l 0,0 c -0.483,2.029 -0.571,4.077 -0.318,6.141 l 0,0 c 0.33,2.702 1.359,5.154 2.722,7.482 l 0,0 c 1.726,2.947 3.924,5.538 6.134,8.124 l 0,0 c 2.661,3.111 5.341,6.208 7.916,9.39 l 0,0 c 2.321,2.866 4.221,6.013 5.737,9.384 l 0,0 c 1.386,3.079 2.288,6.267 2.365,9.669 l 0,0 c 0,0 -12.449,23.326 -1.485,38.522 l 0,0 c 10.964,15.197 42.998,16.011 46.957,31.095 l 0,0 c 3.25,12.379 -2.774,17.546 -3.374,28.194 l 0,0 c -0.464,8.231 0.276,12.513 0.276,12.513 l 0,0 c 0,0 -22.471,11.136 -31.367,13.999 l 0,0 c -7.341,2.362 -14.854,3.897 -22.542,4.512 l 0,0 c -2.35,0.188 -4.703,0.282 -7.057,0.282 l 0,0 c -2.043,0 -4.086,-0.071 -6.13,-0.211 m 0.991,-11.895 c 0.804,1.1 1.508,2.273 2.249,3.418 l 0,0 c 0.443,0.686 0.954,1.304 1.652,1.746 l 0,0 c 0.779,0.491 1.608,0.734 2.415,0.145 l 0,0 c 0.81,-0.592 1.249,-1.424 1.075,-2.462 l 0,0 c -0.321,-1.906 -1.225,-3.567 -2.26,-5.164 l 0,0 c -0.344,-0.529 -0.712,-1.044 -1.072,-1.571 l 0,0 c 0.409,-0.269 0.653,0.019 0.915,0.118 l 0,0 c 1.456,0.549 2.887,1.168 4.361,1.663 l 0,0 c 0.809,0.271 1.679,0.375 2.529,0.506 l 0,0 c 1.246,0.189 2.356,-0.214 3.416,-0.84 l 0,0 c 0.35,-0.207 0.457,-0.453 0.375,-0.821 l 0,0 c -0.077,-0.354 -0.142,-0.709 -0.234,-1.059 l 0,0 c -0.303,-1.156 -1.023,-1.879 -2.208,-2.132 l 0,0 c -5.731,-1.232 -10.599,-4.105 -14.949,-7.928 l 0,0 c -1.19,-1.046 -2.251,-2.238 -3.392,-3.342 l 0,0 c -1.503,-1.457 -2.448,-3.155 -4.714,-4.962 l 0,0 -3.649,-2.856 c -1.179,-1.018 -2.844,-1.214 -4.306,-0.749 l 0,0 c -2.067,0.658 -4.115,1.378 -6.175,2.056 l 0,0 c -1.958,0.646 -3.889,1.357 -5.691,2.37 l 0,0 c -1.926,1.082 -3.585,2.455 -4.582,4.49 l 0,0 c -0.809,1.653 -1.108,3.435 -1.241,5.248 l 0,0 c -0.101,1.397 0.004,2.784 0.354,4.144 l 0,0 c 0.367,1.424 1.186,2.502 2.507,3.174 l 0,0 c 0.564,0.286 1.169,0.415 1.782,0.25 l 0,0 c 0.999,-0.267 1.377,-1.057 1.532,-1.989 l 0,0 c 0.053,-0.32 0.061,-0.648 0.106,-1.139 l 0,0 c 0.329,0.274 0.557,0.453 0.774,0.647 l 0,0 c 2.467,2.209 5.256,3.825 8.495,4.615 l 0,0 c 2.868,0.699 5.732,0.583 8.61,0.018 l 0,0 c 1.58,-0.311 3.176,-0.607 4.778,-0.728 l 0,0 c 0.213,-0.016 0.423,-0.024 0.629,-0.024 l 0,0 c 2.452,0 4.433,1.125 5.919,3.158 M 142.34,447.12 c 0.021,0.36 0.02,0.683 0.062,0.999 l 0,0 c 0.111,0.828 0.657,1.147 1.405,0.768 l 0,0 c 0.321,-0.164 0.638,-0.439 0.827,-0.744 l 0,0 c 0.751,-1.224 1.282,-2.545 1.359,-3.994 l 0,0 c 0.055,-1.031 -0.148,-2.031 -1.121,-2.601 l 0,0 c -0.964,-0.565 -1.945,-0.337 -2.8,0.28 l 0,0 c -2.103,1.52 -3.346,3.632 -4.273,6.222 l 0,0 c 1.002,0.194 1.801,-0.121 2.57,-0.437 l 0,0 c 0.606,-0.248 1.192,-0.496 1.844,-0.496 l 0,0 c 0.042,0 0.085,10e-4 0.127,0.003 m 31.181,-75.083 -0.008,-0.017 c 0,0 -0.014,-0.015 -0.021,-0.024 l 0,0 c 0.009,0.014 0.02,0.027 0.029,0.041 m -11.225,86.572 c 0,-3.797 3.078,-6.875 6.875,-6.875 l 0,0 c 3.797,0 6.875,3.078 6.875,6.875 l 0,0 c 0,3.797 -3.078,6.875 -6.875,6.875 l 0,0 c -3.797,0 -6.875,-3.078 -6.875,-6.875 m 26.022,4.502 -0.052,-0.003 c 0,0 -0.177,-0.012 -0.509,-0.035 l 0,0 c -0.331,-0.037 -0.843,-0.106 -1.452,-0.355 l 0,0 c -1.225,-0.478 -2.743,-1.708 -4.075,-3.28 l 0,0 c -1.373,-1.548 -2.681,-3.38 -4.191,-4.896 l 0,0 c -1.488,-1.537 -3.16,-2.711 -5.091,-3.472 l 0,0 c -0.972,-0.339 -2.037,-0.683 -2.995,-0.876 l 0,0 -0.947,-0.151 c -0.175,-0.045 -0.468,-0.039 -0.693,-0.065 l 0,0 c -0.487,-0.06 -0.961,-0.116 -1.431,-0.106 l 0,0 c -0.949,-0.03 -1.846,0.151 -2.745,0.324 l 0,0 c -0.893,0.199 -1.719,0.551 -2.529,0.88 l 0,0 c -1.586,0.713 -2.892,1.619 -3.834,2.269 l 0,0 c -0.929,0.673 -1.464,1.114 -1.464,1.114 l 0,0 -0.048,0.039 c -0.048,0.041 -0.117,0.05 -0.178,0.02 l 0,0 c -0.08,-0.041 -0.113,-0.139 -0.072,-0.221 l 0,0 c 0,0 0.304,-0.599 0.981,-1.53 l 0,0 c 0.687,-0.921 1.736,-2.224 3.331,-3.42 l 0,0 c 1.58,-1.179 3.728,-2.31 6.242,-2.541 l 0,0 c 1.232,-0.169 2.575,-0.052 3.829,0.117 l 0,0 c 1.3,0.212 2.598,0.529 3.826,1.056 l 0,0 c 2.479,1.012 4.591,2.789 6.097,4.753 l 0,0 c 1.524,1.962 2.579,4.013 3.59,5.675 l 0,0 c 0.987,1.679 2.016,2.935 2.92,3.585 l 0,0 c 0.908,0.643 1.539,0.792 1.539,0.792 l 0,0 c 0.077,0.019 0.133,0.09 0.127,0.172 l 0,0 c -0.006,0.088 -0.079,0.156 -0.165,0.156 l 0,0 c -0.004,0 -0.007,-0.001 -0.011,-0.001 M 343.88,336.297 c -1.539,-0.577 -3.527,-1.654 -4.839,-2.397 l 0,0 c -3.374,-1.913 -6.066,-4.272 -8.35,-6.457 l 0,0 c -3.412,-3.266 -5.908,-6.142 -8.397,-6.557 l 0,0 c -4.798,-0.8 -9.65,5.413 -9.65,5.413 l 0,0 c 0,0 -1.2,-10.797 -12.598,-14.796 l 0,0 c -11.398,-3.999 -20.395,0 -20.395,0 l 0,0 c 0,0 -4,-8.398 -21.597,-5.999 l 0,0 c -17.596,2.4 -16.742,8.783 -16.742,8.783 l 0,0 c 0,0 -25.345,-14.771 -30.67,21.146 l 0,0 c -7.089,-6.904 -19.893,-23.151 -19.893,-23.151 l 0,0 c -4.778,-9.028 4.771,-21.39 -2.227,-21.39 l 0,0 c -6.998,0 -13.759,12.476 -15.001,16.998 l 0,0 c -2.395,8.722 6.159,23.553 0.229,23.568 l 0,0 c -5.374,0.015 -11.48,-20.577 -9.023,-31.568 l 0,0 c 1.375,-6.149 1.8,-6.598 1.8,-6.598 l 0,0 c -3.875,-5.7 -7.852,1.615 -7.852,1.615 l 0,0 c 0,0 -7.344,-24.075 -8.398,-28.794 l 0,0 C 149.188,261.24 139.279,226.32 139.279,226.32 l 0,0 c 0,0 1.6,-10.797 -5.399,-20.396 l 0,0 c -6.998,-9.597 -10.598,-12.196 -10.598,-12.196 l 0,0 c 0,0 -7.798,1.999 -10.398,0 l 0,0 c -2.599,-2 -3.799,-3.2 -5.399,-3.2 l 0,0 c -1.009,0 -9.831,2.608 -14.159,-2.78 l 0,0 c -2.759,-3.434 -1.704,-8.626 -1.637,-8.979 l 0,0 c 0.592,-3.096 4.826,-12.836 12.997,-12.836 l 0,0 47.191,0 c 0,0 11.397,18.396 15.596,32.394 l 0,0 c 4.199,13.997 6.199,20.995 6.199,20.995 l 0,0 c 0,0 7.998,5.199 15.597,25.995 l 0,0 c 7.598,20.796 7.598,19.796 7.598,19.796 l 0,0 c 0,0 14.798,-10.998 35.993,-19.396 l 0,0 c 21.196,-8.399 36.992,-6.999 36.992,-6.999 l 0,0 c 0,0 12.198,-5.598 25.995,-5.598 l 0,0 c 13.797,0 21.061,-1.549 21.061,-1.549 l 0,0 c 0,0 -7.135,11.539 -10.032,30.322 l 0,0 c -0.83,5.376 -1.277,13.553 -0.739,19.232 l 0,0 c 0.612,6.453 2.691,15.308 6.603,22.249 l 0,0 c 0,0 6.672,11.525 17.781,22.635 l 0,0 c 2.761,2.76 5.81,5.076 9.083,7.004 l 0,0 c 4.038,2.38 9.293,4.03 13.685,4.469 l 0,0 c 7.123,0.713 13.986,-1.103 17.899,-4.23 l 0,0 c 4.517,-3.609 5.602,-8.034 5.629,-8.895 l 0,0 c 0.057,-1.802 -0.816,-3.574 -2.167,-4.166 l 0,0 c -0.628,-0.275 -1.058,-0.503 -1.342,-0.692 l 0,0 -5.576,4.702 c -4.342,3.366 -16.573,10.646 -29.391,1.109 l 0,0 c -13.247,-9.856 -24.634,-23.923 -26.736,-47.944 l 0,0 c -1.762,-20.133 7.748,-45.041 8.836,-46.447 l 0,0 c 1.088,-1.405 9.399,-12.396 17.998,-20.195 l 0,0 c 8.597,-7.798 15.396,-15.597 15.396,-15.597 l 0,0 c 0,0 -15.197,3.2 -21.595,3.2 l 0,0 c -6.4,0 -13.797,-4.8 -15.598,-5 l 0,0 c -0.9,-0.1 -3.649,0.249 -6.624,0.6 l 0,0 c -2.974,0.35 -6.174,0.699 -7.973,0.6 l 0,0 c -3.599,-0.2 -11.997,-4.398 -11.997,-4.398 l 0,0 c 0,0 -13.611,0.801 -13.997,-12.599 l 0,0 c -0.233,-10.415 11.397,-11.597 11.397,-11.597 l 0,0 165.967,0 c 0,0 24.994,6.998 21.795,24.795 l 0,0 c -3.2,17.797 -9.998,50.989 -35.393,82.383 l 0,0 c -18.996,20.996 -45.998,31.429 -48.833,32.94 l 0,0 c -2.867,1.528 -10.56,7.456 -12.422,9.017 l 0,0 -4.491,3.788 c 0.944,0.482 2.876,1.682 3.25,3.184 l 0,0 c 0.454,1.811 0.524,4.6 -2.538,8.444 l 0,0 c -3.392,4.26 -8.123,6.945 -13.476,7.835 l 0,0 c -1.562,0.26 -3.15,0.383 -4.746,0.383 l 0,0 c -4.29,0 -8.637,-0.89 -12.681,-2.405"
         id="path64"
         inkscape:connector-curvature="0" /></clipPath><linearGradient
       x1="0"
       y1="0"
       x2="1"
       y2="0"
       gradientUnits="userSpaceOnUse"
       gradientTransform="matrix(384.05719,0,0,-384.05719,91.435562,400.05972)"
       spreadMethod="pad"
       id="linearGradient70"><stop
         style="stop-opacity:1;stop-color:#a6a8a9"
         offset="0"
         id="stop72" /><stop
         style="stop-opacity:1;stop-color:#ffffff"
         offset="0.5"
         id="stop74" /><stop
         style="stop-opacity:1;stop-color:#a6a8a9"
         offset="1"
         id="stop76" /></linearGradient><clipPath
       clipPathUnits="userSpaceOnUse"
       id="clipPath84"><path
         d="m 88.141,158.798 c -0.996,0 -1.801,-0.807 -1.801,-1.801 l 0,0 c 0,-0.996 0.805,-1.802 1.801,-1.802 l 0,0 390.646,0 c 0.996,0 1.802,0.806 1.802,1.802 l 0,0 c 0,0.994 -0.806,1.801 -1.802,1.801 l 0,0 -390.646,0 z"
         id="path86"
         inkscape:connector-curvature="0" /></clipPath><linearGradient
       x1="0"
       y1="0"
       x2="1"
       y2="0"
       gradientUnits="userSpaceOnUse"
       gradientTransform="matrix(394.2489,0,0,-394.2489,86.339897,156.99632)"
       spreadMethod="pad"
       id="linearGradient92"><stop
         style="stop-opacity:1;stop-color:#a6a8a9"
         offset="0"
         id="stop94" /><stop
         style="stop-opacity:1;stop-color:#ffffff"
         offset="0.5"
         id="stop96" /><stop
         style="stop-opacity:1;stop-color:#a6a8a9"
         offset="1"
         id="stop98" /></linearGradient></defs><sodipodi:namedview
     pagecolor="#ffffff"
     bordercolor="#666666"
     borderopacity="1"
     objecttolerance="10"
     gridtolerance="10"
     guidetolerance="10"
     inkscape:pageopacity="0"
     inkscape:pageshadow="2"
     inkscape:window-width="2978"
     inkscape:window-height="1549"
     id="namedview4"
     showgrid="false"
     inkscape:zoom="1.5378438"
     inkscape:cx="478.29768"
     inkscape:cy="530.34179"
     inkscape:window-x="0"
     inkscape:window-y="48"
     inkscape:window-maximized="0"
     inkscape:current-layer="g10"
     fit-margin-right="2.4147351e-15"
     fit-margin-bottom="-1.8790525e-14"
     fit-margin-top="0"
     fit-margin-left="0"
     inkscape:showpageshadow="false" /><g
     id="g10"
     inkscape:groupmode="layer"
     inkscape:label="Грифон элементы фир стиля"
     transform="matrix(1.25,0,0,-1.25,0,868.11)"><g
       id="g12"><g
         id="g14"
         clip-path="url(#clipPath16)"><g
           id="g20"><g
             id="g22"><path
               d="m 0,0 566.929,0 0,694.488 L 0,694.488 0,0 Z"
               style="fill:url(#linearGradient24);stroke:none"
               id="path34"
               inkscape:connector-curvature="0" /></g></g></g></g><g
       id="g36"><g
         id="g38"
         clip-path="url(#clipPath40)"><g
           id="g44"><g
             id="g46"><path
               d="m 464.477,150.421 0,-22.288 -31.232,0 0,22.288 -13.391,0 0,-58.01 13.391,0 0,22.332 31.232,0 0,-22.332 13.39,0 0,58.01 -13.39,0 z m -108.511,-58.01 58.012,0 0,58.01 -58.012,0 0,-58.01 z m 13.39,44.62 31.232,0 0,-31.23 -31.232,0 0,31.23 z m -47.137,13.39 -13.392,0 -27.83,0 0,-35.678 27.83,0 0,-22.332 13.392,0 0,22.332 27.829,0 0,35.678 -27.829,0 z m 0,-13.39 14.439,0 0,-8.898 -14.439,0 0,8.898 z m -27.831,0 14.439,0 0,-8.898 -14.439,0 0,8.898 z m -32.868,13.39 -31.062,-37.275 0,37.275 -13.39,0 0,-58.01 13.558,0 31.062,37.318 0,-37.318 13.392,0 0,58.01 -13.56,0 z m -108.341,0 0,-58.01 13.39,0 0,22.332 44.622,0 0,35.678 -58.012,0 z m 13.39,-13.39 31.232,0 0,-8.898 -31.232,0 0,8.898 z m -77.277,13.39 0,-58.01 13.39,0 0,44.62 44.621,0 0,13.39 -58.011,0 z m 363.701,-65.673 0,-24.446 5.642,0 0,9.41 13.16,0 0,-9.41 5.643,0 0,24.446 -24.445,0 z m 5.642,-5.644 13.16,0 0,-3.749 -13.16,0 0,3.749 z m -13.58,5.644 0,-9.394 -13.159,0 0,9.394 -5.642,0 0,-24.446 5.642,0 0,9.41 13.159,0 0,-9.41 5.643,0 0,24.446 -5.643,0 z m -45.541,-24.446 24.444,0 0,24.446 -24.444,0 0,-24.446 z m 5.642,18.802 13.16,0 0,-13.16 -13.16,0 0,13.16 z m -32.385,5.644 0,-24.446 5.643,0 0,9.41 18.804,0 0,15.036 -24.447,0 z m 5.643,-5.644 13.16,0 0,-3.749 -13.16,0 0,3.749 z m -32.383,-18.802 24.446,0 0,24.446 -24.446,0 0,-24.446 z m 5.642,18.802 13.16,0 0,-13.16 -13.16,0 0,13.16 z m -14.907,5.644 -5.34,-7.413 -5.36,7.413 -6.951,0 8.825,-12.224 -8.825,-12.222 6.951,0 5.36,7.411 5.34,-7.411 6.971,0 -8.826,12.222 8.826,12.224 -6.971,0 z m -44.393,-24.446 24.447,0 0,24.446 -24.447,0 0,-24.446 z m 5.642,18.802 13.161,0 0,-13.16 -13.161,0 0,13.16 z m -47.821,5.644 0,-24.446 5.642,0 0,9.41 13.16,0 0,-9.41 5.643,0 0,24.446 -24.445,0 z m 5.642,-5.644 13.16,0 0,-3.749 -13.16,0 0,3.749 z m -13.58,5.644 0,-6.582 c 0,-0.778 -0.277,-1.445 -0.831,-1.999 l 0,0 c -0.544,-0.542 -1.203,-0.813 -1.981,-0.813 l 0,0 -10.348,0 0,9.394 -5.643,0 0,-24.446 5.643,0 0,9.41 10.348,0 c 0.765,0 1.427,-0.278 1.981,-0.832 l 0,0 c 0.554,-0.554 0.831,-1.221 0.831,-1.998 l 0,0 0,-6.58 5.644,0 0,6.58 c 0,2.146 -0.72,4.026 -2.16,5.642 l 0,0 c 1.44,1.614 2.16,3.497 2.16,5.642 l 0,0 0,6.582 -5.644,0 z m -45.544,0 0,-24.446 24.446,0 0,5.642 -18.803,0 0,3.768 18.803,0 0,5.642 -18.803,0 0,3.75 18.803,0 0,5.644 -24.446,0 z m -7.938,0 -13.16,0 -5.642,0 0,-24.446 5.642,0 0,18.802 13.16,0 0,-18.802 5.643,0 0,24.446 -5.643,0 z m -26.74,0 -19.474,0 0,-5.644 19.474,0 0,-0.938 c 0,-0.778 -0.277,-1.445 -0.831,-1.999 l 0,0 C 160.661,75.625 160,75.354 159.222,75.354 l 0,0 -10.348,0 0,-5.642 10.348,0 c 0.766,0 1.426,-0.278 1.981,-0.832 l 0,0 c 0.554,-0.554 0.831,-1.221 0.831,-1.998 l 0,0 0,-0.938 -19.474,0 0,-5.642 19.474,0 5.643,0 0,6.58 c 0,2.146 -0.719,4.026 -2.157,5.642 l 0,0 c 1.438,1.614 2.157,3.497 2.157,5.642 l 0,0 0,6.582 -5.643,0 z m -46.233,0 0,-24.446 24.445,0 0,5.642 -18.803,0 0,3.768 18.803,0 0,5.642 -18.803,0 0,3.75 18.803,0 0,5.644 -24.445,0 z m -21.098,0 -5.642,0 0,-24.446 5.642,0 18.803,0 0,15.035 -18.803,0 0,3.767 18.803,0 0,5.644 -18.803,0 z m 0,-15.054 13.16,0 0,-3.75 -13.16,0 0,3.75 z m 184.504,-0.515 7.743,0 0,7.745 -7.743,0 0,-7.745 z"
               style="fill:url(#linearGradient48);stroke:none"
               id="path56"
               inkscape:connector-curvature="0" /></g></g></g></g><g
       id="g58"><g
         id="g60"
         clip-path="url(#clipPath62)"><g
           id="g66"><g
             id="g68"><path
               d="m 365.332,619.64 c 0,0 -40.941,-62.838 -41.841,-64.037 l 0,0 c -0.9,-1.199 -2.549,-0.9 -6.448,-3.3 l 0,0 c -3.9,-2.399 -7.649,-8.098 -7.649,-8.098 l 0,0 -21.745,-31.193 c 0,0 3.299,-21.896 5.398,-28.795 l 0,0 c 2.1,-6.898 11.848,-15.746 13.948,-18.445 l 0,0 c 2.099,-2.7 0.749,-5.1 0.15,-13.198 l 0,0 c -0.601,-8.098 4.649,-8.998 4.649,-17.996 l 0,0 c 0,-8.999 -8.999,-15.297 -8.999,-15.297 l 0,0 c 0,0 3,-6.449 2.25,-13.797 l 0,0 c -0.75,-7.348 -10.348,-11.848 -10.348,-11.848 l 0,0 c 0,0 1.2,-5.699 -3.749,-12.297 l 0,0 C 285.999,374.74 277.6,375.64 277.6,375.64 l 0,0 c 0,0 -0.749,-3.899 -5.998,-6.599 l 0,0 c -5.249,-2.699 -13.198,-1.199 -13.198,-1.199 l 0,0 c 0,0 -1.349,-3.15 -10.347,-5.849 l 0,0 c -8.998,-2.7 -14.998,2.249 -14.998,2.249 l 0,0 c 0,0 13.348,0.3 16.797,2.7 l 0,0 c 3.45,2.399 4.2,4.499 6.149,6.448 l 0,0 c 0.949,0.95 2.47,0.546 4.246,0.144 l 0,0 c 1.87,-0.424 4.025,-0.848 6.102,0.306 l 0,0 c 4.049,2.25 5.099,7.799 6.748,9.748 l 0,0 c 0.839,0.991 3.267,0.819 5.748,0.647 l 0,0 c 2.398,-0.165 4.844,-0.332 5.951,0.553 l 0,0 c 2.249,1.8 1.199,8.098 1.499,12.597 l 0,0 c 0.3,4.499 9.448,7.799 9.448,13.348 l 0,0 c 0,5.548 -3.599,4.799 -3.599,11.547 l 0,0 c 0,6.749 9.298,8.249 9.598,14.998 l 0,0 c 0.299,6.748 -3.599,9.147 -4.2,12.447 l 0,0 c -0.599,3.299 -0.45,8.848 -1.049,12.897 l 0,0 c -0.6,4.049 -7.948,13.947 -9.748,19.646 l 0,0 c -1.8,5.698 -1.499,27.744 -1.499,27.744 l 0,0 c 0,0 -3,1.8 -19.197,-20.396 l 0,0 c -16.197,-22.195 -9.661,-44.966 -6.598,-62.086 l 0,0 c 3.677,-20.562 -32.597,-27.414 -37.04,-30.985 l 0,0 c -4.199,-3.374 -12.064,-9.725 -12.665,-24.549 l 0,0 c -0.599,-14.823 14.612,-22.301 14.612,-22.301 l 0,0 0.45,3.749 c 0,0 4.648,-3.299 9.298,-4.798 l 0,0 c 4.648,-1.5 11.397,1.649 11.397,1.649 l 0,0 c 0,0 -2.322,-9.538 -11.17,-9.088 l 0,0 c -8.847,0.45 -6.376,2.939 -6.376,2.939 l 0,0 c 0,0 -0.986,-0.387 -7.348,0.9 l 0,0 c -6.596,1.334 -6.971,5.084 -6.971,5.084 l 0,0 c -0.824,-22.346 7.121,-31.328 13.569,-33.578 l 0,0 c 6.449,-2.25 15.226,1.41 15.226,1.41 l 0,0 c 0,0 3.52,-8.458 16.867,-8.609 l 0,0 c 13.347,-0.149 18.296,9.899 18.296,9.899 l 0,0 c 0,0 9.598,-4.799 20.846,0 l 0,0 c 11.248,4.798 10.498,15.297 10.498,15.297 l 0,0 c 0,0 7.499,-4.049 18.597,4.648 l 0,0 c 11.097,8.699 5.849,22.346 5.849,22.346 l 0,0 c 0,0 8.247,-1.35 16.496,10.371 l 0,0 c 8.248,11.722 0.45,22.623 0.45,22.623 l 0,0 c 0,0 4.799,4.348 7.948,12.596 l 0,0 c 3.15,8.249 -0.6,14.248 -0.6,14.248 l 0,0 c 0,0 9.898,11.098 18.447,24.744 l 0,0 c 8.548,13.647 9.748,19.647 11.247,29.694 l 0,0 c 1.499,10.049 -4.049,16.946 -4.049,16.946 l 0,0 c 0,0 3.299,7.949 5.998,18.897 l 0,0 c 2.7,10.948 -1.499,20.246 -1.499,20.246 l 0,0 c 0,0 3,7.799 6.438,20.995 l 0,0 c 3.437,13.198 -3.589,17.997 -3.589,17.997 l 0,0 c 4.949,22.495 4.05,25.795 1.65,30.443 l 0,0 c -2.399,4.649 -7.198,1.35 -7.198,1.35 l 0,0 c 0,0 2.549,9.898 2.549,16.347 l 0,0 c 0,6.448 -1.95,11.247 -7.199,14.697 l 0,0 c -0.469,0.308 -0.976,0.449 -1.51,0.449 l 0,0 c -5.431,0 -13.637,-14.546 -13.637,-14.546 m -141.724,-248.182 0.005,-0.002 0,-0.005 c 0,0 -0.004,0.005 -0.005,0.007 m -12.157,-3.024 c 0.026,0.076 0.057,0.144 0.084,0.218 l 0,0 c -0.045,-0.119 -0.08,-0.242 -0.122,-0.361 l 0,0 c 0.013,0.045 0.024,0.101 0.038,0.143 m -25.337,112.221 c -4.339,-0.299 -8.645,-0.824 -12.904,-1.705 l 0,0 c -5.176,-1.07 -10.168,-2.676 -14.832,-5.209 l 0,0 c -5.417,-2.943 -9.87,-6.937 -13.192,-12.15 l 0,0 c -0.703,-1.103 -1.306,-2.269 -1.995,-3.38 l 0,0 c -1.56,-2.513 -3.719,-4.443 -6.18,-6.013 l 0,0 c -2.533,-1.618 -5.145,-3.111 -7.723,-4.658 l 0,0 c -2.42,-1.451 -4.75,-3.016 -6.628,-5.166 l 0,0 c -2.344,-2.683 -3.242,-5.776 -2.703,-9.298 l 0,0 c 0.329,-2.148 1.083,-4.145 2.139,-6.027 l 0,0 c 2.665,-4.748 6.482,-8.392 10.993,-11.353 l 0,0 c 0.483,-0.317 1.03,-0.566 1.58,-0.744 l 0,0 c 0.769,-0.249 1.087,0.057 0.857,0.834 l 0,0 c -0.164,0.554 -0.452,1.074 -0.714,1.595 l 0,0 c -1.267,2.524 -1.798,5.193 -1.609,8.008 l 0,0 c 0.064,0.964 0.546,1.688 1.377,2.158 l 0,0 c 0.409,0.231 0.849,0.422 1.295,0.571 l 0,0 c 1.384,0.463 2.827,0.666 4.272,0.675 l 0,0 c 2.309,0.014 4.622,-0.043 6.929,-0.15 l 0,0 c 1.667,-0.077 3.329,-0.268 4.991,-0.438 l 0,0 c 2.27,-0.232 4.537,-0.495 6.807,-0.741 l 0,0 c 1.549,-0.167 3.109,-0.27 4.648,-0.503 l 0,0 c 5.447,-0.823 9.902,-3.379 13.3,-7.74 l 0,0 c 1.812,-2.325 3.164,-4.908 4.319,-7.604 l 0,0 c 1.962,-4.576 2.713,-9.34 2.198,-14.29 l 0,0 c -0.408,-3.911 -1.516,-7.636 -3.06,-11.239 l 0,0 c -2.687,-6.266 -6.442,-11.889 -10.534,-17.296 l 0,0 c -3.075,-4.063 -6.265,-8.041 -9.374,-12.081 l 0,0 c -3.264,-4.24 -6.344,-8.611 -8.969,-13.285 l 0,0 c -2.367,-4.216 -4.317,-8.604 -5.405,-13.344 l 0,0 c -0.697,-3.037 -0.963,-6.11 -0.699,-9.21 l 0,0 c 0.41,-4.829 2.148,-9.186 4.894,-13.154 l 0,0 c 2.514,-3.631 5.639,-6.672 9.127,-9.353 l 0,0 c 0.657,-0.505 1.399,-0.903 2.117,-1.326 l 0,0 c 0.313,-0.184 0.666,-0.267 1.117,-0.026 l 0,0 c -0.053,0.308 -0.054,0.645 -0.174,0.932 l 0,0 c -0.192,0.46 -0.441,0.9 -0.702,1.326 l 0,0 c -1.37,2.234 -2.216,4.655 -2.614,7.225 l 0,0 c -0.19,2.67 -0.143,5.993 0.508,9.763 l 0,0 c 0.103,0.419 0.216,0.836 0.337,1.252 l 0,0 c 2.06,7.027 5.692,13.159 10.702,18.478 l 0,0 c 2.253,2.39 4.822,4.379 7.823,5.765 l 0,0 c 1.575,0.727 3.21,1.096 4.95,0.789 l 0,0 c 1.869,-0.329 2.849,-1.592 2.723,-3.481 l 0,0 c -0.085,-1.284 -0.617,-2.417 -1.169,-3.543 l 0,0 c -1.142,-2.333 -2.613,-4.465 -4.023,-6.638 l 0,0 c -4.498,-6.938 -4.983,-14.179 -1.564,-21.701 l 0,0 c 1.211,-2.663 2.934,-4.985 4.732,-7.26 l 0,0 c 0.585,-0.742 1.222,-1.445 1.863,-2.141 l 0,0 c 0.213,-0.233 0.463,-0.506 0.866,-0.357 l 0,0 c 0.275,0.348 0.203,0.746 0.128,1.121 l 0,0 c -0.202,1.008 -0.42,2.016 -0.659,3.016 l 0,0 c -0.483,2.029 -0.571,4.077 -0.318,6.141 l 0,0 c 0.33,2.702 1.359,5.154 2.722,7.482 l 0,0 c 1.726,2.947 3.924,5.538 6.134,8.124 l 0,0 c 2.661,3.111 5.341,6.208 7.916,9.39 l 0,0 c 2.321,2.866 4.221,6.013 5.737,9.384 l 0,0 c 1.386,3.079 2.288,6.267 2.365,9.669 l 0,0 c 0,0 -12.449,23.326 -1.485,38.522 l 0,0 c 10.964,15.197 42.998,16.011 46.957,31.095 l 0,0 c 3.25,12.379 -2.774,17.546 -3.374,28.194 l 0,0 c -0.464,8.231 0.276,12.513 0.276,12.513 l 0,0 c 0,0 -22.471,11.136 -31.367,13.999 l 0,0 c -7.341,2.362 -14.854,3.897 -22.542,4.512 l 0,0 c -2.35,0.188 -4.703,0.282 -7.057,0.282 l 0,0 c -2.043,0 -4.086,-0.071 -6.13,-0.211 m 0.991,-11.895 c 0.804,1.1 1.508,2.273 2.249,3.418 l 0,0 c 0.443,0.686 0.954,1.304 1.652,1.746 l 0,0 c 0.779,0.491 1.608,0.734 2.415,0.145 l 0,0 c 0.81,-0.592 1.249,-1.424 1.075,-2.462 l 0,0 c -0.321,-1.906 -1.225,-3.567 -2.26,-5.164 l 0,0 c -0.344,-0.529 -0.712,-1.044 -1.072,-1.571 l 0,0 c 0.409,-0.269 0.653,0.019 0.915,0.118 l 0,0 c 1.456,0.549 2.887,1.168 4.361,1.663 l 0,0 c 0.809,0.271 1.679,0.375 2.529,0.506 l 0,0 c 1.246,0.189 2.356,-0.214 3.416,-0.84 l 0,0 c 0.35,-0.207 0.457,-0.453 0.375,-0.821 l 0,0 c -0.077,-0.354 -0.142,-0.709 -0.234,-1.059 l 0,0 c -0.303,-1.156 -1.023,-1.879 -2.208,-2.132 l 0,0 c -5.731,-1.232 -10.599,-4.105 -14.949,-7.928 l 0,0 c -1.19,-1.046 -2.251,-2.238 -3.392,-3.342 l 0,0 c -1.503,-1.457 -2.448,-3.155 -4.714,-4.962 l 0,0 -3.649,-2.856 c -1.179,-1.018 -2.844,-1.214 -4.306,-0.749 l 0,0 c -2.067,0.658 -4.115,1.378 -6.175,2.056 l 0,0 c -1.958,0.646 -3.889,1.357 -5.691,2.37 l 0,0 c -1.926,1.082 -3.585,2.455 -4.582,4.49 l 0,0 c -0.809,1.653 -1.108,3.435 -1.241,5.248 l 0,0 c -0.101,1.397 0.004,2.784 0.354,4.144 l 0,0 c 0.367,1.424 1.186,2.502 2.507,3.174 l 0,0 c 0.564,0.286 1.169,0.415 1.782,0.25 l 0,0 c 0.999,-0.267 1.377,-1.057 1.532,-1.989 l 0,0 c 0.053,-0.32 0.061,-0.648 0.106,-1.139 l 0,0 c 0.329,0.274 0.557,0.453 0.774,0.647 l 0,0 c 2.467,2.209 5.256,3.825 8.495,4.615 l 0,0 c 2.868,0.699 5.732,0.583 8.61,0.018 l 0,0 c 1.58,-0.311 3.176,-0.607 4.778,-0.728 l 0,0 c 0.213,-0.016 0.423,-0.024 0.629,-0.024 l 0,0 c 2.452,0 4.433,1.125 5.919,3.158 M 142.34,447.12 c 0.021,0.36 0.02,0.683 0.062,0.999 l 0,0 c 0.111,0.828 0.657,1.147 1.405,0.768 l 0,0 c 0.321,-0.164 0.638,-0.439 0.827,-0.744 l 0,0 c 0.751,-1.224 1.282,-2.545 1.359,-3.994 l 0,0 c 0.055,-1.031 -0.148,-2.031 -1.121,-2.601 l 0,0 c -0.964,-0.565 -1.945,-0.337 -2.8,0.28 l 0,0 c -2.103,1.52 -3.346,3.632 -4.273,6.222 l 0,0 c 1.002,0.194 1.801,-0.121 2.57,-0.437 l 0,0 c 0.606,-0.248 1.192,-0.496 1.844,-0.496 l 0,0 c 0.042,0 0.085,10e-4 0.127,0.003 m 31.181,-75.083 -0.008,-0.017 c 0,0 -0.014,-0.015 -0.021,-0.024 l 0,0 c 0.009,0.014 0.02,0.027 0.029,0.041 m -11.225,86.572 c 0,-3.797 3.078,-6.875 6.875,-6.875 l 0,0 c 3.797,0 6.875,3.078 6.875,6.875 l 0,0 c 0,3.797 -3.078,6.875 -6.875,6.875 l 0,0 c -3.797,0 -6.875,-3.078 -6.875,-6.875 m 26.022,4.502 -0.052,-0.003 c 0,0 -0.177,-0.012 -0.509,-0.035 l 0,0 c -0.331,-0.037 -0.843,-0.106 -1.452,-0.355 l 0,0 c -1.225,-0.478 -2.743,-1.708 -4.075,-3.28 l 0,0 c -1.373,-1.548 -2.681,-3.38 -4.191,-4.896 l 0,0 c -1.488,-1.537 -3.16,-2.711 -5.091,-3.472 l 0,0 c -0.972,-0.339 -2.037,-0.683 -2.995,-0.876 l 0,0 -0.947,-0.151 c -0.175,-0.045 -0.468,-0.039 -0.693,-0.065 l 0,0 c -0.487,-0.06 -0.961,-0.116 -1.431,-0.106 l 0,0 c -0.949,-0.03 -1.846,0.151 -2.745,0.324 l 0,0 c -0.893,0.199 -1.719,0.551 -2.529,0.88 l 0,0 c -1.586,0.713 -2.892,1.619 -3.834,2.269 l 0,0 c -0.929,0.673 -1.464,1.114 -1.464,1.114 l 0,0 -0.048,0.039 c -0.048,0.041 -0.117,0.05 -0.178,0.02 l 0,0 c -0.08,-0.041 -0.113,-0.139 -0.072,-0.221 l 0,0 c 0,0 0.304,-0.599 0.981,-1.53 l 0,0 c 0.687,-0.921 1.736,-2.224 3.331,-3.42 l 0,0 c 1.58,-1.179 3.728,-2.31 6.242,-2.541 l 0,0 c 1.232,-0.169 2.575,-0.052 3.829,0.117 l 0,0 c 1.3,0.212 2.598,0.529 3.826,1.056 l 0,0 c 2.479,1.012 4.591,2.789 6.097,4.753 l 0,0 c 1.524,1.962 2.579,4.013 3.59,5.675 l 0,0 c 0.987,1.679 2.016,2.935 2.92,3.585 l 0,0 c 0.908,0.643 1.539,0.792 1.539,0.792 l 0,0 c 0.077,0.019 0.133,0.09 0.127,0.172 l 0,0 c -0.006,0.088 -0.079,0.156 -0.165,0.156 l 0,0 c -0.004,0 -0.007,-0.001 -0.011,-0.001 M 343.88,336.297 c -1.539,-0.577 -3.527,-1.654 -4.839,-2.397 l 0,0 c -3.374,-1.913 -6.066,-4.272 -8.35,-6.457 l 0,0 c -3.412,-3.266 -5.908,-6.142 -8.397,-6.557 l 0,0 c -4.798,-0.8 -9.65,5.413 -9.65,5.413 l 0,0 c 0,0 -1.2,-10.797 -12.598,-14.796 l 0,0 c -11.398,-3.999 -20.395,0 -20.395,0 l 0,0 c 0,0 -4,-8.398 -21.597,-5.999 l 0,0 c -17.596,2.4 -16.742,8.783 -16.742,8.783 l 0,0 c 0,0 -25.345,-14.771 -30.67,21.146 l 0,0 c -7.089,-6.904 -19.893,-23.151 -19.893,-23.151 l 0,0 c -4.778,-9.028 4.771,-21.39 -2.227,-21.39 l 0,0 c -6.998,0 -13.759,12.476 -15.001,16.998 l 0,0 c -2.395,8.722 6.159,23.553 0.229,23.568 l 0,0 c -5.374,0.015 -11.48,-20.577 -9.023,-31.568 l 0,0 c 1.375,-6.149 1.8,-6.598 1.8,-6.598 l 0,0 c -3.875,-5.7 -7.852,1.615 -7.852,1.615 l 0,0 c 0,0 -7.344,-24.075 -8.398,-28.794 l 0,0 C 149.188,261.24 139.279,226.32 139.279,226.32 l 0,0 c 0,0 1.6,-10.797 -5.399,-20.396 l 0,0 c -6.998,-9.597 -10.598,-12.196 -10.598,-12.196 l 0,0 c 0,0 -7.798,1.999 -10.398,0 l 0,0 c -2.599,-2 -3.799,-3.2 -5.399,-3.2 l 0,0 c -1.009,0 -9.831,2.608 -14.159,-2.78 l 0,0 c -2.759,-3.434 -1.704,-8.626 -1.637,-8.979 l 0,0 c 0.592,-3.096 4.826,-12.836 12.997,-12.836 l 0,0 47.191,0 c 0,0 11.397,18.396 15.596,32.394 l 0,0 c 4.199,13.997 6.199,20.995 6.199,20.995 l 0,0 c 0,0 7.998,5.199 15.597,25.995 l 0,0 c 7.598,20.796 7.598,19.796 7.598,19.796 l 0,0 c 0,0 14.798,-10.998 35.993,-19.396 l 0,0 c 21.196,-8.399 36.992,-6.999 36.992,-6.999 l 0,0 c 0,0 12.198,-5.598 25.995,-5.598 l 0,0 c 13.797,0 21.061,-1.549 21.061,-1.549 l 0,0 c 0,0 -7.135,11.539 -10.032,30.322 l 0,0 c -0.83,5.376 -1.277,13.553 -0.739,19.232 l 0,0 c 0.612,6.453 2.691,15.308 6.603,22.249 l 0,0 c 0,0 6.672,11.525 17.781,22.635 l 0,0 c 2.761,2.76 5.81,5.076 9.083,7.004 l 0,0 c 4.038,2.38 9.293,4.03 13.685,4.469 l 0,0 c 7.123,0.713 13.986,-1.103 17.899,-4.23 l 0,0 c 4.517,-3.609 5.602,-8.034 5.629,-8.895 l 0,0 c 0.057,-1.802 -0.816,-3.574 -2.167,-4.166 l 0,0 c -0.628,-0.275 -1.058,-0.503 -1.342,-0.692 l 0,0 -5.576,4.702 c -4.342,3.366 -16.573,10.646 -29.391,1.109 l 0,0 c -13.247,-9.856 -24.634,-23.923 -26.736,-47.944 l 0,0 c -1.762,-20.133 7.748,-45.041 8.836,-46.447 l 0,0 c 1.088,-1.405 9.399,-12.396 17.998,-20.195 l 0,0 c 8.597,-7.798 15.396,-15.597 15.396,-15.597 l 0,0 c 0,0 -15.197,3.2 -21.595,3.2 l 0,0 c -6.4,0 -13.797,-4.8 -15.598,-5 l 0,0 c -0.9,-0.1 -3.649,0.249 -6.624,0.6 l 0,0 c -2.974,0.35 -6.174,0.699 -7.973,0.6 l 0,0 c -3.599,-0.2 -11.997,-4.398 -11.997,-4.398 l 0,0 c 0,0 -13.611,0.801 -13.997,-12.599 l 0,0 c -0.233,-10.415 11.397,-11.597 11.397,-11.597 l 0,0 165.967,0 c 0,0 24.994,6.998 21.795,24.795 l 0,0 c -3.2,17.797 -9.998,50.989 -35.393,82.383 l 0,0 c -18.996,20.996 -45.998,31.429 -48.833,32.94 l 0,0 c -2.867,1.528 -10.56,7.456 -12.422,9.017 l 0,0 -4.491,3.788 c 0.944,0.482 2.876,1.682 3.25,3.184 l 0,0 c 0.454,1.811 0.524,4.6 -2.538,8.444 l 0,0 c -3.392,4.26 -8.123,6.945 -13.476,7.835 l 0,0 c -1.562,0.26 -3.15,0.383 -4.746,0.383 l 0,0 c -4.29,0 -8.637,-0.89 -12.681,-2.405"
               style="fill:url(#linearGradient70);stroke:none"
               id="path78"
               inkscape:connector-curvature="0" /></g></g></g></g><g
       id="g80"><g
         id="g82"
         clip-path="url(#clipPath84)"><g
           id="g88"><g
             id="g90"><path
               d="m 88.141,158.798 c -0.996,0 -1.801,-0.807 -1.801,-1.801 l 0,0 c 0,-0.996 0.805,-1.802 1.801,-1.802 l 0,0 390.646,0 c 0.996,0 1.802,0.806 1.802,1.802 l 0,0 c 0,0.994 -0.806,1.801 -1.802,1.801 l 0,0 -390.646,0 z"
               style="fill:url(#linearGradient92);stroke:none"
               id="path100"
               inkscape:connector-curvature="0" /></g></g></g></g></g></svg>