<?xml version="1.0" encoding="UTF-8" standalone="no"?>
<!-- Created with Inkscape (http://www.inkscape.org/) -->

<svg
   xmlns:dc="http://purl.org/dc/elements/1.1/"
   xmlns:cc="http://creativecommons.org/ns#"
   xmlns:rdf="http://www.w3.org/1999/02/22-rdf-syntax-ns#"
   xmlns:svg="http://www.w3.org/2000/svg"
   xmlns="http://www.w3.org/2000/svg"
   xmlns:sodipodi="http://sodipodi.sourceforge.net/DTD/sodipodi-0.dtd"
   xmlns:inkscape="http://www.inkscape.org/namespaces/inkscape"
   id="svg2"
   version="1.1"
   inkscape:version="0.91 r13725"
   xml:space="preserve"
   width="343"
   height="88"
   viewBox="0 0 343.00001 88.000001"
   sodipodi:docname="plateblue2.svg"><metadata
     id="metadata8"><rdf:RDF><cc:Work
         rdf:about=""><dc:format>image/svg+xml</dc:format><dc:type
           rdf:resource="http://purl.org/dc/dcmitype/StillImage" /><dc:title></dc:title></cc:Work></rdf:RDF></metadata><defs
     id="defs6"><clipPath
       clipPathUnits="userSpaceOnUse"
       id="clipPath16"><path
         d="m 0,606.614 1551.097,0 L 1551.097,0 0,0 0,606.614 Z"
         id="path18"
         inkscape:connector-curvature="0" /></clipPath><clipPath
       clipPathUnits="userSpaceOnUse"
       id="clipPath40"><path
         d="m 810.72,536.904 c 0,0 2.383,-8.474 -8.474,-16.949 l 0,0 c -10.858,-8.474 -20.921,-6.885 -20.921,-6.885 l 0,0 c 0,-46.08 8.739,-86.598 15.36,-100.104 l 0,0 c 6.62,-13.506 14.035,-21.98 21.98,-27.276 l 0,0 c 7.945,-5.297 37.605,-20.392 37.605,-20.392 l 0,0 c 0,0 29.659,15.095 37.605,20.392 l 0,0 c 7.945,5.296 15.36,13.77 21.98,27.276 l 0,0 c 6.621,13.506 15.36,54.024 15.36,100.104 l 0,0 c 0,0 -10.063,-1.589 -20.921,6.885 l 0,0 c -10.858,8.475 -8.474,16.949 -8.474,16.949 l 0,0 c 0,0 -23.112,12.253 -44.563,12.253 l 0,0 c -21.45,0 -46.537,-12.253 -46.537,-12.253"
         id="path42"
         inkscape:connector-curvature="0" /></clipPath><linearGradient
       x1="0"
       y1="0"
       x2="1"
       y2="0"
       gradientUnits="userSpaceOnUse"
       gradientTransform="matrix(149.89041,0,0,-149.89041,781.32471,457.22736)"
       spreadMethod="pad"
       id="linearGradient48"><stop
         style="stop-opacity:1;stop-color:#263065"
         offset="0"
         id="stop50" /><stop
         style="stop-opacity:1;stop-color:#2f52a0"
         offset="0.5"
         id="stop52" /><stop
         style="stop-opacity:1;stop-color:#2f52a0"
         offset="0.62409689"
         id="stop54" /><stop
         style="stop-opacity:1;stop-color:#263065"
         offset="1"
         id="stop56" /></linearGradient><clipPath
       clipPathUnits="userSpaceOnUse"
       id="clipPath64"><path
         d="m 972.164,536.904 c 0,0 2.383,-8.474 -8.475,-16.949 l 0,0 c -10.857,-8.474 -20.921,-6.885 -20.921,-6.885 l 0,0 c 0,-46.08 8.739,-86.598 15.359,-100.104 l 0,0 c 6.622,-13.506 14.037,-21.98 21.982,-27.276 l 0,0 c 7.944,-5.297 37.604,-20.392 37.604,-20.392 l 0,0 c 0,0 29.659,15.095 37.605,20.392 l 0,0 c 7.945,5.296 15.36,13.77 21.98,27.276 l 0,0 c 6.621,13.506 15.36,54.024 15.36,100.104 l 0,0 c 0,0 -10.062,-1.589 -20.921,6.885 l 0,0 c -10.857,8.475 -8.474,16.949 -8.474,16.949 l 0,0 c 0,0 -23.111,12.253 -44.562,12.253 l 0,0 c -21.451,0 -46.537,-12.253 -46.537,-12.253"
         id="path66"
         inkscape:connector-curvature="0" /></clipPath><linearGradient
       x1="0"
       y1="0"
       x2="1"
       y2="0"
       gradientUnits="userSpaceOnUse"
       gradientTransform="matrix(149.89041,0,0,-149.89041,942.76801,457.22736)"
       spreadMethod="pad"
       id="linearGradient72"><stop
         style="stop-opacity:1;stop-color:#a6a8a9"
         offset="0"
         id="stop74" /><stop
         style="stop-opacity:1;stop-color:#ffffff"
         offset="0.5"
         id="stop76" /><stop
         style="stop-opacity:1;stop-color:#a6a8a9"
         offset="1"
         id="stop78" /></linearGradient><clipPath
       clipPathUnits="userSpaceOnUse"
       id="clipPath86"><path
         d="m 0,606.614 1551.097,0 L 1551.097,0 0,0 0,606.614 Z"
         id="path88"
         inkscape:connector-curvature="0" /></clipPath><pattern
       patternTransform="matrix(0.584457,0,0,0.584457,-3959.6704,3212.126)"
       patternUnits="userSpaceOnUse"
       x="0"
       y="0"
       width="28.8003"
       height="28.7998"
       id="pattern92"><g
         transform="translate(28.8003,-0.7197)"
         id="g94"><path
           d="M 0,0 C 0.396,0 0.72,0.323 0.72,0.72 0.72,1.118 0.396,1.439 0,1.439 -0.398,1.439 -0.72,1.118 -0.72,0.72 -0.72,0.323 -0.398,0 0,0"
           style="fill:#1d1d1b;fill-opacity:1;fill-rule:nonzero;stroke:none"
           id="path96" /></g><g
         transform="translate(14.3999,-0.7197)"
         id="g98"><path
           d="M 0,0 C 0.398,0 0.72,0.323 0.72,0.72 0.72,1.118 0.398,1.439 0,1.439 -0.397,1.439 -0.72,1.118 -0.72,0.72 -0.72,0.323 -0.397,0 0,0"
           style="fill:#1d1d1b;fill-opacity:1;fill-rule:nonzero;stroke:none"
           id="path100" /></g><g
         transform="translate(28.8003,13.6797)"
         id="g102"><path
           d="M 0,0 C 0.396,0 0.72,0.323 0.72,0.721 0.72,1.119 0.396,1.44 0,1.44 -0.398,1.44 -0.72,1.119 -0.72,0.721 -0.72,0.323 -0.398,0 0,0"
           style="fill:#1d1d1b;fill-opacity:1;fill-rule:nonzero;stroke:none"
           id="path104" /></g><g
         transform="translate(14.3999,13.6797)"
         id="g106"><path
           d="M 0,0 C 0.398,0 0.72,0.323 0.72,0.721 0.72,1.119 0.398,1.44 0,1.44 -0.397,1.44 -0.72,1.119 -0.72,0.721 -0.72,0.323 -0.397,0 0,0"
           style="fill:#1d1d1b;fill-opacity:1;fill-rule:nonzero;stroke:none"
           id="path108" /></g><g
         transform="translate(7.2002,6.4805)"
         id="g110"><path
           d="M 0,0 C 0.397,0 0.72,0.322 0.72,0.72 0.72,1.118 0.397,1.439 0,1.439 -0.398,1.439 -0.72,1.118 -0.72,0.72 -0.72,0.322 -0.398,0 0,0"
           style="fill:#1d1d1b;fill-opacity:1;fill-rule:nonzero;stroke:none"
           id="path112" /></g><g
         transform="translate(21.6001,6.4805)"
         id="g114"><path
           d="M 0,0 C 0.398,0 0.72,0.322 0.72,0.72 0.72,1.118 0.398,1.439 0,1.439 -0.398,1.439 -0.72,1.118 -0.72,0.72 -0.72,0.322 -0.398,0 0,0"
           style="fill:#1d1d1b;fill-opacity:1;fill-rule:nonzero;stroke:none"
           id="path116" /></g><g
         transform="translate(7.2002,20.8809)"
         id="g118"><path
           d="m 0,0 c 0.397,0 0.72,0.322 0.72,0.719 0,0.398 -0.323,0.72 -0.72,0.72 -0.398,0 -0.72,-0.322 -0.72,-0.72 C -0.72,0.322 -0.398,0 0,0"
           style="fill:#1d1d1b;fill-opacity:1;fill-rule:nonzero;stroke:none"
           id="path120" /></g><g
         transform="translate(21.6001,20.8809)"
         id="g122"><path
           d="m 0,0 c 0.398,0 0.72,0.322 0.72,0.719 0,0.398 -0.322,0.72 -0.72,0.72 -0.398,0 -0.72,-0.322 -0.72,-0.72 C -0.72,0.322 -0.398,0 0,0"
           style="fill:#1d1d1b;fill-opacity:1;fill-rule:nonzero;stroke:none"
           id="path124" /></g><g
         transform="translate(0,-0.7197)"
         id="g126"><path
           d="M 0,0 C 0.396,0 0.72,0.323 0.72,0.72 0.72,1.118 0.396,1.439 0,1.439 -0.398,1.439 -0.72,1.118 -0.72,0.72 -0.72,0.323 -0.398,0 0,0"
           style="fill:#1d1d1b;fill-opacity:1;fill-rule:nonzero;stroke:none"
           id="path128" /></g><g
         transform="translate(0,13.6797)"
         id="g130"><path
           d="M 0,0 C 0.396,0 0.72,0.323 0.72,0.721 0.72,1.119 0.396,1.44 0,1.44 -0.398,1.44 -0.72,1.119 -0.72,0.721 -0.72,0.323 -0.398,0 0,0"
           style="fill:#1d1d1b;fill-opacity:1;fill-rule:nonzero;stroke:none"
           id="path132" /></g><g
         transform="translate(28.8003,28.0801)"
         id="g134"><path
           d="M 0,0 C 0.396,0 0.72,0.323 0.72,0.72 0.72,1.118 0.396,1.439 0,1.439 -0.398,1.439 -0.72,1.118 -0.72,0.72 -0.72,0.323 -0.398,0 0,0"
           style="fill:#1d1d1b;fill-opacity:1;fill-rule:nonzero;stroke:none"
           id="path136" /></g><g
         transform="translate(14.3999,28.0801)"
         id="g138"><path
           d="M 0,0 C 0.398,0 0.72,0.323 0.72,0.72 0.72,1.118 0.398,1.439 0,1.439 -0.397,1.439 -0.72,1.118 -0.72,0.72 -0.72,0.323 -0.397,0 0,0"
           style="fill:#1d1d1b;fill-opacity:1;fill-rule:nonzero;stroke:none"
           id="path140" /></g><g
         transform="translate(0,28.0801)"
         id="g142"><path
           d="M 0,0 C 0.396,0 0.72,0.323 0.72,0.72 0.72,1.118 0.396,1.439 0,1.439 -0.398,1.439 -0.72,1.118 -0.72,0.72 -0.72,0.323 -0.398,0 0,0"
           style="fill:#1d1d1b;fill-opacity:1;fill-rule:nonzero;stroke:none"
           id="path144" /></g></pattern><pattern
       patternTransform="matrix(0.584457,0,0,0.584457,-3986.9704,3211.266)"
       patternUnits="userSpaceOnUse"
       x="0"
       y="0"
       width="170.079"
       height="56.6929"
       id="pattern150"><g
         transform="translate(85.0394,-28.3465)"
         id="g152"><path
           d="m 0,0 85.039,28.346 85.04,28.347"
           style="fill:none;stroke:#a8d4ed;stroke-opacity:1;stroke-width:0.25;stroke-linecap:butt;stroke-linejoin:miter;stroke-miterlimit:10;stroke-dasharray:none"
           id="path154" /></g><g
         transform="translate(77.3085,-25.7695)"
         id="g156"><path
           d="m 0,0 85.039,28.346 85.04,28.347"
           style="fill:none;stroke:#a8d4ed;stroke-opacity:1;stroke-width:0.25;stroke-linecap:butt;stroke-linejoin:miter;stroke-miterlimit:10;stroke-dasharray:none"
           id="path158" /></g><g
         transform="translate(69.5777,-23.1926)"
         id="g160"><path
           d="m 0,0 85.039,28.346 85.04,28.347"
           style="fill:none;stroke:#a8d4ed;stroke-opacity:1;stroke-width:0.25;stroke-linecap:butt;stroke-linejoin:miter;stroke-miterlimit:10;stroke-dasharray:none"
           id="path162" /></g><g
         transform="translate(61.8468,-20.6156)"
         id="g164"><path
           d="m 0,0 85.039,28.346 85.04,28.347"
           style="fill:none;stroke:#a8d4ed;stroke-opacity:1;stroke-width:0.25;stroke-linecap:butt;stroke-linejoin:miter;stroke-miterlimit:10;stroke-dasharray:none"
           id="path166" /></g><g
         transform="translate(54.116,-18.0387)"
         id="g168"><path
           d="m 0,0 85.039,28.346 85.04,28.347"
           style="fill:none;stroke:#a8d4ed;stroke-opacity:1;stroke-width:0.25;stroke-linecap:butt;stroke-linejoin:miter;stroke-miterlimit:10;stroke-dasharray:none"
           id="path170" /></g><g
         transform="translate(46.3851,-15.4617)"
         id="g172"><path
           d="m 0,0 85.039,28.346 85.04,28.347"
           style="fill:none;stroke:#a8d4ed;stroke-opacity:1;stroke-width:0.25;stroke-linecap:butt;stroke-linejoin:miter;stroke-miterlimit:10;stroke-dasharray:none"
           id="path174" /></g><g
         transform="translate(38.6543,-12.8848)"
         id="g176"><path
           d="m 0,0 85.039,28.346 85.04,28.347"
           style="fill:none;stroke:#a8d4ed;stroke-opacity:1;stroke-width:0.25;stroke-linecap:butt;stroke-linejoin:miter;stroke-miterlimit:10;stroke-dasharray:none"
           id="path178" /></g><g
         transform="translate(30.9234,-10.3078)"
         id="g180"><path
           d="m 0,0 85.039,28.346 85.04,28.347"
           style="fill:none;stroke:#a8d4ed;stroke-opacity:1;stroke-width:0.25;stroke-linecap:butt;stroke-linejoin:miter;stroke-miterlimit:10;stroke-dasharray:none"
           id="path182" /></g><g
         transform="translate(23.1926,-7.7309)"
         id="g184"><path
           d="m 0,0 85.039,28.346 85.04,28.347"
           style="fill:none;stroke:#a8d4ed;stroke-opacity:1;stroke-width:0.25;stroke-linecap:butt;stroke-linejoin:miter;stroke-miterlimit:10;stroke-dasharray:none"
           id="path186" /></g><g
         transform="translate(15.4617,-5.1539)"
         id="g188"><path
           d="m 0,0 85.039,28.346 85.04,28.347"
           style="fill:none;stroke:#a8d4ed;stroke-opacity:1;stroke-width:0.25;stroke-linecap:butt;stroke-linejoin:miter;stroke-miterlimit:10;stroke-dasharray:none"
           id="path190" /></g><g
         transform="translate(7.7309,-2.577)"
         id="g192"><path
           d="m 0,0 85.039,28.346 85.04,28.347"
           style="fill:none;stroke:#a8d4ed;stroke-opacity:1;stroke-width:0.25;stroke-linecap:butt;stroke-linejoin:miter;stroke-miterlimit:10;stroke-dasharray:none"
           id="path194" /></g><path
         d="m 0,0 85.039,28.346 85.04,28.347"
         style="fill:none;stroke:#a8d4ed;stroke-opacity:1;stroke-width:0.25;stroke-linecap:butt;stroke-linejoin:miter;stroke-miterlimit:10;stroke-dasharray:none"
         id="path196" /><g
         transform="translate(-7.7309,2.577)"
         id="g198"><path
           d="m 0,0 85.039,28.346 85.04,28.347"
           style="fill:none;stroke:#a8d4ed;stroke-opacity:1;stroke-width:0.25;stroke-linecap:butt;stroke-linejoin:miter;stroke-miterlimit:10;stroke-dasharray:none"
           id="path200" /></g><g
         transform="translate(-15.4617,5.1539)"
         id="g202"><path
           d="m 0,0 85.039,28.346 85.04,28.347"
           style="fill:none;stroke:#a8d4ed;stroke-opacity:1;stroke-width:0.25;stroke-linecap:butt;stroke-linejoin:miter;stroke-miterlimit:10;stroke-dasharray:none"
           id="path204" /></g><g
         transform="translate(-23.1926,7.7309)"
         id="g206"><path
           d="m 0,0 85.039,28.346 85.04,28.347"
           style="fill:none;stroke:#a8d4ed;stroke-opacity:1;stroke-width:0.25;stroke-linecap:butt;stroke-linejoin:miter;stroke-miterlimit:10;stroke-dasharray:none"
           id="path208" /></g><g
         transform="translate(-30.9234,10.3078)"
         id="g210"><path
           d="m 0,0 85.039,28.346 85.04,28.347"
           style="fill:none;stroke:#a8d4ed;stroke-opacity:1;stroke-width:0.25;stroke-linecap:butt;stroke-linejoin:miter;stroke-miterlimit:10;stroke-dasharray:none"
           id="path212" /></g><g
         transform="translate(-38.6543,12.8848)"
         id="g214"><path
           d="m 0,0 85.039,28.346 85.04,28.347"
           style="fill:none;stroke:#a8d4ed;stroke-opacity:1;stroke-width:0.25;stroke-linecap:butt;stroke-linejoin:miter;stroke-miterlimit:10;stroke-dasharray:none"
           id="path216" /></g><g
         transform="translate(-46.3851,15.4617)"
         id="g218"><path
           d="m 0,0 85.039,28.346 85.04,28.347"
           style="fill:none;stroke:#a8d4ed;stroke-opacity:1;stroke-width:0.25;stroke-linecap:butt;stroke-linejoin:miter;stroke-miterlimit:10;stroke-dasharray:none"
           id="path220" /></g><g
         transform="translate(-54.116,18.0387)"
         id="g222"><path
           d="m 0,0 85.039,28.346 85.04,28.347"
           style="fill:none;stroke:#a8d4ed;stroke-opacity:1;stroke-width:0.25;stroke-linecap:butt;stroke-linejoin:miter;stroke-miterlimit:10;stroke-dasharray:none"
           id="path224" /></g><g
         transform="translate(-61.8468,20.6156)"
         id="g226"><path
           d="m 0,0 85.039,28.346 85.04,28.347"
           style="fill:none;stroke:#a8d4ed;stroke-opacity:1;stroke-width:0.25;stroke-linecap:butt;stroke-linejoin:miter;stroke-miterlimit:10;stroke-dasharray:none"
           id="path228" /></g><g
         transform="translate(-69.5777,23.1926)"
         id="g230"><path
           d="m 0,0 85.039,28.346 85.04,28.347"
           style="fill:none;stroke:#a8d4ed;stroke-opacity:1;stroke-width:0.25;stroke-linecap:butt;stroke-linejoin:miter;stroke-miterlimit:10;stroke-dasharray:none"
           id="path232" /></g><g
         transform="translate(-77.3085,25.7695)"
         id="g234"><path
           d="m 0,0 85.039,28.346 85.04,28.347"
           style="fill:none;stroke:#a8d4ed;stroke-opacity:1;stroke-width:0.25;stroke-linecap:butt;stroke-linejoin:miter;stroke-miterlimit:10;stroke-dasharray:none"
           id="path236" /></g><g
         transform="translate(-85.0394,28.3465)"
         id="g238"><path
           d="m 0,0 85.039,28.346 85.04,28.347"
           style="fill:none;stroke:#a8d4ed;stroke-opacity:1;stroke-width:0.25;stroke-linecap:butt;stroke-linejoin:miter;stroke-miterlimit:10;stroke-dasharray:none"
           id="path240" /></g></pattern><clipPath
       clipPathUnits="userSpaceOnUse"
       id="clipPath248"><path
         d="m 113.049,129.338 1324.998,0 0,127.348 -1324.998,0 0,-127.348 z"
         id="path250"
         inkscape:connector-curvature="0" /></clipPath><linearGradient
       x1="0"
       y1="0"
       x2="1"
       y2="0"
       gradientUnits="userSpaceOnUse"
       gradientTransform="matrix(1324.9979,0,0,-1324.9979,113.04932,193.01236)"
       spreadMethod="pad"
       id="linearGradient256"><stop
         style="stop-opacity:1;stop-color:#263065"
         offset="0"
         id="stop258" /><stop
         style="stop-opacity:1;stop-color:#2f52a0"
         offset="0.5"
         id="stop260" /><stop
         style="stop-opacity:1;stop-color:#2f52a0"
         offset="0.62409689"
         id="stop262" /><stop
         style="stop-opacity:1;stop-color:#263065"
         offset="1"
         id="stop264" /></linearGradient><clipPath
       clipPathUnits="userSpaceOnUse"
       id="clipPath272"><path
         d="m 124.296,242.536 c 0,-2.604 2.275,-4.716 5.08,-4.716 l 0,0 c 2.805,0 5.079,2.112 5.079,4.716 l 0,0 c 0,2.605 -2.274,4.717 -5.079,4.717 l 0,0 c -2.805,0 -5.08,-2.112 -5.08,-4.717"
         id="path274"
         inkscape:connector-curvature="0" /></clipPath><linearGradient
       x1="0"
       y1="0"
       x2="1"
       y2="0"
       gradientUnits="userSpaceOnUse"
       gradientTransform="matrix(10.158926,0,0,-10.158926,124.29665,242.53642)"
       spreadMethod="pad"
       id="linearGradient280"><stop
         style="stop-opacity:1;stop-color:#a6a8a9"
         offset="0"
         id="stop282" /><stop
         style="stop-opacity:1;stop-color:#ffffff"
         offset="0.5"
         id="stop284" /><stop
         style="stop-opacity:1;stop-color:#a6a8a9"
         offset="1"
         id="stop286" /></linearGradient><clipPath
       clipPathUnits="userSpaceOnUse"
       id="clipPath294"><path
         d="m 124.296,143.488 c 0,-2.605 2.275,-4.716 5.08,-4.716 l 0,0 c 2.805,0 5.079,2.111 5.079,4.716 l 0,0 c 0,2.605 -2.274,4.717 -5.079,4.717 l 0,0 c -2.805,0 -5.08,-2.112 -5.08,-4.717"
         id="path296"
         inkscape:connector-curvature="0" /></clipPath><linearGradient
       x1="0"
       y1="0"
       x2="1"
       y2="0"
       gradientUnits="userSpaceOnUse"
       gradientTransform="matrix(10.158926,0,0,-10.158926,124.29665,143.48817)"
       spreadMethod="pad"
       id="linearGradient302"><stop
         style="stop-opacity:1;stop-color:#a6a8a9"
         offset="0"
         id="stop304" /><stop
         style="stop-opacity:1;stop-color:#ffffff"
         offset="0.5"
         id="stop306" /><stop
         style="stop-opacity:1;stop-color:#a6a8a9"
         offset="1"
         id="stop308" /></linearGradient><clipPath
       clipPathUnits="userSpaceOnUse"
       id="clipPath316"><path
         d="m 1416.641,242.536 c 0,-2.604 2.274,-4.716 5.079,-4.716 l 0,0 c 2.805,0 5.08,2.112 5.08,4.716 l 0,0 c 0,2.605 -2.275,4.717 -5.08,4.717 l 0,0 c -2.805,0 -5.079,-2.112 -5.079,-4.717"
         id="path318"
         inkscape:connector-curvature="0" /></clipPath><linearGradient
       x1="0"
       y1="0"
       x2="1"
       y2="0"
       gradientUnits="userSpaceOnUse"
       gradientTransform="matrix(10.158705,0,0,-10.158705,1416.6411,242.53642)"
       spreadMethod="pad"
       id="linearGradient324"><stop
         style="stop-opacity:1;stop-color:#a6a8a9"
         offset="0"
         id="stop326" /><stop
         style="stop-opacity:1;stop-color:#ffffff"
         offset="0.5"
         id="stop328" /><stop
         style="stop-opacity:1;stop-color:#a6a8a9"
         offset="1"
         id="stop330" /></linearGradient><clipPath
       clipPathUnits="userSpaceOnUse"
       id="clipPath338"><path
         d="m 1416.641,143.488 c 0,-2.605 2.274,-4.716 5.079,-4.716 l 0,0 c 2.805,0 5.08,2.111 5.08,4.716 l 0,0 c 0,2.605 -2.275,4.717 -5.08,4.717 l 0,0 c -2.805,0 -5.079,-2.112 -5.079,-4.717"
         id="path340"
         inkscape:connector-curvature="0" /></clipPath><linearGradient
       x1="0"
       y1="0"
       x2="1"
       y2="0"
       gradientUnits="userSpaceOnUse"
       gradientTransform="matrix(10.158705,0,0,-10.158705,1416.6411,143.48817)"
       spreadMethod="pad"
       id="linearGradient346"><stop
         style="stop-opacity:1;stop-color:#a6a8a9"
         offset="0"
         id="stop348" /><stop
         style="stop-opacity:1;stop-color:#ffffff"
         offset="0.5"
         id="stop350" /><stop
         style="stop-opacity:1;stop-color:#a6a8a9"
         offset="1"
         id="stop352" /></linearGradient></defs><sodipodi:namedview
     pagecolor="#ffffff"
     bordercolor="#666666"
     borderopacity="1"
     objecttolerance="10"
     gridtolerance="10"
     guidetolerance="10"
     inkscape:pageopacity="0"
     inkscape:pageshadow="2"
     inkscape:window-width="3225"
     inkscape:window-height="1704"
     id="namedview4"
     showgrid="false"
     fit-margin-top="0"
     fit-margin-left="0"
     fit-margin-right="0"
     fit-margin-bottom="0"
     showborder="false"
     inkscape:showpageshadow="false"
     inkscape:zoom="6.3879339"
     inkscape:cx="133.41593"
     inkscape:cy="77.755886"
     inkscape:window-x="0"
     inkscape:window-y="41"
     inkscape:window-maximized="0"
     inkscape:current-layer="g10" /><g
     id="g10"
     inkscape:groupmode="layer"
     inkscape:label="Грифон элементы фир стиля"
     transform="matrix(1.25,0,0,-1.25,-141.31125,249.6725)"><g
       id="g244"
       transform="matrix(0.20709465,0,0,0.55281591,89.637157,57.837895)"><g
         id="g246"
         clip-path="url(#clipPath248)"><g
           id="g252"><g
             id="g254"><path
               d="m 113.049,129.338 1324.998,0 0,127.348 -1324.998,0 0,-127.348 z"
               style="fill:url(#linearGradient256);stroke:none"
               id="path266"
               inkscape:connector-curvature="0" /></g></g></g></g><g
       id="g268"
       transform="matrix(0.41114049,0,0,0.46383849,66.694041,80.505387)"><g
         id="g270"
         clip-path="url(#clipPath272)"><g
           id="g276"><g
             id="g278"><path
               d="m 124.296,242.536 c 0,-2.604 2.275,-4.716 5.08,-4.716 l 0,0 c 2.805,0 5.079,2.112 5.079,4.716 l 0,0 c 0,2.605 -2.274,4.717 -5.079,4.717 l 0,0 c -2.805,0 -5.08,-2.112 -5.08,-4.717"
               style="fill:url(#linearGradient280);stroke:none"
               id="path288"
               inkscape:connector-curvature="0" /></g></g></g></g><g
       id="g290"
       transform="matrix(0.41114049,0,0,0.46383849,66.694334,69.432026)"><g
         id="g292"
         clip-path="url(#clipPath294)"><g
           id="g298"><g
             id="g300"><path
               d="m 124.296,143.488 c 0,-2.605 2.275,-4.716 5.08,-4.716 l 0,0 c 2.805,0 5.079,2.111 5.079,4.716 l 0,0 c 0,2.605 -2.274,4.717 -5.079,4.717 l 0,0 c -2.805,0 -5.08,-2.112 -5.08,-4.717"
               style="fill:url(#linearGradient302);stroke:none"
               id="path310"
               inkscape:connector-curvature="0" /></g></g></g></g><g
       id="g312"
       transform="matrix(0.41114049,0,0,0.46383849,-204.06478,79.340976)"><g
         id="g314"
         clip-path="url(#clipPath316)"><g
           id="g320"><g
             id="g322"><path
               d="m 1416.641,242.536 c 0,-2.604 2.274,-4.716 5.079,-4.716 l 0,0 c 2.805,0 5.08,2.112 5.08,4.716 l 0,0 c 0,2.605 -2.275,4.717 -5.08,4.717 l 0,0 c -2.805,0 -5.079,-2.112 -5.079,-4.717"
               style="fill:url(#linearGradient324);stroke:none"
               id="path332"
               inkscape:connector-curvature="0" /></g></g></g></g><g
       id="g334"
       transform="matrix(0.41114049,0,0,0.46383849,-204.0649,69.706006)"><g
         id="g336"
         clip-path="url(#clipPath338)"><g
           id="g342"><g
             id="g344"><path
               d="m 1416.641,143.488 c 0,-2.605 2.274,-4.716 5.079,-4.716 l 0,0 c 2.805,0 5.08,2.111 5.08,4.716 l 0,0 c 0,2.605 -2.275,4.717 -5.08,4.717 l 0,0 c -2.805,0 -5.079,-2.112 -5.079,-4.717"
               style="fill:url(#linearGradient346);stroke:none"
               id="path354"
               inkscape:connector-curvature="0" /></g></g></g></g></g></svg>