<?xml version="1.0" encoding="UTF-8" standalone="no"?>
<!-- Created with Inkscape (http://www.inkscape.org/) -->

<svg
   xmlns:dc="http://purl.org/dc/elements/1.1/"
   xmlns:cc="http://creativecommons.org/ns#"
   xmlns:rdf="http://www.w3.org/1999/02/22-rdf-syntax-ns#"
   xmlns:svg="http://www.w3.org/2000/svg"
   xmlns="http://www.w3.org/2000/svg"
   xmlns:sodipodi="http://sodipodi.sourceforge.net/DTD/sodipodi-0.dtd"
   xmlns:inkscape="http://www.inkscape.org/namespaces/inkscape"
   id="svg2"
   version="1.1"
   inkscape:version="0.91 r13725"
   xml:space="preserve"
   width="1052.3625"
   height="744.09998"
   viewBox="0 0 1052.3625 744.09998"
   sodipodi:docname="pointswhite.svg"><metadata
     id="metadata8"><rdf:RDF><cc:Work
         rdf:about=""><dc:format>image/svg+xml</dc:format><dc:type
           rdf:resource="http://purl.org/dc/dcmitype/StillImage" /><dc:title></dc:title></cc:Work></rdf:RDF></metadata><defs
     id="defs6"><clipPath
       clipPathUnits="userSpaceOnUse"
       id="clipPath16"><path
         d="m 0,595.28 841.89,0 L 841.89,0 0,0 0,595.28 Z"
         id="path18"
         inkscape:connector-curvature="0" /></clipPath><clipPath
       clipPathUnits="userSpaceOnUse"
       id="clipPath24"><path
         d="m -5.66925,600.947 853.22825,0 0,-606.61404 -853.22825,0 0,606.61404 z"
         id="path26"
         inkscape:connector-curvature="0" /></clipPath><pattern
       patternTransform="translate(2880.59,1118.46)"
       patternUnits="userSpaceOnUse"
       x="0"
       y="0"
       width="28.8003"
       height="28.7998"
       id="pattern28"><g
         transform="translate(28.8003,-0.7197)"
         id="g30"><path
           d="M 0,0 C 0.396,0 0.72,0.323 0.72,0.72 0.72,1.118 0.396,1.439 0,1.439 -0.398,1.439 -0.72,1.118 -0.72,0.72 -0.72,0.323 -0.398,0 0,0"
           style="fill:#1d1d1b;fill-opacity:1;fill-rule:nonzero;stroke:none"
           id="path32" /></g><g
         transform="translate(14.3999,-0.7197)"
         id="g34"><path
           d="M 0,0 C 0.398,0 0.72,0.323 0.72,0.72 0.72,1.118 0.398,1.439 0,1.439 -0.397,1.439 -0.72,1.118 -0.72,0.72 -0.72,0.323 -0.397,0 0,0"
           style="fill:#1d1d1b;fill-opacity:1;fill-rule:nonzero;stroke:none"
           id="path36" /></g><g
         transform="translate(28.8003,13.6797)"
         id="g38"><path
           d="M 0,0 C 0.396,0 0.72,0.323 0.72,0.721 0.72,1.119 0.396,1.44 0,1.44 -0.398,1.44 -0.72,1.119 -0.72,0.721 -0.72,0.323 -0.398,0 0,0"
           style="fill:#1d1d1b;fill-opacity:1;fill-rule:nonzero;stroke:none"
           id="path40" /></g><g
         transform="translate(14.3999,13.6797)"
         id="g42"><path
           d="M 0,0 C 0.398,0 0.72,0.323 0.72,0.721 0.72,1.119 0.398,1.44 0,1.44 -0.397,1.44 -0.72,1.119 -0.72,0.721 -0.72,0.323 -0.397,0 0,0"
           style="fill:#1d1d1b;fill-opacity:1;fill-rule:nonzero;stroke:none"
           id="path44" /></g><g
         transform="translate(7.2002,6.4805)"
         id="g46"><path
           d="M 0,0 C 0.397,0 0.72,0.322 0.72,0.72 0.72,1.118 0.397,1.439 0,1.439 -0.398,1.439 -0.72,1.118 -0.72,0.72 -0.72,0.322 -0.398,0 0,0"
           style="fill:#1d1d1b;fill-opacity:1;fill-rule:nonzero;stroke:none"
           id="path48" /></g><g
         transform="translate(21.6001,6.4805)"
         id="g50"><path
           d="M 0,0 C 0.398,0 0.72,0.322 0.72,0.72 0.72,1.118 0.398,1.439 0,1.439 -0.398,1.439 -0.72,1.118 -0.72,0.72 -0.72,0.322 -0.398,0 0,0"
           style="fill:#1d1d1b;fill-opacity:1;fill-rule:nonzero;stroke:none"
           id="path52" /></g><g
         transform="translate(7.2002,20.8809)"
         id="g54"><path
           d="m 0,0 c 0.397,0 0.72,0.322 0.72,0.719 0,0.398 -0.323,0.72 -0.72,0.72 -0.398,0 -0.72,-0.322 -0.72,-0.72 C -0.72,0.322 -0.398,0 0,0"
           style="fill:#1d1d1b;fill-opacity:1;fill-rule:nonzero;stroke:none"
           id="path56" /></g><g
         transform="translate(21.6001,20.8809)"
         id="g58"><path
           d="m 0,0 c 0.398,0 0.72,0.322 0.72,0.719 0,0.398 -0.322,0.72 -0.72,0.72 -0.398,0 -0.72,-0.322 -0.72,-0.72 C -0.72,0.322 -0.398,0 0,0"
           style="fill:#1d1d1b;fill-opacity:1;fill-rule:nonzero;stroke:none"
           id="path60" /></g><g
         transform="translate(0,-0.7197)"
         id="g62"><path
           d="M 0,0 C 0.396,0 0.72,0.323 0.72,0.72 0.72,1.118 0.396,1.439 0,1.439 -0.398,1.439 -0.72,1.118 -0.72,0.72 -0.72,0.323 -0.398,0 0,0"
           style="fill:#1d1d1b;fill-opacity:1;fill-rule:nonzero;stroke:none"
           id="path64" /></g><g
         transform="translate(0,13.6797)"
         id="g66"><path
           d="M 0,0 C 0.396,0 0.72,0.323 0.72,0.721 0.72,1.119 0.396,1.44 0,1.44 -0.398,1.44 -0.72,1.119 -0.72,0.721 -0.72,0.323 -0.398,0 0,0"
           style="fill:#1d1d1b;fill-opacity:1;fill-rule:nonzero;stroke:none"
           id="path68" /></g><g
         transform="translate(28.8003,28.0801)"
         id="g70"><path
           d="M 0,0 C 0.396,0 0.72,0.323 0.72,0.72 0.72,1.118 0.396,1.439 0,1.439 -0.398,1.439 -0.72,1.118 -0.72,0.72 -0.72,0.323 -0.398,0 0,0"
           style="fill:#1d1d1b;fill-opacity:1;fill-rule:nonzero;stroke:none"
           id="path72" /></g><g
         transform="translate(14.3999,28.0801)"
         id="g74"><path
           d="M 0,0 C 0.398,0 0.72,0.323 0.72,0.72 0.72,1.118 0.398,1.439 0,1.439 -0.397,1.439 -0.72,1.118 -0.72,0.72 -0.72,0.323 -0.397,0 0,0"
           style="fill:#1d1d1b;fill-opacity:1;fill-rule:nonzero;stroke:none"
           id="path76" /></g><g
         transform="translate(0,28.0801)"
         id="g78"><path
           d="M 0,0 C 0.396,0 0.72,0.323 0.72,0.72 0.72,1.118 0.396,1.439 0,1.439 -0.398,1.439 -0.72,1.118 -0.72,0.72 -0.72,0.323 -0.398,0 0,0"
           style="fill:#1d1d1b;fill-opacity:1;fill-rule:nonzero;stroke:none"
           id="path80" /></g></pattern></defs><sodipodi:namedview
     pagecolor="#ffffff"
     bordercolor="#666666"
     borderopacity="1"
     objecttolerance="10"
     gridtolerance="10"
     guidetolerance="10"
     inkscape:pageopacity="0"
     inkscape:pageshadow="2"
     inkscape:window-width="3170"
     inkscape:window-height="1663"
     id="namedview4"
     showgrid="false"
     inkscape:zoom="1.2686467"
     inkscape:cx="262.7617"
     inkscape:cy="495.79714"
     inkscape:window-x="241"
     inkscape:window-y="155"
     inkscape:window-maximized="0"
     inkscape:current-layer="g14"
     fit-margin-right="0"
     fit-margin-bottom="0"
     inkscape:showpageshadow="false"
     fit-margin-top="0"
     fit-margin-left="0" /><g
     id="g10"
     inkscape:groupmode="layer"
     inkscape:label="Грифон элементы фир стиля"
     transform="matrix(1.25,0,0,-1.25,0,744.1)"><g
       id="g12"><g
         id="g14"
         clip-path="url(#clipPath16)"><g
           id="g20"><g
             id="g22" /><g
             id="g82"><g
               clip-path="url(#clipPath24)"
               id="g84"><path
                 d="m 847.559,-5.667 -853.228,0 0,606.614 853.228,0 0,-606.614 z"
                 style="fill:url(#pattern28);fill-opacity:1;fill-rule:nonzero;stroke:none"
                 id="path86"
                 inkscape:connector-curvature="0" /></g></g></g></g></g></g></svg>