<?xml version="1.0" encoding="UTF-8" standalone="no"?>
<!-- Created with Inkscape (http://www.inkscape.org/) -->

<svg
   xmlns:dc="http://purl.org/dc/elements/1.1/"
   xmlns:cc="http://creativecommons.org/ns#"
   xmlns:rdf="http://www.w3.org/1999/02/22-rdf-syntax-ns#"
   xmlns:svg="http://www.w3.org/2000/svg"
   xmlns="http://www.w3.org/2000/svg"
   xmlns:sodipodi="http://sodipodi.sourceforge.net/DTD/sodipodi-0.dtd"
   xmlns:inkscape="http://www.inkscape.org/namespaces/inkscape"
   id="svg2"
   version="1.1"
   inkscape:version="0.91 r13725"
   xml:space="preserve"
   width="1052.3625"
   height="744.09998"
   viewBox="0 0 1052.3625 744.09998"
   sodipodi:docname="pointswhite2.svg"><metadata
     id="metadata8"><rdf:RDF><cc:Work
         rdf:about=""><dc:format>image/svg+xml</dc:format><dc:type
           rdf:resource="http://purl.org/dc/dcmitype/StillImage" /><dc:title></dc:title></cc:Work></rdf:RDF></metadata><defs
     id="defs6"><clipPath
       clipPathUnits="userSpaceOnUse"
       id="clipPath16"><path
         d="m 0,0 841.89,0 0,595.28 L 0,595.28 0,0 Z"
         id="path18"
         inkscape:connector-curvature="0" /></clipPath><clipPath
       clipPathUnits="userSpaceOnUse"
       id="clipPath142"><path
         d="m 0,595.28 841.89,0 L 841.89,0 0,0 0,595.28 Z"
         id="path144"
         inkscape:connector-curvature="0" /></clipPath><clipPath
       clipPathUnits="userSpaceOnUse"
       id="clipPath150"><path
         d="m -5.66901,600.947 853.22801,0 0,-606.61402 -853.22801,0 0,606.61402 z"
         id="path152"
         inkscape:connector-curvature="0" /></clipPath><pattern
       patternTransform="translate(-78.3169,1242.86)"
       patternUnits="userSpaceOnUse"
       x="0"
       y="0"
       width="28.8003"
       height="28.7998"
       id="pattern154"><g
         transform="translate(28.8003,-0.7197)"
         id="g156"><path
           d="M 0,0 C 0.396,0 0.72,0.323 0.72,0.72 0.72,1.118 0.396,1.439 0,1.439 -0.398,1.439 -0.72,1.118 -0.72,0.72 -0.72,0.323 -0.398,0 0,0"
           style="fill:#1d1d1b;fill-opacity:1;fill-rule:nonzero;stroke:none"
           id="path158" /></g><g
         transform="translate(14.3999,-0.7197)"
         id="g160"><path
           d="M 0,0 C 0.398,0 0.72,0.323 0.72,0.72 0.72,1.118 0.398,1.439 0,1.439 -0.397,1.439 -0.72,1.118 -0.72,0.72 -0.72,0.323 -0.397,0 0,0"
           style="fill:#1d1d1b;fill-opacity:1;fill-rule:nonzero;stroke:none"
           id="path162" /></g><g
         transform="translate(28.8003,13.6797)"
         id="g164"><path
           d="M 0,0 C 0.396,0 0.72,0.323 0.72,0.721 0.72,1.119 0.396,1.44 0,1.44 -0.398,1.44 -0.72,1.119 -0.72,0.721 -0.72,0.323 -0.398,0 0,0"
           style="fill:#1d1d1b;fill-opacity:1;fill-rule:nonzero;stroke:none"
           id="path166" /></g><g
         transform="translate(14.3999,13.6797)"
         id="g168"><path
           d="M 0,0 C 0.398,0 0.72,0.323 0.72,0.721 0.72,1.119 0.398,1.44 0,1.44 -0.397,1.44 -0.72,1.119 -0.72,0.721 -0.72,0.323 -0.397,0 0,0"
           style="fill:#1d1d1b;fill-opacity:1;fill-rule:nonzero;stroke:none"
           id="path170" /></g><g
         transform="translate(7.2002,6.4805)"
         id="g172"><path
           d="M 0,0 C 0.397,0 0.72,0.322 0.72,0.72 0.72,1.118 0.397,1.439 0,1.439 -0.398,1.439 -0.72,1.118 -0.72,0.72 -0.72,0.322 -0.398,0 0,0"
           style="fill:#1d1d1b;fill-opacity:1;fill-rule:nonzero;stroke:none"
           id="path174" /></g><g
         transform="translate(21.6001,6.4805)"
         id="g176"><path
           d="M 0,0 C 0.398,0 0.72,0.322 0.72,0.72 0.72,1.118 0.398,1.439 0,1.439 -0.398,1.439 -0.72,1.118 -0.72,0.72 -0.72,0.322 -0.398,0 0,0"
           style="fill:#1d1d1b;fill-opacity:1;fill-rule:nonzero;stroke:none"
           id="path178" /></g><g
         transform="translate(7.2002,20.8809)"
         id="g180"><path
           d="m 0,0 c 0.397,0 0.72,0.322 0.72,0.719 0,0.398 -0.323,0.72 -0.72,0.72 -0.398,0 -0.72,-0.322 -0.72,-0.72 C -0.72,0.322 -0.398,0 0,0"
           style="fill:#1d1d1b;fill-opacity:1;fill-rule:nonzero;stroke:none"
           id="path182" /></g><g
         transform="translate(21.6001,20.8809)"
         id="g184"><path
           d="m 0,0 c 0.398,0 0.72,0.322 0.72,0.719 0,0.398 -0.322,0.72 -0.72,0.72 -0.398,0 -0.72,-0.322 -0.72,-0.72 C -0.72,0.322 -0.398,0 0,0"
           style="fill:#1d1d1b;fill-opacity:1;fill-rule:nonzero;stroke:none"
           id="path186" /></g><g
         transform="translate(0,-0.7197)"
         id="g188"><path
           d="M 0,0 C 0.396,0 0.72,0.323 0.72,0.72 0.72,1.118 0.396,1.439 0,1.439 -0.398,1.439 -0.72,1.118 -0.72,0.72 -0.72,0.323 -0.398,0 0,0"
           style="fill:#1d1d1b;fill-opacity:1;fill-rule:nonzero;stroke:none"
           id="path190" /></g><g
         transform="translate(0,13.6797)"
         id="g192"><path
           d="M 0,0 C 0.396,0 0.72,0.323 0.72,0.721 0.72,1.119 0.396,1.44 0,1.44 -0.398,1.44 -0.72,1.119 -0.72,0.721 -0.72,0.323 -0.398,0 0,0"
           style="fill:#1d1d1b;fill-opacity:1;fill-rule:nonzero;stroke:none"
           id="path194" /></g><g
         transform="translate(28.8003,28.0801)"
         id="g196"><path
           d="M 0,0 C 0.396,0 0.72,0.323 0.72,0.72 0.72,1.118 0.396,1.439 0,1.439 -0.398,1.439 -0.72,1.118 -0.72,0.72 -0.72,0.323 -0.398,0 0,0"
           style="fill:#1d1d1b;fill-opacity:1;fill-rule:nonzero;stroke:none"
           id="path198" /></g><g
         transform="translate(14.3999,28.0801)"
         id="g200"><path
           d="M 0,0 C 0.398,0 0.72,0.323 0.72,0.72 0.72,1.118 0.398,1.439 0,1.439 -0.397,1.439 -0.72,1.118 -0.72,0.72 -0.72,0.323 -0.397,0 0,0"
           style="fill:#1d1d1b;fill-opacity:1;fill-rule:nonzero;stroke:none"
           id="path202" /></g><g
         transform="translate(0,28.0801)"
         id="g204"><path
           d="M 0,0 C 0.396,0 0.72,0.323 0.72,0.72 0.72,1.118 0.396,1.439 0,1.439 -0.398,1.439 -0.72,1.118 -0.72,0.72 -0.72,0.323 -0.398,0 0,0"
           style="fill:#1d1d1b;fill-opacity:1;fill-rule:nonzero;stroke:none"
           id="path206" /></g></pattern></defs><sodipodi:namedview
     pagecolor="#ffffff"
     bordercolor="#666666"
     borderopacity="1"
     objecttolerance="10"
     gridtolerance="10"
     guidetolerance="10"
     inkscape:pageopacity="0"
     inkscape:pageshadow="2"
     inkscape:window-width="3200"
     inkscape:window-height="1747"
     id="namedview4"
     showgrid="false"
     fit-margin-top="0"
     fit-margin-left="0"
     fit-margin-right="0"
     fit-margin-bottom="0"
     inkscape:showpageshadow="false"
     showborder="false"
     inkscape:zoom="1.7941374"
     inkscape:cx="473.40968"
     inkscape:cy="367.54586"
     inkscape:window-x="0"
     inkscape:window-y="41"
     inkscape:window-maximized="0"
     inkscape:current-layer="g10" /><g
     id="g10"
     inkscape:groupmode="layer"
     inkscape:label="Грифон элементы фир стиля"
     transform="matrix(1.25,0,0,-1.25,50.163383,744.1)"><g
       id="g138"
       transform="translate(-40.130706,0)"><g
         id="g140"
         clip-path="url(#clipPath142)"><g
           id="g146"><g
             id="g148" /><g
             id="g208"><g
               clip-path="url(#clipPath150)"
               id="g210"><path
                 d="m 847.559,-5.667 -853.228,0 0,606.614 853.228,0 0,-606.614 z"
                 style="fill:url(#pattern154);fill-opacity:1;fill-rule:nonzero;stroke:none"
                 id="path212"
                 inkscape:connector-curvature="0" /></g></g></g></g></g></g></svg>