<?xml version="1.0" encoding="UTF-8" standalone="no"?>
<!-- Created with Inkscape (http://www.inkscape.org/) -->

<svg
   xmlns:dc="http://purl.org/dc/elements/1.1/"
   xmlns:cc="http://creativecommons.org/ns#"
   xmlns:rdf="http://www.w3.org/1999/02/22-rdf-syntax-ns#"
   xmlns:svg="http://www.w3.org/2000/svg"
   xmlns="http://www.w3.org/2000/svg"
   xmlns:sodipodi="http://sodipodi.sourceforge.net/DTD/sodipodi-0.dtd"
   xmlns:inkscape="http://www.inkscape.org/namespaces/inkscape"
   id="svg2"
   version="1.1"
   inkscape:version="0.91 r13725"
   xml:space="preserve"
   width="1003.55"
   height="271.60001"
   viewBox="0 0 1003.55 271.60001"
   sodipodi:docname="topimage4.svg"><metadata
     id="metadata8"><rdf:RDF><cc:Work
         rdf:about=""><dc:format>image/svg+xml</dc:format><dc:type
           rdf:resource="http://purl.org/dc/dcmitype/StillImage" /><dc:title></dc:title></cc:Work></rdf:RDF></metadata><defs
     id="defs6"><clipPath
       clipPathUnits="userSpaceOnUse"
       id="clipPath16"><path
         d="m 0,0 2040.944,0 0,694.488 L 0,694.488 0,0 Z"
         id="path18"
         inkscape:connector-curvature="0" /></clipPath><linearGradient
       x1="0"
       y1="0"
       x2="1"
       y2="0"
       gradientUnits="userSpaceOnUse"
       gradientTransform="matrix(2040.9448,0,0,-2040.9448,0,347.24387)"
       spreadMethod="pad"
       id="linearGradient24"><stop
         style="stop-opacity:1;stop-color:#263065"
         offset="0"
         id="stop26" /><stop
         style="stop-opacity:1;stop-color:#2f52a0"
         offset="0.5"
         id="stop28" /><stop
         style="stop-opacity:1;stop-color:#2f52a0"
         offset="0.62409689"
         id="stop30" /><stop
         style="stop-opacity:1;stop-color:#263065"
         offset="1"
         id="stop32" /></linearGradient><clipPath
       clipPathUnits="userSpaceOnUse"
       id="clipPath40"><path
         d="m 1498.561,457.478 0,-82.471 -115.559,0 0,82.471 -49.545,0 0,-214.644 49.545,0 0,82.628 115.559,0 0,-82.628 49.546,0 0,214.644 -49.546,0 z m -401.496,-214.644 214.649,0 0,214.644 -214.649,0 0,-214.644 z m 49.545,165.099 115.56,0 0,-115.553 -115.56,0 0,115.553 z m -174.413,49.545 -49.552,0 -102.969,0 0,-132.016 102.969,0 0,-82.628 49.552,0 0,82.628 102.97,0 0,132.016 -102.97,0 z m 0,-49.545 53.425,0 0,-32.927 -53.425,0 0,32.927 z m -102.977,0 53.425,0 0,-32.927 -53.425,0 0,32.927 z m -121.613,49.545 -114.935,-137.92 0,137.92 -49.541,0 0,-214.644 50.167,0 114.934,138.077 0,-138.077 49.545,0 0,214.644 -50.17,0 z m -400.869,0 0,-214.644 49.546,0 0,82.628 165.101,0 0,132.016 -214.647,0 z m 49.546,-49.545 115.556,0 0,-32.927 -115.556,0 0,32.927 z m -285.933,49.545 0,-214.644 49.545,0 0,165.099 165.101,0 0,49.545 -214.646,0 z m 1345.722,-242.999 0,-90.452 20.876,0 0,34.82 48.692,0 0,-34.82 20.877,0 0,90.452 -90.445,0 z m 20.876,-20.884 48.692,0 0,-13.872 -48.692,0 0,13.872 z m -50.248,20.884 0,-34.755 -48.692,0 0,34.755 -20.877,0 0,-90.452 20.877,0 0,34.82 48.692,0 0,-34.82 20.877,0 0,90.452 -20.877,0 z m -168.509,-90.452 90.445,0 0,90.452 -90.445,0 0,-90.452 z m 20.877,69.568 48.692,0 0,-48.692 -48.692,0 0,48.692 z m -119.823,20.884 0,-90.452 20.876,0 0,34.82 69.575,0 0,55.632 -90.451,0 z m 20.876,-20.884 48.692,0 0,-13.872 -48.692,0 0,13.872 z m -119.817,-69.568 90.452,0 0,90.452 -90.452,0 0,-90.452 z m 20.877,69.568 48.692,0 0,-48.692 -48.692,0 0,48.692 z m -55.157,20.884 -19.763,-27.426 -19.829,27.426 -25.719,0 32.652,-45.23 -32.652,-45.222 25.719,0 19.829,27.425 19.763,-27.425 25.791,0 -32.659,45.222 32.659,45.23 -25.791,0 z m -164.258,-90.452 90.452,0 0,90.452 -90.452,0 0,-90.452 z m 20.876,69.568 48.692,0 0,-48.692 -48.692,0 0,48.692 z m -176.945,20.884 0,-90.452 20.876,0 0,34.82 48.692,0 0,-34.82 20.883,0 0,90.452 -90.451,0 z m 20.876,-20.884 48.692,0 0,-13.872 -48.692,0 0,13.872 z m -50.247,20.884 0,-24.353 c 0,-2.877 -1.023,-5.344 -3.073,-7.395 l 0,0 c -2.012,-2.005 -4.453,-3.007 -7.331,-3.007 l 0,0 -38.289,0 0,34.755 -20.876,0 0,-90.452 20.876,0 0,34.82 38.289,0 c 2.833,0 5.28,-1.028 7.331,-3.079 l 0,0 c 2.05,-2.051 3.073,-4.518 3.073,-7.395 l 0,0 0,-24.346 20.882,0 0,24.346 c 0,7.942 -2.662,14.9 -7.987,20.876 l 0,0 c 5.325,5.976 7.987,12.942 7.987,20.877 l 0,0 0,24.353 -20.882,0 z m -168.513,0 0,-90.452 90.448,0 0,20.877 -69.571,0 0,13.943 69.571,0 0,20.877 -69.571,0 0,13.871 69.571,0 0,20.884 -90.448,0 z m -29.371,0 -48.693,0 -20.876,0 0,-90.452 20.876,0 0,69.568 48.693,0 0,-69.568 20.879,0 0,90.452 -20.879,0 z m -98.941,0 -72.055,0 0,-20.884 72.055,0 0,-3.469 c 0,-2.877 -1.025,-5.344 -3.075,-7.395 l 0,0 c -2.005,-2.005 -4.45,-3.007 -7.331,-3.007 l 0,0 -38.287,0 0,-20.877 38.287,0 c 2.839,0 5.28,-1.028 7.331,-3.079 l 0,0 c 2.05,-2.051 3.075,-4.518 3.075,-7.395 l 0,0 0,-3.469 -72.055,0 0,-20.877 72.055,0 20.88,0 0,24.346 c 0,7.942 -2.662,14.9 -7.985,20.876 l 0,0 c 5.323,5.976 7.985,12.942 7.985,20.877 l 0,0 0,24.353 -20.88,0 z m -171.064,0 0,-90.452 90.448,0 0,20.877 -69.571,0 0,13.943 69.571,0 0,20.877 -69.571,0 0,13.871 69.571,0 0,20.884 -90.448,0 z m -78.064,0 -20.876,0 0,-90.452 20.876,0 69.573,0 0,55.632 -69.573,0 0,13.936 69.573,0 0,20.884 -69.573,0 z m 0,-55.696 48.692,0 0,-13.879 -48.692,0 0,13.879 z m 682.674,-1.909 28.65,0 0,28.656 -28.65,0 0,-28.656 z"
         id="path42"
         inkscape:connector-curvature="0" /></clipPath><linearGradient
       x1="0"
       y1="0"
       x2="1"
       y2="0"
       gradientUnits="userSpaceOnUse"
       gradientTransform="matrix(1438.6091,0,0,-1438.6091,109.49757,290.75241)"
       spreadMethod="pad"
       id="linearGradient48"><stop
         style="stop-opacity:1;stop-color:#a6a8a9"
         offset="0"
         id="stop50" /><stop
         style="stop-opacity:1;stop-color:#ffffff"
         offset="0.5"
         id="stop52" /><stop
         style="stop-opacity:1;stop-color:#a6a8a9"
         offset="1"
         id="stop54" /></linearGradient><clipPath
       clipPathUnits="userSpaceOnUse"
       id="clipPath62"><path
         d="m 1854.66,605.042 c 0,0 -43.407,-66.619 -44.36,-67.891 l 0,0 c -0.954,-1.272 -2.704,-0.954 -6.838,-3.498 l 0,0 c -4.133,-2.544 -8.109,-8.586 -8.109,-8.586 l 0,0 -23.053,-33.071 c 0,0 3.497,-23.214 5.724,-30.527 l 0,0 c 2.225,-7.314 12.56,-16.694 14.786,-19.556 l 0,0 c 2.226,-2.862 0.795,-5.407 0.159,-13.993 l 0,0 c -0.636,-8.585 4.929,-9.539 4.929,-19.079 l 0,0 c 0,-9.54 -9.539,-16.217 -9.539,-16.217 l 0,0 c 0,0 3.178,-6.837 2.384,-14.628 l 0,0 c -0.795,-7.791 -10.971,-12.561 -10.971,-12.561 l 0,0 c 0,0 1.272,-6.042 -3.975,-13.037 l 0,0 c -5.247,-6.996 -14.151,-6.042 -14.151,-6.042 l 0,0 c 0,0 -0.794,-4.134 -6.359,-6.996 l 0,0 c -5.566,-2.862 -13.991,-1.272 -13.991,-1.272 l 0,0 c 0,0 -1.432,-3.338 -10.971,-6.2 l 0,0 c -9.54,-2.862 -15.9,2.385 -15.9,2.385 l 0,0 c 0,0 14.15,0.317 17.808,2.861 l 0,0 c 3.656,2.544 4.451,4.77 6.518,6.837 l 0,0 c 1.007,1.007 2.618,0.58 4.501,0.153 l 0,0 c 1.983,-0.45 4.268,-0.899 6.469,0.324 l 0,0 c 4.294,2.385 5.407,8.267 7.155,10.335 l 0,0 c 0.89,1.05 3.465,0.868 6.094,0.686 l 0,0 c 2.542,-0.177 5.136,-0.352 6.308,0.585 l 0,0 c 2.385,1.908 1.272,8.586 1.591,13.356 l 0,0 c 0.318,4.77 10.016,8.268 10.016,14.151 l 0,0 c 0,5.882 -3.815,5.088 -3.815,12.243 l 0,0 c 0,7.155 9.857,8.744 10.175,15.899 l 0,0 c 0.318,7.155 -3.816,9.699 -4.452,13.197 l 0,0 c -0.636,3.498 -0.477,9.381 -1.113,13.674 l 0,0 c -0.636,4.292 -8.426,14.786 -10.334,20.827 l 0,0 c -1.909,6.043 -1.591,29.415 -1.591,29.415 l 0,0 c 0,0 -3.179,1.908 -20.351,-21.623 l 0,0 c -17.171,-23.532 -10.242,-47.673 -6.996,-65.825 l 0,0 c 3.899,-21.798 -34.558,-29.064 -39.269,-32.849 l 0,0 c -4.451,-3.577 -12.79,-10.311 -13.426,-26.026 l 0,0 c -0.636,-15.716 15.49,-23.643 15.49,-23.643 l 0,0 0.477,3.975 c 0,0 4.929,-3.499 9.858,-5.089 l 0,0 c 4.929,-1.589 12.083,1.75 12.083,1.75 l 0,0 c 0,0 -2.46,-10.113 -11.841,-9.636 l 0,0 c -9.381,0.477 -6.761,3.117 -6.761,3.117 l 0,0 c 0,0 -1.045,-0.411 -7.79,0.954 l 0,0 c -6.993,1.415 -7.39,5.389 -7.39,5.389 l 0,0 c -0.875,-23.69 7.548,-33.214 14.385,-35.599 l 0,0 c 6.837,-2.385 16.142,1.495 16.142,1.495 l 0,0 c 0,0 3.732,-8.967 17.883,-9.127 l 0,0 c 14.151,-0.159 19.397,10.494 19.397,10.494 l 0,0 c 0,0 10.177,-5.087 22.101,0 l 0,0 c 11.925,5.088 11.13,16.219 11.13,16.219 l 0,0 c 0,0 7.95,-4.293 19.716,4.928 l 0,0 c 11.765,9.221 6.2,23.691 6.2,23.691 l 0,0 c 0,0 8.745,-1.431 17.489,10.995 l 0,0 c 8.746,12.426 0.477,23.984 0.477,23.984 l 0,0 c 0,0 5.088,4.611 8.427,13.355 l 0,0 c 3.339,8.745 -0.635,15.105 -0.635,15.105 l 0,0 c 0,0 10.493,11.766 19.556,26.234 l 0,0 c 9.063,14.468 10.335,20.829 11.925,31.481 l 0,0 c 1.589,10.652 -4.293,17.967 -4.293,17.967 l 0,0 c 0,0 3.497,8.426 6.359,20.034 l 0,0 c 2.862,11.606 -1.589,21.464 -1.589,21.464 l 0,0 c 0,0 3.179,8.267 6.824,22.259 l 0,0 c 3.645,13.992 -3.804,19.08 -3.804,19.08 l 0,0 c 5.247,23.849 4.293,27.347 1.75,32.275 l 0,0 c -2.545,4.93 -7.632,1.431 -7.632,1.431 l 0,0 c 0,0 2.702,10.494 2.702,17.331 l 0,0 c 0,6.837 -2.066,11.925 -7.631,15.581 l 0,0 c -0.498,0.328 -1.035,0.477 -1.601,0.477 l 0,0 c -5.758,0 -14.457,-15.422 -14.457,-15.422 m -150.256,-263.12 0.01,-0.001 0,-0.007 -0.01,0.008 z m -12.799,-2.975 c 0,0 0,0 0,0 m -0.089,-0.23 c 0.023,0.07 0.051,0.131 0.077,0.198 l 0,0 c -0.043,-0.116 -0.077,-0.234 -0.119,-0.35 l 0,0 c 0.016,0.047 0.026,0.106 0.042,0.152 m -26.863,118.974 c -4.6,-0.316 -9.164,-0.873 -13.68,-1.807 l 0,0 c -5.489,-1.134 -10.781,-2.837 -15.724,-5.523 l 0,0 c -5.744,-3.12 -10.466,-7.353 -13.987,-12.881 l 0,0 c -0.745,-1.169 -1.384,-2.406 -2.115,-3.584 l 0,0 c -1.653,-2.664 -3.943,-4.709 -6.551,-6.374 l 0,0 c -2.686,-1.716 -5.456,-3.298 -8.189,-4.939 l 0,0 c -2.565,-1.538 -5.036,-3.196 -7.027,-5.476 l 0,0 c -2.485,-2.844 -3.436,-6.124 -2.865,-9.857 l 0,0 c 0.348,-2.278 1.147,-4.395 2.267,-6.391 l 0,0 c 2.825,-5.034 6.873,-8.897 11.656,-12.037 l 0,0 c 0.511,-0.335 1.09,-0.599 1.674,-0.788 l 0,0 c 0.816,-0.264 1.152,0.06 0.908,0.885 l 0,0 c -0.174,0.587 -0.479,1.138 -0.756,1.69 l 0,0 c -1.344,2.676 -1.907,5.507 -1.707,8.49 l 0,0 c 0.069,1.022 0.579,1.79 1.461,2.288 l 0,0 c 0.433,0.245 0.899,0.448 1.373,0.605 l 0,0 c 1.467,0.492 2.997,0.707 4.529,0.717 l 0,0 c 2.448,0.014 4.899,-0.046 7.345,-0.16 l 0,0 c 1.768,-0.082 3.531,-0.284 5.292,-0.464 l 0,0 c 2.407,-0.247 4.812,-0.525 7.217,-0.786 l 0,0 c 1.642,-0.177 3.295,-0.285 4.928,-0.533 l 0,0 c 5.774,-0.873 10.497,-3.582 14.1,-8.206 l 0,0 c 1.922,-2.465 3.354,-5.204 4.579,-8.062 l 0,0 c 2.08,-4.85 2.876,-9.901 2.33,-15.151 l 0,0 c -0.432,-4.145 -1.606,-8.095 -3.244,-11.914 l 0,0 c -2.849,-6.644 -6.83,-12.604 -11.167,-18.336 l 0,0 c -3.261,-4.309 -6.643,-8.526 -9.939,-12.808 l 0,0 c -3.46,-4.497 -6.726,-9.13 -9.508,-14.084 l 0,0 c -2.511,-4.473 -4.577,-9.124 -5.731,-14.148 l 0,0 c -0.74,-3.222 -1.021,-6.479 -0.741,-9.765 l 0,0 c 0.435,-5.121 2.277,-9.739 5.189,-13.946 l 0,0 c 2.664,-3.85 5.978,-7.074 9.675,-9.915 l 0,0 c 0.698,-0.536 1.484,-0.959 2.245,-1.407 l 0,0 c 0.332,-0.195 0.705,-0.283 1.186,-0.027 l 0,0 c -0.058,0.327 -0.059,0.683 -0.186,0.987 l 0,0 c -0.203,0.488 -0.468,0.954 -0.745,1.406 l 0,0 c -1.452,2.37 -2.349,4.935 -2.77,7.66 l 0,0 c -0.202,2.831 -0.152,6.354 0.538,10.351 l 0,0 c 0.11,0.444 0.229,0.887 0.357,1.327 l 0,0 c 2.183,7.451 6.035,13.951 11.347,19.59 l 0,0 c 2.387,2.535 5.111,4.643 8.293,6.113 l 0,0 c 1.67,0.77 3.402,1.161 5.248,0.836 l 0,0 c 1.982,-0.349 3.02,-1.689 2.887,-3.689 l 0,0 c -0.09,-1.363 -0.654,-2.564 -1.239,-3.758 l 0,0 c -1.21,-2.473 -2.771,-4.734 -4.265,-7.038 l 0,0 c -4.768,-7.355 -5.284,-15.032 -1.659,-23.007 l 0,0 c 1.284,-2.824 3.112,-5.285 5.017,-7.697 l 0,0 c 0.621,-0.787 1.296,-1.532 1.975,-2.27 l 0,0 c 0.225,-0.247 0.491,-0.536 0.918,-0.377 l 0,0 c 0.292,0.368 0.215,0.79 0.136,1.188 l 0,0 c -0.214,1.069 -0.446,2.136 -0.698,3.198 l 0,0 c -0.512,2.151 -0.606,4.321 -0.339,6.51 l 0,0 c 0.352,2.865 1.442,5.464 2.887,7.931 l 0,0 c 1.83,3.127 4.16,5.873 6.504,8.614 l 0,0 c 2.821,3.298 5.662,6.582 8.392,9.956 l 0,0 c 2.459,3.038 4.475,6.373 6.083,9.948 l 0,0 c 1.469,3.265 2.425,6.644 2.506,10.251 l 0,0 c 0,0 -13.198,24.73 -1.574,40.841 l 0,0 c 11.625,16.112 45.587,16.974 49.784,32.966 l 0,0 c 3.445,13.125 -2.942,18.602 -3.578,29.891 l 0,0 c -0.491,8.727 0.292,13.267 0.292,13.267 l 0,0 c 0,0 -23.822,11.806 -33.253,14.841 l 0,0 c -7.784,2.504 -15.749,4.132 -23.899,4.784 l 0,0 c -2.491,0.199 -4.986,0.299 -7.481,0.299 l 0,0 c -2.166,0 -4.333,-0.075 -6.501,-0.225 m 1.052,-12.61 c 0.851,1.166 1.597,2.41 2.383,3.624 l 0,0 c 0.471,0.726 1.011,1.382 1.752,1.85 l 0,0 c 0.826,0.521 1.705,0.78 2.561,0.154 l 0,0 c 0.858,-0.628 1.324,-1.51 1.139,-2.609 l 0,0 c -0.339,-2.022 -1.299,-3.783 -2.397,-5.476 l 0,0 c -0.364,-0.561 -0.754,-1.106 -1.136,-1.664 l 0,0 c 0.433,-0.286 0.693,0.018 0.97,0.123 l 0,0 c 1.544,0.583 3.062,1.238 4.624,1.763 l 0,0 c 0.857,0.289 1.779,0.399 2.681,0.536 l 0,0 c 1.321,0.202 2.498,-0.225 3.622,-0.89 l 0,0 c 0.371,-0.219 0.485,-0.479 0.398,-0.869 l 0,0 c -0.083,-0.376 -0.152,-0.753 -0.249,-1.123 l 0,0 c -0.321,-1.226 -1.084,-1.992 -2.341,-2.261 l 0,0 c -6.075,-1.305 -11.237,-4.353 -15.849,-8.405 l 0,0 c -1.262,-1.109 -2.387,-2.372 -3.595,-3.544 l 0,0 c -1.594,-1.544 -2.595,-3.344 -4.998,-5.259 l 0,0 -3.869,-3.028 c -1.251,-1.08 -3.015,-1.287 -4.565,-0.795 l 0,0 c -2.192,0.697 -4.362,1.46 -6.546,2.18 l 0,0 c -2.077,0.684 -4.124,1.439 -6.034,2.513 l 0,0 c -2.042,1.148 -3.802,2.603 -4.857,4.76 l 0,0 c -0.859,1.752 -1.177,3.642 -1.316,5.564 l 0,0 c -0.108,1.481 0,2.952 0.374,4.394 l 0,0 c 0.39,1.509 1.258,2.651 2.659,3.364 l 0,0 c 0.598,0.304 1.238,0.441 1.89,0.266 l 0,0 c 1.058,-0.284 1.458,-1.12 1.624,-2.109 l 0,0 c 0.055,-0.339 0.064,-0.687 0.11,-1.209 l 0,0 c 0.349,0.292 0.592,0.482 0.821,0.687 l 0,0 c 2.616,2.343 5.573,4.055 9.006,4.892 l 0,0 c 3.041,0.743 6.078,0.619 9.129,0.02 l 0,0 c 1.676,-0.329 3.368,-0.643 5.066,-0.771 l 0,0 c 0.226,-0.017 0.448,-0.026 0.667,-0.026 l 0,0 c 2.6,0 4.7,1.193 6.276,3.348 m -47.46,-22.942 c 0.022,0.381 0.021,0.723 0.066,1.059 l 0,0 c 0.118,0.878 0.696,1.215 1.488,0.814 l 0,0 c 0.341,-0.174 0.679,-0.465 0.877,-0.79 l 0,0 c 0.796,-1.297 1.36,-2.697 1.442,-4.234 l 0,0 c 0.057,-1.093 -0.157,-2.152 -1.189,-2.757 l 0,0 c -1.022,-0.599 -2.062,-0.357 -2.968,0.297 l 0,0 c -2.231,1.612 -3.547,3.849 -4.531,6.596 l 0,0 c 1.062,0.206 1.909,-0.129 2.725,-0.462 l 0,0 c 0.641,-0.264 1.264,-0.527 1.956,-0.527 l 0,0 c 0.045,0 0.089,0.001 0.134,0.004 m 33.058,-79.604 -0.01,-0.017 c 0,0 -0.014,-0.016 -0.022,-0.025 l 0,0 c 0.011,0.015 0.022,0.028 0.032,0.042 m -11.902,91.784 c 0,-4.025 3.265,-7.289 7.29,-7.289 l 0,0 c 4.026,0 7.289,3.264 7.289,7.289 l 0,0 c 0,4.026 -3.263,7.289 -7.289,7.289 l 0,0 c -4.025,0 -7.29,-3.263 -7.29,-7.289 m 27.589,4.773 -0.055,-0.004 c 0,0 -0.187,-0.012 -0.539,-0.036 l 0,0 c -0.352,-0.039 -0.894,-0.112 -1.54,-0.377 l 0,0 c -1.298,-0.506 -2.909,-1.811 -4.32,-3.476 l 0,0 c -1.456,-1.642 -2.842,-3.584 -4.443,-5.192 l 0,0 c -1.578,-1.629 -3.351,-2.873 -5.399,-3.681 l 0,0 c -1.03,-0.36 -2.159,-0.724 -3.174,-0.928 l 0,0 -1.005,-0.161 c -0.185,-0.047 -0.495,-0.041 -0.734,-0.069 l 0,0 c -0.516,-0.064 -1.018,-0.122 -1.518,-0.112 l 0,0 c -1.005,-0.031 -1.956,0.16 -2.91,0.343 l 0,0 c -0.946,0.212 -1.822,0.584 -2.68,0.932 l 0,0 c -1.683,0.758 -3.067,1.717 -4.065,2.407 l 0,0 c -0.985,0.714 -1.553,1.181 -1.553,1.181 l 0,0 -0.05,0.042 c -0.051,0.042 -0.125,0.053 -0.189,0.02 l 0,0 c -0.086,-0.043 -0.12,-0.147 -0.076,-0.233 l 0,0 c 0,0 0.322,-0.635 1.041,-1.623 l 0,0 c 0.727,-0.976 1.839,-2.358 3.53,-3.626 l 0,0 c 1.675,-1.25 3.952,-2.448 6.618,-2.693 l 0,0 c 1.306,-0.18 2.73,-0.056 4.059,0.124 l 0,0 c 1.378,0.224 2.754,0.561 4.056,1.119 l 0,0 c 2.628,1.073 4.869,2.956 6.464,5.039 l 0,0 c 1.617,2.08 2.734,4.254 3.806,6.016 l 0,0 c 1.047,1.781 2.138,3.112 3.096,3.802 l 0,0 c 0.963,0.681 1.632,0.839 1.632,0.839 l 0,0 c 0.082,0.02 0.14,0.097 0.134,0.183 l 0,0 c -0.01,0.093 -0.083,0.164 -0.175,0.164 l 0,0 c 0,0 -0.01,0 -0.011,0 m 164.926,-134.447 c -1.632,-0.612 -3.74,-1.753 -5.13,-2.541 l 0,0 c -3.578,-2.029 -6.432,-4.53 -8.853,-6.846 l 0,0 c -3.618,-3.462 -6.265,-6.512 -8.902,-6.952 l 0,0 c -5.088,-0.848 -10.233,5.74 -10.233,5.74 l 0,0 c 0,0 -1.271,-11.447 -13.355,-15.688 l 0,0 c -12.084,-4.24 -21.624,0 -21.624,0 l 0,0 c 0,0 -4.24,-8.902 -22.895,-6.359 l 0,0 c -18.655,2.544 -17.751,9.311 -17.751,9.311 l 0,0 c 0,0 -26.87,-15.661 -32.515,22.418 l 0,0 c -7.516,-7.318 -21.091,-24.543 -21.091,-24.543 l 0,0 c -5.066,-9.571 5.059,-22.678 -2.36,-22.678 l 0,0 c -7.42,0 -14.587,13.227 -15.905,18.021 l 0,0 c -2.539,9.247 6.53,24.97 0.244,24.988 l 0,0 c -5.699,0.015 -12.172,-21.817 -9.566,-33.469 l 0,0 c 1.457,-6.518 1.908,-6.996 1.908,-6.996 l 0,0 c -4.109,-6.041 -8.324,1.712 -8.324,1.712 l 0,0 c 0,0 -7.786,-25.523 -8.905,-30.527 l 0,0 C 1625.505,225.071 1615,188.049 1615,188.049 l 0,0 c 0,0 1.696,-11.447 -5.724,-21.623 l 0,0 c -7.42,-10.176 -11.236,-12.932 -11.236,-12.932 l 0,0 c 0,0 -8.267,2.121 -11.023,0 l 0,0 c -2.756,-2.119 -4.029,-3.391 -5.725,-3.391 l 0,0 c -1.07,0 -10.423,2.765 -15.012,-2.948 l 0,0 c -2.924,-3.64 -1.806,-9.145 -1.734,-9.52 l 0,0 c 0.626,-3.283 5.116,-13.608 13.779,-13.608 l 0,0 50.03,0 c 0,0 12.084,19.503 16.535,34.343 l 0,0 c 4.453,14.84 6.573,22.259 6.573,22.259 l 0,0 c 0,0 8.48,5.513 16.535,27.559 l 0,0 c 8.056,22.048 8.056,20.988 8.056,20.988 l 0,0 c 0,0 15.688,-11.66 38.159,-20.563 l 0,0 c 22.471,-8.904 39.219,-7.42 39.219,-7.42 l 0,0 c 0,0 12.931,-5.936 27.559,-5.936 l 0,0 c 14.628,0 22.329,-1.642 22.329,-1.642 l 0,0 c 0,0 -7.564,12.234 -10.636,32.147 l 0,0 c -0.879,5.701 -1.354,14.37 -0.783,20.39 l 0,0 c 0.647,6.842 2.852,16.23 6.999,23.588 l 0,0 c 0,0 7.074,12.219 18.852,23.997 l 0,0 c 2.927,2.926 6.16,5.383 9.63,7.427 l 0,0 c 4.282,2.523 9.852,4.273 14.508,4.738 l 0,0 c 7.552,0.755 14.829,-1.171 18.976,-4.485 l 0,0 c 4.79,-3.827 5.941,-8.518 5.969,-9.43 l 0,0 c 0.06,-1.911 -0.865,-3.791 -2.298,-4.417 l 0,0 c -0.666,-0.292 -1.122,-0.534 -1.423,-0.734 l 0,0 -5.911,4.984 c -4.603,3.569 -17.57,11.287 -31.16,1.177 l 0,0 c -14.043,-10.449 -26.118,-25.363 -28.345,-50.83 l 0,0 c -1.869,-21.345 8.215,-47.752 9.369,-49.242 l 0,0 c 1.153,-1.49 9.963,-13.144 19.079,-21.411 l 0,0 c 9.116,-8.268 16.323,-16.536 16.323,-16.536 l 0,0 c 0,0 -16.111,3.392 -22.895,3.392 l 0,0 c -6.784,0 -14.628,-5.088 -16.536,-5.3 l 0,0 c -0.954,-0.106 -3.868,0.265 -7.021,0.636 l 0,0 c -3.153,0.37 -6.546,0.742 -8.454,0.636 l 0,0 c -3.816,-0.212 -12.72,-4.664 -12.72,-4.664 l 0,0 c 0,0 -14.43,0.85 -14.839,-13.356 l 0,0 c -0.248,-11.042 12.083,-12.295 12.083,-12.295 l 0,0 175.956,0 c 0,0 26.499,7.42 23.107,26.287 l 0,0 c -3.392,18.868 -10.6,54.059 -37.523,87.342 l 0,0 c -20.14,22.259 -48.766,33.321 -51.772,34.922 l 0,0 c -3.04,1.62 -11.197,7.905 -13.17,9.56 l 0,0 -4.762,4.016 c 1.001,0.511 3.049,1.784 3.447,3.375 l 0,0 c 0.48,1.921 0.555,4.877 -2.691,8.953 l 0,0 c -3.597,4.517 -8.613,7.362 -14.287,8.307 l 0,0 c -1.656,0.276 -3.339,0.406 -5.031,0.406 l 0,0 c -4.549,0 -9.158,-0.944 -13.445,-2.55"
         id="path64"
         inkscape:connector-curvature="0" /></clipPath><linearGradient
       x1="0"
       y1="0"
       x2="1"
       y2="0"
       gradientUnits="userSpaceOnUse"
       gradientTransform="matrix(407.1734,0,0,-407.1734,1564.2764,372.24545)"
       spreadMethod="pad"
       id="linearGradient70"><stop
         style="stop-opacity:1;stop-color:#a6a8a9"
         offset="0"
         id="stop72" /><stop
         style="stop-opacity:1;stop-color:#ffffff"
         offset="0.5"
         id="stop74" /><stop
         style="stop-opacity:1;stop-color:#a6a8a9"
         offset="1"
         id="stop76" /></linearGradient></defs><sodipodi:namedview
     pagecolor="#ffffff"
     bordercolor="#666666"
     borderopacity="1"
     objecttolerance="10"
     gridtolerance="10"
     guidetolerance="10"
     inkscape:pageopacity="0"
     inkscape:pageshadow="2"
     inkscape:window-width="3682"
     inkscape:window-height="1734"
     id="namedview4"
     showgrid="false"
     inkscape:showpageshadow="false"
     showborder="false"
     fit-margin-top="0"
     fit-margin-left="0"
     fit-margin-right="0"
     fit-margin-bottom="0"
     inkscape:zoom="0.85137239"
     inkscape:cx="828.88155"
     inkscape:cy="334.55068"
     inkscape:window-x="0"
     inkscape:window-y="41"
     inkscape:window-maximized="0"
     inkscape:current-layer="g10" /><g
     id="g10"
     inkscape:groupmode="layer"
     inkscape:label="Грифон элементы фир стиля"
     transform="matrix(1.25,0,0,-1.25,-136.8725,426.63375)"><g
       id="g36"
       transform="matrix(0.55806685,0,0,0.48816695,48.390796,63.481117)"><g
         id="g38"
         clip-path="url(#clipPath40)"><g
           id="g44"><g
             id="g46"><path
               d="m 1498.561,457.478 0,-82.471 -115.559,0 0,82.471 -49.545,0 0,-214.644 49.545,0 0,82.628 115.559,0 0,-82.628 49.546,0 0,214.644 -49.546,0 z m -401.496,-214.644 214.649,0 0,214.644 -214.649,0 0,-214.644 z m 49.545,165.099 115.56,0 0,-115.553 -115.56,0 0,115.553 z m -174.413,49.545 -49.552,0 -102.969,0 0,-132.016 102.969,0 0,-82.628 49.552,0 0,82.628 102.97,0 0,132.016 -102.97,0 z m 0,-49.545 53.425,0 0,-32.927 -53.425,0 0,32.927 z m -102.977,0 53.425,0 0,-32.927 -53.425,0 0,32.927 z m -121.613,49.545 -114.935,-137.92 0,137.92 -49.541,0 0,-214.644 50.167,0 114.934,138.077 0,-138.077 49.545,0 0,214.644 -50.17,0 z m -400.869,0 0,-214.644 49.546,0 0,82.628 165.101,0 0,132.016 -214.647,0 z m 49.546,-49.545 115.556,0 0,-32.927 -115.556,0 0,32.927 z m -285.933,49.545 0,-214.644 49.545,0 0,165.099 165.101,0 0,49.545 -214.646,0 z m 1345.722,-242.999 0,-90.452 20.876,0 0,34.82 48.692,0 0,-34.82 20.877,0 0,90.452 -90.445,0 z m 20.876,-20.884 48.692,0 0,-13.872 -48.692,0 0,13.872 z m -50.248,20.884 0,-34.755 -48.692,0 0,34.755 -20.877,0 0,-90.452 20.877,0 0,34.82 48.692,0 0,-34.82 20.877,0 0,90.452 -20.877,0 z m -168.509,-90.452 90.445,0 0,90.452 -90.445,0 0,-90.452 z m 20.877,69.568 48.692,0 0,-48.692 -48.692,0 0,48.692 z m -119.823,20.884 0,-90.452 20.876,0 0,34.82 69.575,0 0,55.632 -90.451,0 z m 20.876,-20.884 48.692,0 0,-13.872 -48.692,0 0,13.872 z m -119.817,-69.568 90.452,0 0,90.452 -90.452,0 0,-90.452 z m 20.877,69.568 48.692,0 0,-48.692 -48.692,0 0,48.692 z m -55.157,20.884 -19.763,-27.426 -19.829,27.426 -25.719,0 32.652,-45.23 -32.652,-45.222 25.719,0 19.829,27.425 19.763,-27.425 25.791,0 -32.659,45.222 32.659,45.23 -25.791,0 z m -164.258,-90.452 90.452,0 0,90.452 -90.452,0 0,-90.452 z m 20.876,69.568 48.692,0 0,-48.692 -48.692,0 0,48.692 z m -176.945,20.884 0,-90.452 20.876,0 0,34.82 48.692,0 0,-34.82 20.883,0 0,90.452 -90.451,0 z m 20.876,-20.884 48.692,0 0,-13.872 -48.692,0 0,13.872 z m -50.247,20.884 0,-24.353 c 0,-2.877 -1.023,-5.344 -3.073,-7.395 l 0,0 c -2.012,-2.005 -4.453,-3.007 -7.331,-3.007 l 0,0 -38.289,0 0,34.755 -20.876,0 0,-90.452 20.876,0 0,34.82 38.289,0 c 2.833,0 5.28,-1.028 7.331,-3.079 l 0,0 c 2.05,-2.051 3.073,-4.518 3.073,-7.395 l 0,0 0,-24.346 20.882,0 0,24.346 c 0,7.942 -2.662,14.9 -7.987,20.876 l 0,0 c 5.325,5.976 7.987,12.942 7.987,20.877 l 0,0 0,24.353 -20.882,0 z m -168.513,0 0,-90.452 90.448,0 0,20.877 -69.571,0 0,13.943 69.571,0 0,20.877 -69.571,0 0,13.871 69.571,0 0,20.884 -90.448,0 z m -29.371,0 -48.693,0 -20.876,0 0,-90.452 20.876,0 0,69.568 48.693,0 0,-69.568 20.879,0 0,90.452 -20.879,0 z m -98.941,0 -72.055,0 0,-20.884 72.055,0 0,-3.469 c 0,-2.877 -1.025,-5.344 -3.075,-7.395 l 0,0 c -2.005,-2.005 -4.45,-3.007 -7.331,-3.007 l 0,0 -38.287,0 0,-20.877 38.287,0 c 2.839,0 5.28,-1.028 7.331,-3.079 l 0,0 c 2.05,-2.051 3.075,-4.518 3.075,-7.395 l 0,0 0,-3.469 -72.055,0 0,-20.877 72.055,0 20.88,0 0,24.346 c 0,7.942 -2.662,14.9 -7.985,20.876 l 0,0 c 5.323,5.976 7.985,12.942 7.985,20.877 l 0,0 0,24.353 -20.88,0 z m -171.064,0 0,-90.452 90.448,0 0,20.877 -69.571,0 0,13.943 69.571,0 0,20.877 -69.571,0 0,13.871 69.571,0 0,20.884 -90.448,0 z m -78.064,0 -20.876,0 0,-90.452 20.876,0 69.573,0 0,55.632 -69.573,0 0,13.936 69.573,0 0,20.884 -69.573,0 z m 0,-55.696 48.692,0 0,-13.879 -48.692,0 0,13.879 z m 682.674,-1.909 28.65,0 0,28.656 -28.65,0 0,-28.656 z"
               style="fill:url(#linearGradient48);stroke:none"
               id="path56"
               inkscape:connector-curvature="0" /></g></g></g></g></g></svg>